SplineFontDB: 3.2
FontName: sideways
FullName: sideways
FamilyName: sideways
Weight: Regular
Copyright: Copyright (c) 2017, Stewart C. Russell - @scruss\nmodifed to be sideways
UComments: "2017-2-4: Created with FontForge (http://fontforge.org)"
Version: 001.000
ItalicAngle: 0
UnderlinePosition: 0
UnderlineWidth: 0
Ascent: 1024
Descent: 0
InvalidEm: 0
LayerCount: 2
Layer: 0 0 "Back" 1
Layer: 1 0 "Fore" 0
XUID: [1021 318 -1787477875 13535298]
StyleMap: 0x0040
FSType: 0
OS2Version: 0
OS2_WeightWidthSlopeOnly: 0
OS2_UseTypoMetrics: 1
CreationTime: 1486247248
ModificationTime: 1584846639
PfmFamily: 49
TTFWeight: 400
TTFWidth: 5
LineGap: 92
VLineGap: 0
OS2TypoAscent: 0
OS2TypoAOffset: 1
OS2TypoDescent: 0
OS2TypoDOffset: 1
OS2TypoLinegap: 92
OS2WinAscent: 0
OS2WinAOffset: 1
OS2WinDescent: 0
OS2WinDOffset: 1
HheadAscent: 0
HheadAOffset: 1
HheadDescent: 0
HheadDOffset: 1
OS2Vendor: 'PfEd'
MarkAttachClasses: 1
DEI: 91125

StartChar: zero
Encoding: 48 48 4
Width: 800
VWidth: -334
UnlinkRmOvrlpSave: 1
Flags: HW
HStem: -1 167<226 289 311 374> 138 167<171 214 386 429> 689 33G<126 144 456 474> 695 167<171 214 386 429> 834 167<226 289 311 374>
VStem: 90 100<297 429 431 569 571 703> 143 100<158 286 714 842> 197 100<13 145 855 987> 303 100<13 145 855 987> 357 100<158 286 714 842> 410 100<297 429 431 569 571 703>
LayerCount: 2
Fore
SplineSet
50 328 m 0x6080
 22 328 0 364 0 411 c 0
 0 458 22 495 50 495 c 0x8080
 78 495 100 458 100 411 c 0
 100 398 98 386 95 376 c 1
 104 393 118 405 133 405 c 0x8040
 161 405 183 368 183 321 c 0
 183 308 181 297 178 285 c 1
 187 303 201 316 217 316 c 0
 234 316 249 302 258 280 c 1
 267 302 283 316 300 316 c 0
 317 316 333 302 342 280 c 1
 351 302 366 316 383 316 c 0x4020
 399 316 413 303 422 285 c 1
 419 297 417 308 417 321 c 0
 417 368 439 405 467 405 c 0x5040
 482 405 496 393 505 376 c 1
 502 386 500 398 500 411 c 0
 500 458 522 495 550 495 c 0
 578 495 600 458 600 411 c 0
 600 364 578 328 550 328 c 0x0880
 535 328 521 339 512 356 c 1
 515 346 517 334 517 321 c 0
 517 274 495 238 467 238 c 0x1040
 451 238 437 252 428 270 c 1
 431 258 433 246 433 233 c 0
 433 186 411 149 383 149 c 0
 366 149 351 164 342 186 c 1
 333 164 317 149 300 149 c 0
 283 149 267 164 258 186 c 1
 249 164 234 149 217 149 c 0x2020
 189 149 167 186 167 233 c 0
 167 246 169 258 172 270 c 1
 163 252 149 238 133 238 c 0x2040
 105 238 83 274 83 321 c 0
 83 334 85 346 88 356 c 1
 79 339 65 328 50 328 c 0x6080
50 505 m 0x81
 22 505 0 542 0 589 c 0
 0 636 22 672 50 672 c 0x81
 65 672 79 661 88 644 c 1
 85 654 83 666 83 679 c 0
 83 726 105 762 133 762 c 0x42
 149 762 163 748 172 730 c 1
 169 742 167 754 167 767 c 0
 167 814 189 851 217 851 c 0
 234 851 249 836 258 814 c 1
 267 836 283 851 300 851 c 1
 317 851 333 836 342 814 c 1
 351 836 366 851 383 851 c 0
 411 851 433 814 433 767 c 0x64
 433 754 431 742 428 730 c 1
 437 748 451 762 467 762 c 1
 495 762 517 726 517 679 c 0x12
 517 666 515 654 512 644 c 1
 521 661 535 672 550 672 c 1
 578 672 600 636 600 589 c 0
 600 542 578 505 550 505 c 0x09
 522 505 500 542 500 589 c 0
 500 602 502 614 505 624 c 1
 496 607 482 595 467 595 c 1x0a
 439 595 417 632 417 679 c 0
 417 692 419 703 422 715 c 1
 413 697 399 684 383 684 c 1
 366 684 351 698 342 720 c 1
 333 698 317 684 300 684 c 0
 283 684 267 698 258 720 c 1
 249 698 234 684 217 684 c 1x14
 201 684 187 697 178 715 c 1
 181 703 183 692 183 679 c 0
 183 632 161 595 133 595 c 0x52
 118 595 104 607 95 624 c 1
 98 614 100 602 100 589 c 0
 100 542 78 505 50 505 c 0x81
EndSplineSet
EndChar

StartChar: four
Encoding: 52 52 5
Width: 800
VWidth: -334
UnlinkRmOvrlpSave: 1
Flags: HW
HStem: -1 35G<393 421> -1 35G<393 421> 278 167<98 159 226 289 311 374 441 502> 416 167<174 214> 555 167<226 269> 695 167<278 319> 834 167<334 374>
VStem: 90 100<292 422> 143 100<439 563> 197 100<292 424 576 703> 250 100<714 840> 303 100<294 424 856 987> 357 100<13 152 153 286 439 569 571 707 710 842> 410 100<297 422>
LayerCount: 2
Fore
SplineSet
50 238 m 0x2408
 22 238 0 274 0 321 c 0
 0 368 22 405 50 405 c 0
 67 405 83 390 92 368 c 1
 101 390 116 405 133 405 c 0xa408
 150 405 165 392 174 370 c 1
 170 382 167 396 167 411 c 0
 167 458 189 495 217 495 c 0xa410
 245 495 267 458 267 411 c 0
 267 398 265 386 262 376 c 1
 271 393 285 405 300 405 c 0
 317 405 333 390 342 368 c 1
 351 390 366 405 383 405 c 0
 401 405 416 389 425 366 c 1
 434 389 449 405 467 405 c 0
 482 405 496 393 505 376 c 1
 502 386 500 398 500 411 c 0
 500 423 502 433 504 443 c 1
 495 426 482 416 467 416 c 1xa228
 439 416 417 453 417 500 c 0
 417 513 419 525 422 537 c 1
 413 519 399 505 383 505 c 1x0440
 355 505 333 542 333 589 c 0
 333 602 335 614 338 624 c 1
 329 607 315 595 300 595 c 1x0880
 285 595 271 607 262 624 c 1
 265 614 267 602 267 589 c 0
 267 542 245 505 217 505 c 0
 189 505 167 542 167 589 c 0x2840
 167 636 189 672 217 672 c 0
 232 672 246 661 255 644 c 1
 252 654 250 666 250 679 c 0x1040
 250 691 252 700 254 710 c 1
 245 693 232 684 217 684 c 0
 189 684 167 720 167 767 c 0
 167 814 189 851 217 851 c 0
 245 851 267 814 267 767 c 0x2140
 267 755 265 745 263 735 c 1
 272 752 285 762 300 762 c 0
 328 762 350 726 350 679 c 0x1080
 350 666 348 654 345 644 c 1
 354 661 368 672 383 672 c 1
 411 672 433 636 433 589 c 0x0840
 433 576 431 564 428 552 c 1
 437 570 451 584 467 584 c 1
 495 584 517 547 517 500 c 0x0420
 517 488 515 478 513 468 c 1
 522 485 535 495 550 495 c 1
 578 495 600 458 600 411 c 0
 600 364 578 328 550 328 c 0x0210
 535 328 521 339 512 356 c 1
 515 346 517 334 517 321 c 0
 517 274 495 238 467 238 c 0
 449 238 434 253 425 276 c 1
 416 253 401 238 383 238 c 0
 366 238 351 253 342 275 c 1
 333 253 317 238 300 238 c 0x0408
 285 238 272 248 263 265 c 1
 265 255 267 245 267 233 c 0
 267 186 245 149 217 149 c 0x2404
 189 149 167 186 167 233 c 0
 167 246 169 258 172 270 c 1
 163 252 149 238 133 238 c 0
 116 238 101 253 92 275 c 1
 83 253 67 238 50 238 c 0x2408
178 285 m 1
 187 303 201 316 217 316 c 0
 232 316 245 307 254 290 c 1
 252 300 250 309 250 321 c 0
 250 334 252 346 255 356 c 1
 246 339 232 328 217 328 c 0x1014
 200 328 185 341 176 363 c 1
 180 351 183 336 183 321 c 0
 183 308 181 297 178 285 c 1
EndSplineSet
EndChar

StartChar: eight
Encoding: 56 56 6
Width: 800
VWidth: -334
UnlinkRmOvrlpSave: 1
Flags: HW
HStem: -1 167<174 235 258 342 365 426> 416 167<174 235 258 342 365 426> 834 167<174 235 258 342 365 426>
VStem: 90 100<160 290 293 422 578 707 710 840> 143 100<13 143 439 561 857 987> 250 100<13 152 431 569 848 987> 357 100<13 143 439 561 857 987> 410 100<160 290 293 422 578 707 710 840>
CounterMasks: 1 07
LayerCount: 2
Fore
SplineSet
50 238 m 1xe6
 22 238 0 274 0 321 c 0
 0 368 22 405 50 405 c 0xe6
 78 405 100 368 100 321 c 0
 100 309 98 300 96 290 c 1
 105 307 118 316 133 316 c 1
 151 316 166 301 175 278 c 1
 184 301 199 316 217 316 c 1xe5
 232 316 245 307 254 290 c 1
 252 300 250 309 250 321 c 0
 250 368 272 405 300 405 c 0xe6
 328 405 350 368 350 321 c 0
 350 309 348 300 346 290 c 1
 355 307 368 316 383 316 c 1
 401 316 416 301 425 278 c 1
 434 301 449 316 467 316 c 0xe5
 482 316 495 307 504 290 c 1
 502 300 500 309 500 321 c 0
 500 368 522 405 550 405 c 0
 578 405 600 368 600 321 c 0
 600 274 578 238 550 238 c 0xe6
 535 238 522 248 513 265 c 1
 515 255 517 245 517 233 c 0
 517 186 495 149 467 149 c 0
 449 149 434 165 425 188 c 1
 416 165 401 149 383 149 c 0xe5
 355 149 333 186 333 233 c 0
 333 245 335 255 337 265 c 1
 328 248 315 238 300 238 c 1xe6
 285 238 272 248 263 265 c 1
 265 255 267 245 267 233 c 0
 267 186 245 149 217 149 c 0
 199 149 184 165 175 188 c 1
 166 165 151 149 133 149 c 1xe5
 105 149 83 186 83 233 c 0
 83 245 85 255 87 265 c 1
 78 248 65 238 50 238 c 1xe6
50 416 m 0
 22 416 0 453 0 500 c 0
 0 547 22 584 50 584 c 0
 78 584 100 547 100 500 c 0
 100 453 78 416 50 416 c 0
50 595 m 0xec
 22 595 0 632 0 679 c 0
 0 726 22 762 50 762 c 0xec
 65 762 78 752 87 735 c 1
 85 745 83 755 83 767 c 0
 83 814 105 851 133 851 c 0
 151 851 166 835 175 812 c 1
 184 835 199 851 217 851 c 0xf4
 245 851 267 814 267 767 c 0
 267 755 265 745 263 735 c 1
 272 752 285 762 300 762 c 0xec
 315 762 328 752 337 735 c 1
 335 745 333 755 333 767 c 0
 333 814 355 851 383 851 c 0
 401 851 416 835 425 812 c 1
 434 835 449 851 467 851 c 0xf4
 495 851 517 814 517 767 c 0
 517 755 515 745 513 735 c 1
 522 752 535 762 550 762 c 0
 578 762 600 726 600 679 c 0
 600 632 578 595 550 595 c 0xec
 522 595 500 632 500 679 c 0
 500 691 502 700 504 710 c 1
 495 693 482 684 467 684 c 0
 449 684 434 699 425 722 c 1
 416 699 401 684 383 684 c 0xf4
 368 684 355 693 346 710 c 1
 348 700 350 691 350 679 c 0
 350 632 328 595 300 595 c 0xec
 272 595 250 632 250 679 c 0
 250 691 252 700 254 710 c 1
 245 693 232 684 217 684 c 0
 199 684 184 699 175 722 c 1
 166 699 151 684 133 684 c 0xf4
 118 684 105 693 96 710 c 1
 98 700 100 691 100 679 c 0
 100 632 78 595 50 595 c 0xec
300 416 m 0
 272 416 250 453 250 500 c 0
 250 547 272 584 300 584 c 0
 328 584 350 547 350 500 c 0
 350 453 328 416 300 416 c 0
550 416 m 0
 522 416 500 453 500 500 c 0
 500 547 522 584 550 584 c 0
 578 584 600 547 600 500 c 0
 600 453 578 416 550 416 c 0
EndSplineSet
EndChar

StartChar: less
Encoding: 60 60 7
Width: 800
VWidth: -334
UnlinkRmOvrlpSave: 1
Flags: HW
HStem: -1 167<418 502> 138 167<311 395> 278 167<205 289> 416 167<98 182> 555 167<205 289> 695 167<311 395> 834 167<418 502>
VStem: 90 100<431 569> 197 100<292 431 569 708> 303 100<152 291 709 848> 410 100<13 152 848 987>
LayerCount: 2
Fore
SplineSet
50 149 m 0x81e0
 22 149 0 186 0 233 c 0
 0 280 22 316 50 316 c 0
 78 316 100 280 100 233 c 0
 100 186 78 149 50 149 c 0x81e0
133 328 m 0
 105 328 83 364 83 411 c 0
 83 458 105 495 133 495 c 0
 161 495 183 458 183 411 c 0x41e0
 183 364 161 328 133 328 c 0
217 505 m 0
 189 505 167 542 167 589 c 0
 167 636 189 672 217 672 c 0
 245 672 267 636 267 589 c 0x21e0
 267 542 245 505 217 505 c 0
300 684 m 0
 272 684 250 720 250 767 c 0
 250 814 272 851 300 851 c 0
 328 851 350 814 350 767 c 0x11e0
 350 720 328 684 300 684 c 0
383 505 m 0
 355 505 333 542 333 589 c 0
 333 636 355 672 383 672 c 0
 411 672 433 636 433 589 c 0x09e0
 433 542 411 505 383 505 c 0
467 328 m 0
 439 328 417 364 417 411 c 0
 417 458 439 495 467 495 c 0
 495 495 517 458 517 411 c 0x05e0
 517 364 495 328 467 328 c 0
550 149 m 0
 522 149 500 186 500 233 c 0
 500 280 522 316 550 316 c 0
 578 316 600 280 600 233 c 0x03e0
 600 186 578 149 550 149 c 0
EndSplineSet
EndChar

StartChar: at
Encoding: 64 64 8
Width: 800
VWidth: -334
UnlinkRmOvrlpSave: 1
Flags: HW
HStem: -1 167<174 235 258 342 365 449> 278 167<365 426> 555 167<334 395> 834 167<174 235 258 342 365 426>
VStem: 90 100<160 290 293 429 431 569 571 707 710 840> 143 100<13 143 857 987> 250 100<13 152 292 429 431 561 848 987> 303 100<578 708> 357 100<13 152 292 422 857 987> 410 100<439 569 571 707 710 840>
LayerCount: 2
Fore
SplineSet
50 238 m 0xf080
 22 238 0 274 0 321 c 0
 0 368 22 405 50 405 c 0
 78 405 100 368 100 321 c 0
 100 274 78 238 50 238 c 0xf080
50 416 m 0xf2
 22 416 0 453 0 500 c 0
 0 547 22 584 50 584 c 0
 78 584 100 547 100 500 c 0
 100 453 78 416 50 416 c 0xf2
50 595 m 0xf4
 22 595 0 632 0 679 c 0
 0 726 22 762 50 762 c 0xf4
 65 762 78 752 87 735 c 1
 85 745 83 755 83 767 c 0
 83 814 105 851 133 851 c 0
 151 851 166 835 175 812 c 1
 184 835 199 851 217 851 c 0
 234 851 249 836 258 814 c 1
 267 836 283 851 300 851 c 1
 317 851 333 836 342 814 c 1
 351 836 366 851 383 851 c 0
 401 851 416 835 425 812 c 1
 434 835 449 851 467 851 c 0xf8
 495 851 517 814 517 767 c 0
 517 755 515 745 513 735 c 1
 522 752 535 762 550 762 c 0
 578 762 600 726 600 679 c 0
 600 632 578 595 550 595 c 0xf4
 522 595 500 632 500 679 c 0
 500 691 502 700 504 710 c 1
 495 693 482 684 467 684 c 0
 449 684 434 699 425 722 c 1
 416 699 401 684 383 684 c 0
 366 684 351 698 342 720 c 1
 333 698 317 684 300 684 c 0
 283 684 267 698 258 720 c 1
 249 698 234 684 217 684 c 1
 199 684 184 699 175 722 c 1
 166 699 151 684 133 684 c 0xf8
 118 684 105 693 96 710 c 1
 98 700 100 691 100 679 c 0
 100 632 78 595 50 595 c 0xf4
217 238 m 1xf080
 189 238 167 274 167 321 c 0
 167 368 189 405 217 405 c 0xf080
 245 405 267 368 267 321 c 0
 267 309 265 300 263 290 c 1
 272 307 285 316 300 316 c 1
 317 316 333 302 342 280 c 1
 351 302 366 316 383 316 c 0
 401 316 416 301 425 278 c 1
 434 301 449 316 467 316 c 0xf040
 482 316 495 307 504 290 c 1
 502 300 500 309 500 321 c 0
 500 368 522 405 550 405 c 0
 578 405 600 368 600 321 c 0
 600 274 578 238 550 238 c 0xf080
 535 238 522 248 513 265 c 1
 515 255 517 245 517 233 c 0
 517 186 495 149 467 149 c 0
 449 149 434 165 425 188 c 1
 416 165 401 149 383 149 c 0
 366 149 351 164 342 186 c 1
 333 164 317 149 300 149 c 0xf040
 272 149 250 186 250 233 c 0
 250 245 252 255 254 265 c 1
 245 248 232 238 217 238 c 1xf080
217 416 m 0xf2
 189 416 167 453 167 500 c 0
 167 547 189 584 217 584 c 0
 234 584 249 569 258 547 c 1
 267 569 283 584 300 584 c 1xf2
 328 584 350 547 350 500 c 0
 350 488 348 478 346 468 c 1
 355 485 368 495 383 495 c 1
 411 495 433 458 433 411 c 0
 433 364 411 328 383 328 c 0xf1
 355 328 333 364 333 411 c 0
 333 423 335 433 337 443 c 1
 328 426 315 416 300 416 c 1
 283 416 267 431 258 453 c 1
 249 431 234 416 217 416 c 0xf2
550 416 m 0
 522 416 500 453 500 500 c 0
 500 547 522 584 550 584 c 0
 578 584 600 547 600 500 c 0
 600 453 578 416 550 416 c 0
EndSplineSet
EndChar

StartChar: D
Encoding: 68 68 9
Width: 800
VWidth: -334
UnlinkRmOvrlpSave: 1
Flags: HW
HStem: -1 167<98 159 226 289 311 395> 834 167<98 159 226 289 311 395>
VStem: 90 100<13 143 857 987> 143 100<160 290 293 429 431 569 571 707 710 840> 197 100<13 145 855 987> 303 100<13 152 848 987> 410 100<152 290 293 429 431 569 571 707 710 848>
LayerCount: 2
Fore
SplineSet
50 328 m 0xc6
 22 328 0 364 0 411 c 0
 0 458 22 495 50 495 c 0
 78 495 100 458 100 411 c 0
 100 364 78 328 50 328 c 0xc6
50 505 m 0xce
 22 505 0 542 0 589 c 0
 0 636 22 672 50 672 c 0
 65 672 79 661 88 644 c 1
 85 654 83 666 83 679 c 0
 83 691 85 700 87 710 c 1
 78 693 65 684 50 684 c 0
 22 684 0 720 0 767 c 0
 0 814 22 851 50 851 c 0xee
 78 851 100 814 100 767 c 0
 100 755 98 745 96 735 c 1
 105 752 118 762 133 762 c 0
 151 762 166 747 175 724 c 1
 184 747 199 762 217 762 c 0
 234 762 249 747 258 725 c 1
 267 747 283 762 300 762 c 1
 317 762 333 747 342 725 c 1
 351 747 366 762 383 762 c 0
 401 762 416 747 425 724 c 1
 434 747 449 762 467 762 c 0xd6
 482 762 495 752 504 735 c 1
 502 745 500 755 500 767 c 0
 500 814 522 851 550 851 c 0
 578 851 600 814 600 767 c 0
 600 720 578 684 550 684 c 0
 535 684 522 693 513 710 c 1
 515 700 517 691 517 679 c 0
 517 666 515 654 512 644 c 1
 521 661 535 672 550 672 c 1
 578 672 600 636 600 589 c 0
 600 542 578 505 550 505 c 0xee
 522 505 500 542 500 589 c 0
 500 602 502 614 505 624 c 1
 496 607 482 595 467 595 c 1
 449 595 434 611 425 634 c 1
 416 611 401 595 383 595 c 0
 366 595 351 610 342 632 c 1
 333 610 317 595 300 595 c 0
 283 595 267 610 258 632 c 1
 249 610 234 595 217 595 c 1
 199 595 184 611 175 634 c 1
 166 611 151 595 133 595 c 0xd6
 118 595 104 607 95 624 c 1
 98 614 100 602 100 589 c 0
 100 542 78 505 50 505 c 0xce
133 149 m 1
 105 149 83 186 83 233 c 0
 83 280 105 316 133 316 c 0
 151 316 166 301 175 278 c 1
 184 301 199 316 217 316 c 1
 234 316 249 302 258 280 c 1
 267 302 283 316 300 316 c 0
 317 316 333 302 342 280 c 1
 351 302 366 316 383 316 c 0
 401 316 416 301 425 278 c 1
 434 301 449 316 467 316 c 0
 495 316 517 280 517 233 c 0
 517 186 495 149 467 149 c 0
 449 149 434 165 425 188 c 1
 416 165 401 149 383 149 c 0
 366 149 351 164 342 186 c 1
 333 164 317 149 300 149 c 0
 283 149 267 164 258 186 c 1
 249 164 234 149 217 149 c 0
 199 149 184 165 175 188 c 1
 166 165 151 149 133 149 c 1
550 328 m 0
 522 328 500 364 500 411 c 0
 500 458 522 495 550 495 c 0
 578 495 600 458 600 411 c 0
 600 364 578 328 550 328 c 0
EndSplineSet
EndChar

StartChar: H
Encoding: 72 72 10
Width: 800
VWidth: -334
UnlinkRmOvrlpSave: 1
Flags: HW
HStem: -1 35G<126 154 446 474> -1 35G<126 154 446 474> 416 167<205 289 311 395> 968 33G<126 154 446 474>
VStem: 90 100<13 152 153 290 293 429 431 569 571 707 710 847 848 987> 197 100<431 569> 303 100<431 569> 410 100<13 152 153 290 293 429 431 569 571 707 710 847 848 987>
LayerCount: 2
Fore
SplineSet
50 149 m 0xbf
 22 149 0 186 0 233 c 0
 0 280 22 316 50 316 c 0
 67 316 83 302 92 280 c 1
 101 302 116 316 133 316 c 0
 151 316 166 301 175 278 c 1
 184 301 199 316 217 316 c 1
 234 316 249 302 258 280 c 1
 267 302 283 316 300 316 c 0
 317 316 333 302 342 280 c 1
 351 302 366 316 383 316 c 0
 401 316 416 301 425 278 c 1
 434 301 449 316 467 316 c 0
 484 316 499 302 508 280 c 1
 517 302 533 316 550 316 c 0
 578 316 600 280 600 233 c 0
 600 186 578 149 550 149 c 0
 533 149 517 164 508 186 c 1
 499 164 484 149 467 149 c 0
 449 149 434 165 425 188 c 1
 416 165 401 149 383 149 c 0
 366 149 351 164 342 186 c 1
 333 164 317 149 300 149 c 0
 283 149 267 164 258 186 c 1
 249 164 234 149 217 149 c 0
 199 149 184 165 175 188 c 1
 166 165 151 149 133 149 c 1
 116 149 101 164 92 186 c 1
 83 164 67 149 50 149 c 0xbf
50 684 m 1
 22 684 0 720 0 767 c 0
 0 814 22 851 50 851 c 0
 67 851 83 836 92 814 c 1
 101 836 116 851 133 851 c 1
 151 851 166 835 175 812 c 1
 184 835 199 851 217 851 c 0
 234 851 249 836 258 814 c 1
 267 836 283 851 300 851 c 1
 317 851 333 836 342 814 c 1
 351 836 366 851 383 851 c 0
 401 851 416 835 425 812 c 1
 434 835 449 851 467 851 c 0
 484 851 499 836 508 814 c 1
 517 836 533 851 550 851 c 0
 578 851 600 814 600 767 c 0
 600 720 578 684 550 684 c 0
 533 684 517 698 508 720 c 1
 499 698 484 684 467 684 c 0
 449 684 434 699 425 722 c 1
 416 699 401 684 383 684 c 0
 366 684 351 698 342 720 c 1
 333 698 317 684 300 684 c 0
 283 684 267 698 258 720 c 1
 249 698 234 684 217 684 c 1
 199 684 184 699 175 722 c 1
 166 699 151 684 133 684 c 0
 116 684 101 698 92 720 c 1
 83 698 67 684 50 684 c 1
300 328 m 0
 272 328 250 364 250 411 c 0
 250 458 272 495 300 495 c 0
 328 495 350 458 350 411 c 0
 350 364 328 328 300 328 c 0
300 505 m 0
 272 505 250 542 250 589 c 0
 250 636 272 672 300 672 c 0
 328 672 350 636 350 589 c 0
 350 542 328 505 300 505 c 0
EndSplineSet
EndChar

StartChar: L
Encoding: 76 76 11
Width: 800
VWidth: -334
UnlinkRmOvrlpSave: 1
Flags: HW
HStem: -1 167<205 289 311 395 418 502> 968 33G<126 154>
VStem: 90 100<13 152 153 290 293 429 431 569 571 707 710 847 848 987> 197 100<13 152> 303 100<13 152> 410 100<13 152>
LayerCount: 2
Fore
SplineSet
50 149 m 0
 22 149 0 186 0 233 c 0
 0 280 22 316 50 316 c 0
 78 316 100 280 100 233 c 0
 100 186 78 149 50 149 c 0
50 328 m 0
 22 328 0 364 0 411 c 0
 0 458 22 495 50 495 c 0
 78 495 100 458 100 411 c 0
 100 364 78 328 50 328 c 0
50 505 m 0
 22 505 0 542 0 589 c 0
 0 636 22 672 50 672 c 0
 78 672 100 636 100 589 c 0
 100 542 78 505 50 505 c 0
50 684 m 1
 22 684 0 720 0 767 c 0
 0 814 22 851 50 851 c 0
 67 851 83 836 92 814 c 1
 101 836 116 851 133 851 c 1
 151 851 166 835 175 812 c 1
 184 835 199 851 217 851 c 0
 234 851 249 836 258 814 c 1
 267 836 283 851 300 851 c 1
 317 851 333 836 342 814 c 1
 351 836 366 851 383 851 c 0
 401 851 416 835 425 812 c 1
 434 835 449 851 467 851 c 0
 484 851 499 836 508 814 c 1
 517 836 533 851 550 851 c 0
 578 851 600 814 600 767 c 0
 600 720 578 684 550 684 c 0
 533 684 517 698 508 720 c 1
 499 698 484 684 467 684 c 0
 449 684 434 699 425 722 c 1
 416 699 401 684 383 684 c 0
 366 684 351 698 342 720 c 1
 333 698 317 684 300 684 c 0
 283 684 267 698 258 720 c 1
 249 698 234 684 217 684 c 1
 199 684 184 699 175 722 c 1
 166 699 151 684 133 684 c 0
 116 684 101 698 92 720 c 1
 83 698 67 684 50 684 c 1
EndSplineSet
EndChar

StartChar: P
Encoding: 80 80 12
Width: 800
VWidth: -334
UnlinkRmOvrlpSave: 1
Flags: HW
HStem: -1 35G<126 154> -1 35G<126 154> 416 167<205 289 311 395> 834 167<205 289 311 395>
VStem: 90 100<13 152 153 290 293 429 431 569 571 707 710 847 848 987> 197 100<431 569 848 987> 303 100<431 569 848 987> 410 100<569 707 710 848>
LayerCount: 2
Fore
SplineSet
50 684 m 1xbf
 22 684 0 720 0 767 c 0
 0 814 22 851 50 851 c 0
 67 851 83 836 92 814 c 1
 101 836 116 851 133 851 c 1
 151 851 166 835 175 812 c 1
 184 835 199 851 217 851 c 0
 234 851 249 836 258 814 c 1
 267 836 283 851 300 851 c 1
 317 851 333 836 342 814 c 1
 351 836 366 851 383 851 c 0
 401 851 416 835 425 812 c 1
 434 835 449 851 467 851 c 0
 484 851 499 836 508 814 c 1
 517 836 533 851 550 851 c 0
 578 851 600 814 600 767 c 0
 600 720 578 684 550 684 c 0
 533 684 517 698 508 720 c 1
 499 698 484 684 467 684 c 0
 449 684 434 699 425 722 c 1
 416 699 401 684 383 684 c 0
 366 684 351 698 342 720 c 1
 333 698 317 684 300 684 c 0
 283 684 267 698 258 720 c 1
 249 698 234 684 217 684 c 1
 199 684 184 699 175 722 c 1
 166 699 151 684 133 684 c 0
 116 684 101 698 92 720 c 1
 83 698 67 684 50 684 c 1xbf
300 328 m 0
 272 328 250 364 250 411 c 0
 250 458 272 495 300 495 c 0
 328 495 350 458 350 411 c 0
 350 364 328 328 300 328 c 0
300 505 m 0
 272 505 250 542 250 589 c 0
 250 636 272 672 300 672 c 0
 328 672 350 636 350 589 c 0
 350 542 328 505 300 505 c 0
383 149 m 0
 355 149 333 186 333 233 c 0
 333 280 355 316 383 316 c 0
 401 316 416 301 425 278 c 1
 434 301 449 316 467 316 c 0
 495 316 517 280 517 233 c 0
 517 186 495 149 467 149 c 0
 449 149 434 165 425 188 c 1
 416 165 401 149 383 149 c 0
550 328 m 0
 522 328 500 364 500 411 c 0
 500 458 522 495 550 495 c 0
 578 495 600 458 600 411 c 0
 600 364 578 328 550 328 c 0
550 505 m 0
 522 505 500 542 500 589 c 0
 500 636 522 672 550 672 c 0
 578 672 600 636 600 589 c 0
 600 542 578 505 550 505 c 0
EndSplineSet
EndChar

StartChar: T
Encoding: 84 84 13
Width: 800
VWidth: -334
UnlinkRmOvrlpSave: 1
Flags: HW
HStem: -1 35G<286 314> -1 35G<286 314> 834 167<98 182 205 266 334 395 418 502>
VStem: 90 100<848 987> 197 100<857 987> 250 100<13 152 153 290 293 429 431 569 571 707 710 840> 303 100<857 987> 410 100<848 987>
LayerCount: 2
Fore
SplineSet
50 416 m 0xb5
 22 416 0 453 0 500 c 0
 0 547 22 584 50 584 c 0
 67 584 83 569 92 547 c 1
 101 569 116 584 133 584 c 1
 151 584 166 568 175 545 c 1
 184 568 199 584 217 584 c 0
 234 584 249 569 258 547 c 1
 267 569 283 584 300 584 c 1
 317 584 333 569 342 547 c 1
 351 569 366 584 383 584 c 0
 401 584 416 568 425 545 c 1
 434 568 449 584 467 584 c 0xb5
 482 584 495 574 504 557 c 1
 502 567 500 577 500 589 c 0
 500 636 522 672 550 672 c 0
 578 672 600 636 600 589 c 0
 600 542 578 505 550 505 c 0
 535 505 522 515 513 532 c 1
 515 522 517 512 517 500 c 0
 517 488 515 478 513 468 c 1
 522 485 535 495 550 495 c 1
 578 495 600 458 600 411 c 0
 600 364 578 328 550 328 c 0xbb
 522 328 500 364 500 411 c 0
 500 423 502 433 504 443 c 1
 495 426 482 416 467 416 c 1
 449 416 434 432 425 455 c 1
 416 432 401 416 383 416 c 0
 366 416 351 431 342 453 c 1
 333 431 317 416 300 416 c 0
 283 416 267 431 258 453 c 1
 249 431 234 416 217 416 c 0
 199 416 184 432 175 455 c 1
 166 432 151 416 133 416 c 1
 116 416 101 431 92 453 c 1
 83 431 67 416 50 416 c 0xb5
550 149 m 0
 522 149 500 186 500 233 c 0
 500 280 522 316 550 316 c 0
 578 316 600 280 600 233 c 0
 600 186 578 149 550 149 c 0
550 684 m 0
 522 684 500 720 500 767 c 0
 500 814 522 851 550 851 c 0
 578 851 600 814 600 767 c 0
 600 720 578 684 550 684 c 0
EndSplineSet
EndChar

StartChar: X
Encoding: 88 88 14
Width: 800
VWidth: -334
UnlinkRmOvrlpSave: 1
Flags: HW
HStem: -1 167<98 159 441 502> 138 167<174 218 382 426> 278 167<222 266 334 378> 416 167<281 319> 555 167<222 266 334 378> 695 167<174 218 382 426> 834 167<98 159 441 502>
VStem: 90 100<13 143 857 987> 143 100<160 289 711 840> 197 100<294 422 578 706> 250 100<439 561> 303 100<294 422 578 706> 357 100<160 289 711 840> 410 100<13 143 857 987>
LayerCount: 2
Fore
SplineSet
50 149 m 0x8004
 22 149 0 186 0 233 c 0x8004
 0 280 22 316 50 316 c 0
 65 316 78 307 87 290 c 1
 85 300 83 309 83 321 c 0x4004
 83 368 105 405 133 405 c 0
 150 405 165 392 174 370 c 1
 170 382 167 396 167 411 c 0x2008
 167 458 189 495 217 495 c 0
 232 495 245 485 254 468 c 1
 252 478 250 488 250 500 c 0x1010
 250 512 252 522 254 532 c 1
 245 515 232 505 217 505 c 0
 189 505 167 542 167 589 c 0x2050
 167 604 170 618 174 630 c 1
 165 608 150 595 133 595 c 0
 105 595 83 632 83 679 c 0x4080
 83 691 85 700 87 710 c 1
 78 693 65 684 50 684 c 0
 22 684 0 720 0 767 c 0
 0 814 22 851 50 851 c 0x81
 78 851 100 814 100 767 c 0
 100 755 98 745 96 735 c 1
 105 752 118 762 133 762 c 0x8080
 161 762 183 726 183 679 c 0
 183 664 180 649 176 637 c 1
 185 659 200 672 217 672 c 0x4040
 245 672 267 636 267 589 c 0
 267 577 265 567 263 557 c 1
 272 574 285 584 300 584 c 0x2020
 315 584 328 574 337 557 c 1
 335 567 333 577 333 589 c 0
 333 636 355 672 383 672 c 0x2840
 400 672 415 659 424 637 c 1
 420 649 417 664 417 679 c 0
 417 726 439 762 467 762 c 0x0480
 482 762 495 752 504 735 c 1
 502 745 500 755 500 767 c 0
 500 814 522 851 550 851 c 0
 578 851 600 814 600 767 c 0x03
 600 720 578 684 550 684 c 0
 535 684 522 693 513 710 c 1
 515 700 517 691 517 679 c 0x05
 517 632 495 595 467 595 c 0
 450 595 435 608 426 630 c 1
 430 618 433 604 433 589 c 0x0880
 433 542 411 505 383 505 c 0
 368 505 355 515 346 532 c 1
 348 522 350 512 350 500 c 0x1040
 350 488 348 478 346 468 c 1
 355 485 368 495 383 495 c 1
 411 495 433 458 433 411 c 0x0850
 433 396 430 382 426 370 c 1
 435 392 450 405 467 405 c 1
 495 405 517 368 517 321 c 0x0408
 517 309 515 300 513 290 c 1
 522 307 535 316 550 316 c 1
 578 316 600 280 600 233 c 0
 600 186 578 149 550 149 c 0x0204
 522 149 500 186 500 233 c 0
 500 245 502 255 504 265 c 1
 495 248 482 238 467 238 c 1x0208
 439 238 417 274 417 321 c 0
 417 336 420 351 424 363 c 1
 415 341 400 328 383 328 c 1x0410
 355 328 333 364 333 411 c 0
 333 423 335 433 337 443 c 1
 328 426 315 416 300 416 c 1x0820
 285 416 272 426 263 443 c 1
 265 433 267 423 267 411 c 0
 267 364 245 328 217 328 c 0x2810
 200 328 185 341 176 363 c 1
 180 351 183 336 183 321 c 0
 183 274 161 238 133 238 c 0x4008
 118 238 105 248 96 265 c 1
 98 255 100 245 100 233 c 0
 100 186 78 149 50 149 c 0x8004
EndSplineSet
EndChar

StartChar: backslash
Encoding: 92 92 15
Width: 800
VWidth: -334
UnlinkRmOvrlpSave: 1
Flags: HW
HStem: -1 167<441 502> 138 167<382 426> 278 167<334 378> 555 167<222 266> 695 167<174 218> 834 167<98 159>
VStem: 90 100<857 987> 143 100<711 840> 197 100<578 706> 250 100<439 561> 303 100<294 422> 357 100<160 289> 410 100<13 143>
LayerCount: 2
Fore
SplineSet
50 149 m 0x8008
 22 149 0 186 0 233 c 0
 0 280 22 316 50 316 c 0x8008
 65 316 78 307 87 290 c 1
 85 300 83 309 83 321 c 0
 83 368 105 405 133 405 c 0x4010
 150 405 165 392 174 370 c 1
 170 382 167 396 167 411 c 0
 167 458 189 495 217 495 c 0x2020
 232 495 245 485 254 468 c 1
 252 478 250 488 250 500 c 0
 250 547 272 584 300 584 c 0x2040
 315 584 328 574 337 557 c 1
 335 567 333 577 333 589 c 0
 333 636 355 672 383 672 c 0x3080
 400 672 415 659 424 637 c 1
 420 649 417 664 417 679 c 0
 417 726 439 762 467 762 c 0x09
 482 762 495 752 504 735 c 1
 502 745 500 755 500 767 c 0
 500 814 522 851 550 851 c 0
 578 851 600 814 600 767 c 0
 600 720 578 684 550 684 c 0x06
 535 684 522 693 513 710 c 1
 515 700 517 691 517 679 c 0
 517 632 495 595 467 595 c 0x09
 450 595 435 608 426 630 c 1
 430 618 433 604 433 589 c 0
 433 542 411 505 383 505 c 0x1080
 368 505 355 515 346 532 c 1
 348 522 350 512 350 500 c 0
 350 453 328 416 300 416 c 0x1040
 285 416 272 426 263 443 c 1
 265 433 267 423 267 411 c 0
 267 364 245 328 217 328 c 0x3020
 200 328 185 341 176 363 c 1
 180 351 183 336 183 321 c 0
 183 274 161 238 133 238 c 0x4010
 118 238 105 248 96 265 c 1
 98 255 100 245 100 233 c 0
 100 186 78 149 50 149 c 0x8008
EndSplineSet
EndChar

StartChar: grave
Encoding: 96 96 16
Width: 800
VWidth: -334
UnlinkRmOvrlpSave: 1
Flags: HW
HStem: -1 167<174 235 258 342 365 449> 278 167<365 426> 555 167<334 395> 834 167<174 235 258 342 365 426>
VStem: 90 100<160 290 293 429 431 569 571 707 710 840> 143 100<13 143 857 987> 250 100<13 152 292 429 431 561 848 987> 303 100<578 708> 357 100<13 152 292 422 857 987> 410 100<439 569 571 707 710 840>
LayerCount: 2
Fore
SplineSet
50 238 m 0xf080
 22 238 0 274 0 321 c 0
 0 368 22 405 50 405 c 0
 78 405 100 368 100 321 c 0
 100 274 78 238 50 238 c 0xf080
50 416 m 0xf2
 22 416 0 453 0 500 c 0
 0 547 22 584 50 584 c 0
 78 584 100 547 100 500 c 0
 100 453 78 416 50 416 c 0xf2
50 595 m 0xf4
 22 595 0 632 0 679 c 0
 0 726 22 762 50 762 c 0xf4
 65 762 78 752 87 735 c 1
 85 745 83 755 83 767 c 0
 83 814 105 851 133 851 c 0
 151 851 166 835 175 812 c 1
 184 835 199 851 217 851 c 0
 234 851 249 836 258 814 c 1
 267 836 283 851 300 851 c 1
 317 851 333 836 342 814 c 1
 351 836 366 851 383 851 c 0
 401 851 416 835 425 812 c 1
 434 835 449 851 467 851 c 0xf8
 495 851 517 814 517 767 c 0
 517 755 515 745 513 735 c 1
 522 752 535 762 550 762 c 0
 578 762 600 726 600 679 c 0
 600 632 578 595 550 595 c 0xf4
 522 595 500 632 500 679 c 0
 500 691 502 700 504 710 c 1
 495 693 482 684 467 684 c 0
 449 684 434 699 425 722 c 1
 416 699 401 684 383 684 c 0
 366 684 351 698 342 720 c 1
 333 698 317 684 300 684 c 0
 283 684 267 698 258 720 c 1
 249 698 234 684 217 684 c 1
 199 684 184 699 175 722 c 1
 166 699 151 684 133 684 c 0xf8
 118 684 105 693 96 710 c 1
 98 700 100 691 100 679 c 0
 100 632 78 595 50 595 c 0xf4
217 238 m 1xf080
 189 238 167 274 167 321 c 0
 167 368 189 405 217 405 c 0xf080
 245 405 267 368 267 321 c 0
 267 309 265 300 263 290 c 1
 272 307 285 316 300 316 c 1
 317 316 333 302 342 280 c 1
 351 302 366 316 383 316 c 0
 401 316 416 301 425 278 c 1
 434 301 449 316 467 316 c 0xf040
 482 316 495 307 504 290 c 1
 502 300 500 309 500 321 c 0
 500 368 522 405 550 405 c 0
 578 405 600 368 600 321 c 0
 600 274 578 238 550 238 c 0xf080
 535 238 522 248 513 265 c 1
 515 255 517 245 517 233 c 0
 517 186 495 149 467 149 c 0
 449 149 434 165 425 188 c 1
 416 165 401 149 383 149 c 0
 366 149 351 164 342 186 c 1
 333 164 317 149 300 149 c 0xf040
 272 149 250 186 250 233 c 0
 250 245 252 255 254 265 c 1
 245 248 232 238 217 238 c 1xf080
217 416 m 0xf2
 189 416 167 453 167 500 c 0
 167 547 189 584 217 584 c 0
 234 584 249 569 258 547 c 1
 267 569 283 584 300 584 c 1xf2
 328 584 350 547 350 500 c 0
 350 488 348 478 346 468 c 1
 355 485 368 495 383 495 c 1
 411 495 433 458 433 411 c 0
 433 364 411 328 383 328 c 0xf1
 355 328 333 364 333 411 c 0
 333 423 335 433 337 443 c 1
 328 426 315 416 300 416 c 1
 283 416 267 431 258 453 c 1
 249 431 234 416 217 416 c 0xf2
550 416 m 0
 522 416 500 453 500 500 c 0
 500 547 522 584 550 584 c 0
 578 584 600 547 600 500 c 0
 600 453 578 416 550 416 c 0
EndSplineSet
EndChar

StartChar: d
Encoding: 100 100 17
Width: 800
VWidth: -334
UnlinkRmOvrlpSave: 1
Flags: HW
HStem: -1 167<98 159 226 289 311 395> 834 167<98 159 226 289 311 395>
VStem: 90 100<13 143 857 987> 143 100<160 290 293 429 431 569 571 707 710 840> 197 100<13 145 855 987> 303 100<13 152 848 987> 410 100<152 290 293 429 431 569 571 707 710 848>
LayerCount: 2
Fore
SplineSet
50 328 m 0xc6
 22 328 0 364 0 411 c 0
 0 458 22 495 50 495 c 0
 78 495 100 458 100 411 c 0
 100 364 78 328 50 328 c 0xc6
50 505 m 0xce
 22 505 0 542 0 589 c 0
 0 636 22 672 50 672 c 0
 65 672 79 661 88 644 c 1
 85 654 83 666 83 679 c 0
 83 691 85 700 87 710 c 1
 78 693 65 684 50 684 c 0
 22 684 0 720 0 767 c 0
 0 814 22 851 50 851 c 0xee
 78 851 100 814 100 767 c 0
 100 755 98 745 96 735 c 1
 105 752 118 762 133 762 c 0
 151 762 166 747 175 724 c 1
 184 747 199 762 217 762 c 0
 234 762 249 747 258 725 c 1
 267 747 283 762 300 762 c 1
 317 762 333 747 342 725 c 1
 351 747 366 762 383 762 c 0
 401 762 416 747 425 724 c 1
 434 747 449 762 467 762 c 0xd6
 482 762 495 752 504 735 c 1
 502 745 500 755 500 767 c 0
 500 814 522 851 550 851 c 0
 578 851 600 814 600 767 c 0
 600 720 578 684 550 684 c 0
 535 684 522 693 513 710 c 1
 515 700 517 691 517 679 c 0
 517 666 515 654 512 644 c 1
 521 661 535 672 550 672 c 1
 578 672 600 636 600 589 c 0
 600 542 578 505 550 505 c 0xee
 522 505 500 542 500 589 c 0
 500 602 502 614 505 624 c 1
 496 607 482 595 467 595 c 1
 449 595 434 611 425 634 c 1
 416 611 401 595 383 595 c 0
 366 595 351 610 342 632 c 1
 333 610 317 595 300 595 c 0
 283 595 267 610 258 632 c 1
 249 610 234 595 217 595 c 1
 199 595 184 611 175 634 c 1
 166 611 151 595 133 595 c 0xd6
 118 595 104 607 95 624 c 1
 98 614 100 602 100 589 c 0
 100 542 78 505 50 505 c 0xce
133 149 m 1
 105 149 83 186 83 233 c 0
 83 280 105 316 133 316 c 0
 151 316 166 301 175 278 c 1
 184 301 199 316 217 316 c 1
 234 316 249 302 258 280 c 1
 267 302 283 316 300 316 c 0
 317 316 333 302 342 280 c 1
 351 302 366 316 383 316 c 0
 401 316 416 301 425 278 c 1
 434 301 449 316 467 316 c 0
 495 316 517 280 517 233 c 0
 517 186 495 149 467 149 c 0
 449 149 434 165 425 188 c 1
 416 165 401 149 383 149 c 0
 366 149 351 164 342 186 c 1
 333 164 317 149 300 149 c 0
 283 149 267 164 258 186 c 1
 249 164 234 149 217 149 c 0
 199 149 184 165 175 188 c 1
 166 165 151 149 133 149 c 1
550 328 m 0
 522 328 500 364 500 411 c 0
 500 458 522 495 550 495 c 0
 578 495 600 458 600 411 c 0
 600 364 578 328 550 328 c 0
EndSplineSet
EndChar

StartChar: h
Encoding: 104 104 18
Width: 800
VWidth: -334
UnlinkRmOvrlpSave: 1
Flags: HW
HStem: -1 35G<126 154 446 474> -1 35G<126 154 446 474> 416 167<205 289 311 395> 968 33G<126 154 446 474>
VStem: 90 100<13 152 153 290 293 429 431 569 571 707 710 847 848 987> 197 100<431 569> 303 100<431 569> 410 100<13 152 153 290 293 429 431 569 571 707 710 847 848 987>
LayerCount: 2
Fore
SplineSet
50 149 m 0xbf
 22 149 0 186 0 233 c 0
 0 280 22 316 50 316 c 0
 67 316 83 302 92 280 c 1
 101 302 116 316 133 316 c 0
 151 316 166 301 175 278 c 1
 184 301 199 316 217 316 c 1
 234 316 249 302 258 280 c 1
 267 302 283 316 300 316 c 0
 317 316 333 302 342 280 c 1
 351 302 366 316 383 316 c 0
 401 316 416 301 425 278 c 1
 434 301 449 316 467 316 c 0
 484 316 499 302 508 280 c 1
 517 302 533 316 550 316 c 0
 578 316 600 280 600 233 c 0
 600 186 578 149 550 149 c 0
 533 149 517 164 508 186 c 1
 499 164 484 149 467 149 c 0
 449 149 434 165 425 188 c 1
 416 165 401 149 383 149 c 0
 366 149 351 164 342 186 c 1
 333 164 317 149 300 149 c 0
 283 149 267 164 258 186 c 1
 249 164 234 149 217 149 c 0
 199 149 184 165 175 188 c 1
 166 165 151 149 133 149 c 1
 116 149 101 164 92 186 c 1
 83 164 67 149 50 149 c 0xbf
50 684 m 1
 22 684 0 720 0 767 c 0
 0 814 22 851 50 851 c 0
 67 851 83 836 92 814 c 1
 101 836 116 851 133 851 c 1
 151 851 166 835 175 812 c 1
 184 835 199 851 217 851 c 0
 234 851 249 836 258 814 c 1
 267 836 283 851 300 851 c 1
 317 851 333 836 342 814 c 1
 351 836 366 851 383 851 c 0
 401 851 416 835 425 812 c 1
 434 835 449 851 467 851 c 0
 484 851 499 836 508 814 c 1
 517 836 533 851 550 851 c 0
 578 851 600 814 600 767 c 0
 600 720 578 684 550 684 c 0
 533 684 517 698 508 720 c 1
 499 698 484 684 467 684 c 0
 449 684 434 699 425 722 c 1
 416 699 401 684 383 684 c 0
 366 684 351 698 342 720 c 1
 333 698 317 684 300 684 c 0
 283 684 267 698 258 720 c 1
 249 698 234 684 217 684 c 1
 199 684 184 699 175 722 c 1
 166 699 151 684 133 684 c 0
 116 684 101 698 92 720 c 1
 83 698 67 684 50 684 c 1
300 328 m 0
 272 328 250 364 250 411 c 0
 250 458 272 495 300 495 c 0
 328 495 350 458 350 411 c 0
 350 364 328 328 300 328 c 0
300 505 m 0
 272 505 250 542 250 589 c 0
 250 636 272 672 300 672 c 0
 328 672 350 636 350 589 c 0
 350 542 328 505 300 505 c 0
EndSplineSet
EndChar

StartChar: l
Encoding: 108 108 19
Width: 800
VWidth: -334
UnlinkRmOvrlpSave: 1
Flags: HW
HStem: -1 167<205 289 311 395 418 502> 968 33G<126 154>
VStem: 90 100<13 152 153 290 293 429 431 569 571 707 710 847 848 987> 197 100<13 152> 303 100<13 152> 410 100<13 152>
LayerCount: 2
Fore
SplineSet
50 149 m 0
 22 149 0 186 0 233 c 0
 0 280 22 316 50 316 c 0
 78 316 100 280 100 233 c 0
 100 186 78 149 50 149 c 0
50 328 m 0
 22 328 0 364 0 411 c 0
 0 458 22 495 50 495 c 0
 78 495 100 458 100 411 c 0
 100 364 78 328 50 328 c 0
50 505 m 0
 22 505 0 542 0 589 c 0
 0 636 22 672 50 672 c 0
 78 672 100 636 100 589 c 0
 100 542 78 505 50 505 c 0
50 684 m 1
 22 684 0 720 0 767 c 0
 0 814 22 851 50 851 c 0
 67 851 83 836 92 814 c 1
 101 836 116 851 133 851 c 1
 151 851 166 835 175 812 c 1
 184 835 199 851 217 851 c 0
 234 851 249 836 258 814 c 1
 267 836 283 851 300 851 c 1
 317 851 333 836 342 814 c 1
 351 836 366 851 383 851 c 0
 401 851 416 835 425 812 c 1
 434 835 449 851 467 851 c 0
 484 851 499 836 508 814 c 1
 517 836 533 851 550 851 c 0
 578 851 600 814 600 767 c 0
 600 720 578 684 550 684 c 0
 533 684 517 698 508 720 c 1
 499 698 484 684 467 684 c 0
 449 684 434 699 425 722 c 1
 416 699 401 684 383 684 c 0
 366 684 351 698 342 720 c 1
 333 698 317 684 300 684 c 0
 283 684 267 698 258 720 c 1
 249 698 234 684 217 684 c 1
 199 684 184 699 175 722 c 1
 166 699 151 684 133 684 c 0
 116 684 101 698 92 720 c 1
 83 698 67 684 50 684 c 1
EndSplineSet
EndChar

StartChar: p
Encoding: 112 112 20
Width: 800
VWidth: -334
UnlinkRmOvrlpSave: 1
Flags: HW
HStem: -1 35G<126 154> -1 35G<126 154> 416 167<205 289 311 395> 834 167<205 289 311 395>
VStem: 90 100<13 152 153 290 293 429 431 569 571 707 710 847 848 987> 197 100<431 569 848 987> 303 100<431 569 848 987> 410 100<569 707 710 848>
LayerCount: 2
Fore
SplineSet
50 684 m 1xbf
 22 684 0 720 0 767 c 0
 0 814 22 851 50 851 c 0
 67 851 83 836 92 814 c 1
 101 836 116 851 133 851 c 1
 151 851 166 835 175 812 c 1
 184 835 199 851 217 851 c 0
 234 851 249 836 258 814 c 1
 267 836 283 851 300 851 c 1
 317 851 333 836 342 814 c 1
 351 836 366 851 383 851 c 0
 401 851 416 835 425 812 c 1
 434 835 449 851 467 851 c 0
 484 851 499 836 508 814 c 1
 517 836 533 851 550 851 c 0
 578 851 600 814 600 767 c 0
 600 720 578 684 550 684 c 0
 533 684 517 698 508 720 c 1
 499 698 484 684 467 684 c 0
 449 684 434 699 425 722 c 1
 416 699 401 684 383 684 c 0
 366 684 351 698 342 720 c 1
 333 698 317 684 300 684 c 0
 283 684 267 698 258 720 c 1
 249 698 234 684 217 684 c 1
 199 684 184 699 175 722 c 1
 166 699 151 684 133 684 c 0
 116 684 101 698 92 720 c 1
 83 698 67 684 50 684 c 1xbf
300 328 m 0
 272 328 250 364 250 411 c 0
 250 458 272 495 300 495 c 0
 328 495 350 458 350 411 c 0
 350 364 328 328 300 328 c 0
300 505 m 0
 272 505 250 542 250 589 c 0
 250 636 272 672 300 672 c 0
 328 672 350 636 350 589 c 0
 350 542 328 505 300 505 c 0
383 149 m 0
 355 149 333 186 333 233 c 0
 333 280 355 316 383 316 c 0
 401 316 416 301 425 278 c 1
 434 301 449 316 467 316 c 0
 495 316 517 280 517 233 c 0
 517 186 495 149 467 149 c 0
 449 149 434 165 425 188 c 1
 416 165 401 149 383 149 c 0
550 328 m 0
 522 328 500 364 500 411 c 0
 500 458 522 495 550 495 c 0
 578 495 600 458 600 411 c 0
 600 364 578 328 550 328 c 0
550 505 m 0
 522 505 500 542 500 589 c 0
 500 636 522 672 550 672 c 0
 578 672 600 636 600 589 c 0
 600 542 578 505 550 505 c 0
EndSplineSet
EndChar

StartChar: t
Encoding: 116 116 21
Width: 800
VWidth: -334
UnlinkRmOvrlpSave: 1
Flags: HW
HStem: -1 35G<286 314> -1 35G<286 314> 834 167<98 182 205 266 334 395 418 502>
VStem: 90 100<848 987> 197 100<857 987> 250 100<13 152 153 290 293 429 431 569 571 707 710 840> 303 100<857 987> 410 100<848 987>
LayerCount: 2
Fore
SplineSet
50 416 m 0xb5
 22 416 0 453 0 500 c 0
 0 547 22 584 50 584 c 0
 67 584 83 569 92 547 c 1
 101 569 116 584 133 584 c 1
 151 584 166 568 175 545 c 1
 184 568 199 584 217 584 c 0
 234 584 249 569 258 547 c 1
 267 569 283 584 300 584 c 1
 317 584 333 569 342 547 c 1
 351 569 366 584 383 584 c 0
 401 584 416 568 425 545 c 1
 434 568 449 584 467 584 c 0xb5
 482 584 495 574 504 557 c 1
 502 567 500 577 500 589 c 0
 500 636 522 672 550 672 c 0
 578 672 600 636 600 589 c 0
 600 542 578 505 550 505 c 0
 535 505 522 515 513 532 c 1
 515 522 517 512 517 500 c 0
 517 488 515 478 513 468 c 1
 522 485 535 495 550 495 c 1
 578 495 600 458 600 411 c 0
 600 364 578 328 550 328 c 0xbb
 522 328 500 364 500 411 c 0
 500 423 502 433 504 443 c 1
 495 426 482 416 467 416 c 1
 449 416 434 432 425 455 c 1
 416 432 401 416 383 416 c 0
 366 416 351 431 342 453 c 1
 333 431 317 416 300 416 c 0
 283 416 267 431 258 453 c 1
 249 431 234 416 217 416 c 0
 199 416 184 432 175 455 c 1
 166 432 151 416 133 416 c 1
 116 416 101 431 92 453 c 1
 83 431 67 416 50 416 c 0xb5
550 149 m 0
 522 149 500 186 500 233 c 0
 500 280 522 316 550 316 c 0
 578 316 600 280 600 233 c 0
 600 186 578 149 550 149 c 0
550 684 m 0
 522 684 500 720 500 767 c 0
 500 814 522 851 550 851 c 0
 578 851 600 814 600 767 c 0
 600 720 578 684 550 684 c 0
EndSplineSet
EndChar

StartChar: x
Encoding: 120 120 22
Width: 800
VWidth: -334
UnlinkRmOvrlpSave: 1
Flags: HW
HStem: -1 167<98 159 441 502> 138 167<174 218 382 426> 278 167<222 266 334 378> 416 167<281 319> 555 167<222 266 334 378> 695 167<174 218 382 426> 834 167<98 159 441 502>
VStem: 90 100<13 143 857 987> 143 100<160 289 711 840> 197 100<294 422 578 706> 250 100<439 561> 303 100<294 422 578 706> 357 100<160 289 711 840> 410 100<13 143 857 987>
LayerCount: 2
Fore
SplineSet
50 149 m 0x8004
 22 149 0 186 0 233 c 0x8004
 0 280 22 316 50 316 c 0
 65 316 78 307 87 290 c 1
 85 300 83 309 83 321 c 0x4004
 83 368 105 405 133 405 c 0
 150 405 165 392 174 370 c 1
 170 382 167 396 167 411 c 0x2008
 167 458 189 495 217 495 c 0
 232 495 245 485 254 468 c 1
 252 478 250 488 250 500 c 0x1010
 250 512 252 522 254 532 c 1
 245 515 232 505 217 505 c 0
 189 505 167 542 167 589 c 0x2050
 167 604 170 618 174 630 c 1
 165 608 150 595 133 595 c 0
 105 595 83 632 83 679 c 0x4080
 83 691 85 700 87 710 c 1
 78 693 65 684 50 684 c 0
 22 684 0 720 0 767 c 0
 0 814 22 851 50 851 c 0x81
 78 851 100 814 100 767 c 0
 100 755 98 745 96 735 c 1
 105 752 118 762 133 762 c 0x8080
 161 762 183 726 183 679 c 0
 183 664 180 649 176 637 c 1
 185 659 200 672 217 672 c 0x4040
 245 672 267 636 267 589 c 0
 267 577 265 567 263 557 c 1
 272 574 285 584 300 584 c 0x2020
 315 584 328 574 337 557 c 1
 335 567 333 577 333 589 c 0
 333 636 355 672 383 672 c 0x2840
 400 672 415 659 424 637 c 1
 420 649 417 664 417 679 c 0
 417 726 439 762 467 762 c 0x0480
 482 762 495 752 504 735 c 1
 502 745 500 755 500 767 c 0
 500 814 522 851 550 851 c 0
 578 851 600 814 600 767 c 0x03
 600 720 578 684 550 684 c 0
 535 684 522 693 513 710 c 1
 515 700 517 691 517 679 c 0x05
 517 632 495 595 467 595 c 0
 450 595 435 608 426 630 c 1
 430 618 433 604 433 589 c 0x0880
 433 542 411 505 383 505 c 0
 368 505 355 515 346 532 c 1
 348 522 350 512 350 500 c 0x1040
 350 488 348 478 346 468 c 1
 355 485 368 495 383 495 c 1
 411 495 433 458 433 411 c 0x0850
 433 396 430 382 426 370 c 1
 435 392 450 405 467 405 c 1
 495 405 517 368 517 321 c 0x0408
 517 309 515 300 513 290 c 1
 522 307 535 316 550 316 c 1
 578 316 600 280 600 233 c 0
 600 186 578 149 550 149 c 0x0204
 522 149 500 186 500 233 c 0
 500 245 502 255 504 265 c 1
 495 248 482 238 467 238 c 1x0208
 439 238 417 274 417 321 c 0
 417 336 420 351 424 363 c 1
 415 341 400 328 383 328 c 1x0410
 355 328 333 364 333 411 c 0
 333 423 335 433 337 443 c 1
 328 426 315 416 300 416 c 1x0820
 285 416 272 426 263 443 c 1
 265 433 267 423 267 411 c 0
 267 364 245 328 217 328 c 0x2810
 200 328 185 341 176 363 c 1
 180 351 183 336 183 321 c 0
 183 274 161 238 133 238 c 0x4008
 118 238 105 248 96 265 c 1
 98 255 100 245 100 233 c 0
 100 186 78 149 50 149 c 0x8004
EndSplineSet
EndChar

StartChar: bar
Encoding: 124 124 23
Width: 800
VWidth: -334
UnlinkRmOvrlpSave: 1
Flags: HW
HStem: -1 167<441 502> 138 167<382 426> 278 167<334 378> 555 167<222 266> 695 167<174 218> 834 167<98 159>
VStem: 90 100<857 987> 143 100<711 840> 197 100<578 706> 250 100<439 561> 303 100<294 422> 357 100<160 289> 410 100<13 143>
LayerCount: 2
Fore
SplineSet
50 149 m 0x8008
 22 149 0 186 0 233 c 0
 0 280 22 316 50 316 c 0x8008
 65 316 78 307 87 290 c 1
 85 300 83 309 83 321 c 0
 83 368 105 405 133 405 c 0x4010
 150 405 165 392 174 370 c 1
 170 382 167 396 167 411 c 0
 167 458 189 495 217 495 c 0x2020
 232 495 245 485 254 468 c 1
 252 478 250 488 250 500 c 0
 250 547 272 584 300 584 c 0x2040
 315 584 328 574 337 557 c 1
 335 567 333 577 333 589 c 0
 333 636 355 672 383 672 c 0x3080
 400 672 415 659 424 637 c 1
 420 649 417 664 417 679 c 0
 417 726 439 762 467 762 c 0x09
 482 762 495 752 504 735 c 1
 502 745 500 755 500 767 c 0
 500 814 522 851 550 851 c 0
 578 851 600 814 600 767 c 0
 600 720 578 684 550 684 c 0x06
 535 684 522 693 513 710 c 1
 515 700 517 691 517 679 c 0
 517 632 495 595 467 595 c 0x09
 450 595 435 608 426 630 c 1
 430 618 433 604 433 589 c 0
 433 542 411 505 383 505 c 0x1080
 368 505 355 515 346 532 c 1
 348 522 350 512 350 500 c 0
 350 453 328 416 300 416 c 0x1040
 285 416 272 426 263 443 c 1
 265 433 267 423 267 411 c 0
 267 364 245 328 217 328 c 0x3020
 200 328 185 341 176 363 c 1
 180 351 183 336 183 321 c 0
 183 274 161 238 133 238 c 0x4010
 118 238 105 248 96 265 c 1
 98 255 100 245 100 233 c 0
 100 186 78 149 50 149 c 0x8008
EndSplineSet
EndChar

StartChar: three
Encoding: 51 51 28
Width: 800
VWidth: -334
UnlinkRmOvrlpSave: 1
Flags: HW
HStem: -1 167<174 235 258 342 365 426> 138 167<98 159> 416 167<258 319 386 426> 555 167<334 374> 695 167<386 426> 834 167<98 182 205 289 311 374 441 502>
VStem: 90 100<160 291 848 987> 143 100<13 143> 197 100<848 987> 250 100<13 152 431 561> 303 100<578 706 855 987> 357 100<13 143 439 563 711 840> 410 100<160 290 293 422 857 987>
LayerCount: 2
Fore
SplineSet
50 238 m 1x6810
 22 238 0 274 0 321 c 0
 0 368 22 405 50 405 c 0x8010
 78 405 100 368 100 321 c 0
 100 309 98 300 96 290 c 1
 105 307 118 316 133 316 c 1
 151 316 166 301 175 278 c 1
 184 301 199 316 217 316 c 1
 232 316 245 307 254 290 c 1
 252 300 250 309 250 321 c 0xa008
 250 368 272 405 300 405 c 0
 315 405 329 393 338 376 c 1
 335 386 333 398 333 411 c 0x1010
 333 423 335 433 337 443 c 1
 328 426 315 416 300 416 c 1
 272 416 250 453 250 500 c 0
 250 547 272 584 300 584 c 0x2050
 328 584 350 547 350 500 c 0
 350 488 348 478 346 468 c 1
 355 485 368 495 383 495 c 1x2020
 411 495 433 458 433 411 c 0
 433 396 430 382 426 370 c 1
 435 392 450 405 467 405 c 1x1010
 482 405 496 393 505 376 c 1
 502 386 500 398 500 411 c 0
 500 458 522 495 550 495 c 0
 578 495 600 458 600 411 c 0x1420
 600 364 578 328 550 328 c 0
 535 328 521 339 512 356 c 1
 515 346 517 334 517 321 c 0x0820
 517 309 515 300 513 290 c 1
 522 307 535 316 550 316 c 1
 578 316 600 280 600 233 c 0
 600 186 578 149 550 149 c 0x0428
 522 149 500 186 500 233 c 0
 500 245 502 255 504 265 c 1
 495 248 482 238 467 238 c 1x0410
 439 238 417 274 417 321 c 0
 417 336 420 351 424 363 c 1
 415 341 400 328 383 328 c 1x0820
 368 328 354 339 345 356 c 1
 348 346 350 334 350 321 c 0
 350 274 328 238 300 238 c 0x2810
 285 238 272 248 263 265 c 1
 265 255 267 245 267 233 c 0
 267 186 245 149 217 149 c 0
 199 149 184 165 175 188 c 1
 166 165 151 149 133 149 c 1x2808
 105 149 83 186 83 233 c 0
 83 245 85 255 87 265 c 1
 78 248 65 238 50 238 c 1x6810
50 416 m 0x8040
 22 416 0 453 0 500 c 0
 0 547 22 584 50 584 c 0
 78 584 100 547 100 500 c 0
 100 453 78 416 50 416 c 0x8040
50 595 m 0x81
 22 595 0 632 0 679 c 0
 0 726 22 762 50 762 c 0x81
 65 762 78 752 87 735 c 1
 85 745 83 755 83 767 c 0
 83 814 105 851 133 851 c 0
 161 851 183 814 183 767 c 0
 183 720 161 684 133 684 c 0x42
 118 684 105 693 96 710 c 1
 98 700 100 691 100 679 c 0
 100 632 78 595 50 595 c 0x81
550 505 m 0x0480
 522 505 500 542 500 589 c 0
 500 636 522 672 550 672 c 0
 578 672 600 636 600 589 c 0
 600 542 578 505 550 505 c 0x0480
550 684 m 0x06
 522 684 500 720 500 767 c 0
 500 814 522 851 550 851 c 0
 578 851 600 814 600 767 c 0
 600 720 578 684 550 684 c 0x06
EndSplineSet
EndChar

StartChar: seven
Encoding: 55 55 29
Width: 800
VWidth: -334
UnlinkRmOvrlpSave: 1
Flags: HW
HStem: -1 167<151 214> 138 167<226 269> 278 167<278 319> 416 167<334 374> 555 167<386 429> 834 167<98 182 205 289 311 395>
VStem: 90 100<848 987> 143 100<13 145> 197 100<158 286 848 987> 250 100<297 422> 303 100<439 563 848 987> 357 100<576 703> 410 100<714 847 848 987>
LayerCount: 2
Fore
SplineSet
50 595 m 1x45
 22 595 0 632 0 679 c 0
 0 726 22 762 50 762 c 0x85
 78 762 100 726 100 679 c 0
 100 666 98 654 95 644 c 1
 104 661 118 672 133 672 c 1x8480
 161 672 183 636 183 589 c 0
 183 576 181 564 178 552 c 1
 187 570 201 584 217 584 c 0x4440
 245 584 267 547 267 500 c 0
 267 488 265 478 263 468 c 1
 272 485 285 495 300 495 c 1x2420
 328 495 350 458 350 411 c 0
 350 398 348 386 345 376 c 1
 354 393 368 405 383 405 c 0x1410
 411 405 433 368 433 321 c 0
 433 308 431 297 428 285 c 1
 437 303 451 316 467 316 c 1
 484 316 499 302 508 280 c 1
 517 302 533 316 550 316 c 0
 578 316 600 280 600 233 c 0
 600 186 578 149 550 149 c 0
 533 149 517 164 508 186 c 1
 499 164 484 149 467 149 c 0x0c08
 439 149 417 186 417 233 c 0
 417 246 419 258 422 270 c 1
 413 252 399 238 383 238 c 1x0c10
 355 238 333 274 333 321 c 0
 333 334 335 346 338 356 c 1
 329 339 315 328 300 328 c 0x0c20
 272 328 250 364 250 411 c 0
 250 423 252 433 254 443 c 1
 245 426 232 416 217 416 c 1x1440
 189 416 167 453 167 500 c 0
 167 513 169 525 172 537 c 1
 163 519 149 505 133 505 c 0x2480
 105 505 83 542 83 589 c 0
 83 602 85 614 88 624 c 1
 79 607 65 595 50 595 c 1x45
550 328 m 0x0420
 522 328 500 364 500 411 c 0
 500 458 522 495 550 495 c 0
 578 495 600 458 600 411 c 0
 600 364 578 328 550 328 c 0x0420
550 505 m 0x0480
 522 505 500 542 500 589 c 0
 500 636 522 672 550 672 c 0
 578 672 600 636 600 589 c 0
 600 542 578 505 550 505 c 0x0480
550 684 m 0x06
 522 684 500 720 500 767 c 0
 500 814 522 851 550 851 c 0
 578 851 600 814 600 767 c 0
 600 720 578 684 550 684 c 0x06
EndSplineSet
EndChar

StartChar: semicolon
Encoding: 59 59 30
Width: 800
VWidth: -334
UnlinkRmOvrlpSave: 1
Flags: HW
HStem: -1 167<205 266> 138 167<281 322> 278 306<220 269 331 380> 695 167<205 266 334 395> 968 33G<286 314>
VStem: 197 100<13 143 297 429 431 569 709 840> 250 100<160 286 856 987> 303 100<297 429 431 569 709 840>
LayerCount: 2
Fore
SplineSet
50 505 m 0x5c
 22 505 0 542 0 589 c 0
 0 636 22 672 50 672 c 0x9c
 78 672 100 636 100 589 c 0
 100 577 98 567 96 557 c 1
 105 574 118 584 133 584 c 0x9a
 149 584 163 570 172 552 c 1
 169 564 167 576 167 589 c 0
 167 636 189 672 217 672 c 0
 234 672 249 657 258 635 c 1
 267 657 283 672 300 672 c 1
 328 672 350 636 350 589 c 0xbc
 350 542 328 505 300 505 c 0
 283 505 267 520 258 542 c 1
 249 520 234 505 217 505 c 1
 201 505 187 519 178 537 c 1
 181 525 183 513 183 500 c 0x5c
 183 487 181 475 178 463 c 1
 187 481 201 495 217 495 c 0
 234 495 249 480 258 458 c 1
 267 480 283 495 300 495 c 0
 328 495 350 458 350 411 c 0
 350 364 328 328 300 328 c 0
 283 328 267 343 258 365 c 1
 249 343 234 328 217 328 c 0x3d
 189 328 167 364 167 411 c 0
 167 424 169 436 172 448 c 1
 163 430 149 416 133 416 c 0x3a
 105 416 83 453 83 500 c 0
 83 512 85 522 87 532 c 1
 78 515 65 505 50 505 c 0x5c
467 328 m 0x19
 439 328 417 364 417 411 c 0
 417 458 439 495 467 495 c 0
 482 495 495 485 504 468 c 1
 502 478 500 488 500 500 c 0
 500 512 502 522 504 532 c 1
 495 515 482 505 467 505 c 0
 439 505 417 542 417 589 c 0
 417 636 439 672 467 672 c 0x1d
 495 672 517 636 517 589 c 0
 517 577 515 567 513 557 c 1
 522 574 535 584 550 584 c 0
 578 584 600 547 600 500 c 0
 600 453 578 416 550 416 c 0x1a
 535 416 522 426 513 443 c 1
 515 433 517 423 517 411 c 0
 517 364 495 328 467 328 c 0x19
EndSplineSet
EndChar

StartChar: question
Encoding: 63 63 31
Width: 800
VWidth: -334
UnlinkRmOvrlpSave: 1
Flags: HW
HStem: -1 167<258 342> 555 167<365 429> 695 167<98 159 441 502> 834 167<174 235 258 342 365 426>
VStem: 90 100<709 840> 143 100<857 987> 250 100<13 152 292 429 431 569 571 708 848 987> 357 100<569 703 857 987> 410 100<714 840>
LayerCount: 2
Fore
SplineSet
50 416 m 0x82
 22 416 0 453 0 500 c 0
 0 547 22 584 50 584 c 0
 78 584 100 547 100 500 c 0
 100 453 78 416 50 416 c 0x82
217 416 m 0
 189 416 167 453 167 500 c 0
 167 547 189 584 217 584 c 0
 234 584 249 569 258 547 c 1
 267 569 283 584 300 584 c 1
 317 584 333 569 342 547 c 1
 351 569 366 584 383 584 c 0
 411 584 433 547 433 500 c 0xc2
 433 453 411 416 383 416 c 0
 366 416 351 431 342 453 c 1
 333 431 317 416 300 416 c 0
 283 416 267 431 258 453 c 1
 249 431 234 416 217 416 c 0
383 238 m 1xa3
 355 238 333 274 333 321 c 0
 333 368 355 405 383 405 c 0xc3
 411 405 433 368 433 321 c 0
 433 308 431 297 428 285 c 1
 437 303 451 316 467 316 c 1xc280
 482 316 495 307 504 290 c 1
 502 300 500 309 500 321 c 0
 500 368 522 405 550 405 c 0
 578 405 600 368 600 321 c 0
 600 274 578 238 550 238 c 0xd3
 535 238 522 248 513 265 c 1
 515 255 517 245 517 233 c 0
 517 186 495 149 467 149 c 0xa280
 439 149 417 186 417 233 c 0
 417 246 419 258 422 270 c 1
 413 252 399 238 383 238 c 1xa3
467 684 m 0x9a
 439 684 417 720 417 767 c 0
 417 814 439 851 467 851 c 0
 495 851 517 814 517 767 c 0xaa
 517 755 515 745 513 735 c 1
 522 752 535 762 550 762 c 0
 578 762 600 726 600 679 c 0
 600 632 578 595 550 595 c 0x96
 522 595 500 632 500 679 c 0
 500 691 502 700 504 710 c 1
 495 693 482 684 467 684 c 0x9a
550 416 m 0
 522 416 500 453 500 500 c 0
 500 547 522 584 550 584 c 0
 578 584 600 547 600 500 c 0x92
 600 453 578 416 550 416 c 0
EndSplineSet
EndChar

StartChar: C
Encoding: 67 67 32
Width: 800
VWidth: -334
UnlinkRmOvrlpSave: 1
Flags: HW
HStem: -1 167<174 235 258 342 365 426> 138 167<441 502> 695 167<441 502> 834 167<174 235 258 342 365 426>
VStem: 90 100<160 290 293 429 431 569 571 707 710 840> 143 100<13 143 857 987> 250 100<13 152 848 987> 357 100<13 143 857 987> 410 100<160 291 709 840>
LayerCount: 2
Fore
SplineSet
50 238 m 1x43
 22 238 0 274 0 321 c 0
 0 368 22 405 50 405 c 0
 78 405 100 368 100 321 c 0x83
 100 309 98 300 96 290 c 1
 105 307 118 316 133 316 c 1
 161 316 183 280 183 233 c 0
 183 186 161 149 133 149 c 0x4280
 105 149 83 186 83 233 c 0
 83 245 85 255 87 265 c 1
 78 248 65 238 50 238 c 1x43
50 416 m 0
 22 416 0 453 0 500 c 0
 0 547 22 584 50 584 c 0
 78 584 100 547 100 500 c 0
 100 453 78 416 50 416 c 0
50 595 m 0x96
 22 595 0 632 0 679 c 0
 0 726 22 762 50 762 c 0x96
 65 762 78 752 87 735 c 1
 85 745 83 755 83 767 c 0
 83 814 105 851 133 851 c 0
 151 851 166 835 175 812 c 1
 184 835 199 851 217 851 c 0
 234 851 249 836 258 814 c 1
 267 836 283 851 300 851 c 1
 317 851 333 836 342 814 c 1
 351 836 366 851 383 851 c 0
 401 851 416 835 425 812 c 1
 434 835 449 851 467 851 c 0
 495 851 517 814 517 767 c 0x6a
 517 755 515 745 513 735 c 1
 522 752 535 762 550 762 c 0
 578 762 600 726 600 679 c 0
 600 632 578 595 550 595 c 0x16
 522 595 500 632 500 679 c 0
 500 691 502 700 504 710 c 1
 495 693 482 684 467 684 c 0
 449 684 434 699 425 722 c 1
 416 699 401 684 383 684 c 0
 366 684 351 698 342 720 c 1
 333 698 317 684 300 684 c 0
 283 684 267 698 258 720 c 1
 249 698 234 684 217 684 c 1
 199 684 184 699 175 722 c 1
 166 699 151 684 133 684 c 0x1a
 118 684 105 693 96 710 c 1
 98 700 100 691 100 679 c 0
 100 632 78 595 50 595 c 0x96
467 149 m 0x2280
 439 149 417 186 417 233 c 0
 417 280 439 316 467 316 c 0x2280
 482 316 495 307 504 290 c 1
 502 300 500 309 500 321 c 0
 500 368 522 405 550 405 c 0
 578 405 600 368 600 321 c 0
 600 274 578 238 550 238 c 0x13
 535 238 522 248 513 265 c 1
 515 255 517 245 517 233 c 0
 517 186 495 149 467 149 c 0x2280
550 416 m 0
 522 416 500 453 500 500 c 0
 500 547 522 584 550 584 c 0
 578 584 600 547 600 500 c 0x12
 600 453 578 416 550 416 c 0
EndSplineSet
EndChar

StartChar: G
Encoding: 71 71 33
Width: 800
VWidth: -334
UnlinkRmOvrlpSave: 1
Flags: HW
HStem: -1 167<174 235 258 342 365 426> 416 167<311 395> 695 167<441 502> 834 167<174 235 258 342 365 426>
VStem: 90 100<160 290 293 429 431 569 571 707 710 840> 143 100<13 143 857 987> 250 100<13 152 848 987> 303 100<431 569> 357 100<13 143 857 987> 410 100<160 290 293 429 431 569 709 840>
LayerCount: 2
Fore
SplineSet
50 238 m 1xc080
 22 238 0 274 0 321 c 0
 0 368 22 405 50 405 c 0xc080
 78 405 100 368 100 321 c 0
 100 309 98 300 96 290 c 1
 105 307 118 316 133 316 c 1
 151 316 166 301 175 278 c 1
 184 301 199 316 217 316 c 1
 234 316 249 302 258 280 c 1
 267 302 283 316 300 316 c 0
 328 316 350 280 350 233 c 0
 350 186 328 149 300 149 c 0
 283 149 267 164 258 186 c 1
 249 164 234 149 217 149 c 0
 199 149 184 165 175 188 c 1
 166 165 151 149 133 149 c 1xc040
 105 149 83 186 83 233 c 0
 83 245 85 255 87 265 c 1
 78 248 65 238 50 238 c 1xc080
50 416 m 0xc2
 22 416 0 453 0 500 c 0
 0 547 22 584 50 584 c 0
 78 584 100 547 100 500 c 0
 100 453 78 416 50 416 c 0xc2
50 595 m 0xd4
 22 595 0 632 0 679 c 0
 0 726 22 762 50 762 c 0xd4
 65 762 78 752 87 735 c 1
 85 745 83 755 83 767 c 0
 83 814 105 851 133 851 c 0
 151 851 166 835 175 812 c 1
 184 835 199 851 217 851 c 0
 234 851 249 836 258 814 c 1
 267 836 283 851 300 851 c 1
 317 851 333 836 342 814 c 1
 351 836 366 851 383 851 c 0
 401 851 416 835 425 812 c 1
 434 835 449 851 467 851 c 0
 495 851 517 814 517 767 c 0xe8
 517 755 515 745 513 735 c 1
 522 752 535 762 550 762 c 0
 578 762 600 726 600 679 c 0
 600 632 578 595 550 595 c 0xd4
 522 595 500 632 500 679 c 0
 500 691 502 700 504 710 c 1
 495 693 482 684 467 684 c 0
 449 684 434 699 425 722 c 1
 416 699 401 684 383 684 c 0
 366 684 351 698 342 720 c 1
 333 698 317 684 300 684 c 0
 283 684 267 698 258 720 c 1
 249 698 234 684 217 684 c 1
 199 684 184 699 175 722 c 1
 166 699 151 684 133 684 c 0xd8
 118 684 105 693 96 710 c 1
 98 700 100 691 100 679 c 0
 100 632 78 595 50 595 c 0xd4
300 328 m 0xc1
 272 328 250 364 250 411 c 0
 250 458 272 495 300 495 c 0
 328 495 350 458 350 411 c 0
 350 364 328 328 300 328 c 0xc1
467 149 m 0xe040
 439 149 417 186 417 233 c 0
 417 280 439 316 467 316 c 0xe040
 482 316 495 307 504 290 c 1
 502 300 500 309 500 321 c 0
 500 368 522 405 550 405 c 0
 578 405 600 368 600 321 c 0
 600 274 578 238 550 238 c 0xd080
 535 238 522 248 513 265 c 1
 515 255 517 245 517 233 c 0
 517 186 495 149 467 149 c 0xe040
550 416 m 0xd2
 522 416 500 453 500 500 c 0
 500 547 522 584 550 584 c 0
 578 584 600 547 600 500 c 0
 600 453 578 416 550 416 c 0xd2
EndSplineSet
EndChar

StartChar: K
Encoding: 75 75 34
Width: 800
VWidth: -334
UnlinkRmOvrlpSave: 1
Flags: HW
HStem: -1 167<441 502> -1 35G<126 154> 138 167<382 426> 278 167<334 378> 555 167<205 266> 695 167<311 395> 834 167<418 502>
VStem: 90 100<13 152 153 290 293 429 431 569 571 707 710 847 848 987> 197 100<578 708> 250 100<439 561> 303 100<294 422 709 848> 357 100<160 289> 410 100<13 143 848 987>
LayerCount: 2
Fore
SplineSet
50 149 m 0x8108
 22 149 0 186 0 233 c 0
 0 280 22 316 50 316 c 0x8108
 65 316 78 307 87 290 c 1
 85 300 83 309 83 321 c 0
 83 368 105 405 133 405 c 0x2110
 150 405 165 392 174 370 c 1
 170 382 167 396 167 411 c 0
 167 458 189 495 217 495 c 0x1120
 232 495 245 485 254 468 c 1
 252 478 250 488 250 500 c 0
 250 547 272 584 300 584 c 0x1140
 315 584 328 574 337 557 c 1
 335 567 333 577 333 589 c 0
 333 636 355 672 383 672 c 0
 411 672 433 636 433 589 c 0
 433 542 411 505 383 505 c 0x1980
 368 505 355 515 346 532 c 1
 348 522 350 512 350 500 c 0
 350 453 328 416 300 416 c 0x1940
 285 416 272 426 263 443 c 1
 265 433 267 423 267 411 c 0
 267 364 245 328 217 328 c 0x1920
 200 328 185 341 176 363 c 1
 180 351 183 336 183 321 c 0
 183 274 161 238 133 238 c 0x2110
 118 238 105 248 96 265 c 1
 98 255 100 245 100 233 c 0
 100 186 78 149 50 149 c 0x8108
50 684 m 1
 22 684 0 720 0 767 c 0
 0 814 22 851 50 851 c 0
 67 851 83 836 92 814 c 1
 101 836 116 851 133 851 c 1
 151 851 166 835 175 812 c 1
 184 835 199 851 217 851 c 0
 234 851 249 836 258 814 c 1
 267 836 283 851 300 851 c 1
 317 851 333 836 342 814 c 1
 351 836 366 851 383 851 c 0
 401 851 416 835 425 812 c 1
 434 835 449 851 467 851 c 0
 484 851 499 836 508 814 c 1
 517 836 533 851 550 851 c 0
 578 851 600 814 600 767 c 0x43
 600 720 578 684 550 684 c 0
 533 684 517 698 508 720 c 1
 499 698 484 684 467 684 c 0
 449 684 434 699 425 722 c 1
 416 699 401 684 383 684 c 0
 366 684 351 698 342 720 c 1
 333 698 317 684 300 684 c 0
 283 684 267 698 258 720 c 1
 249 698 234 684 217 684 c 1
 199 684 184 699 175 722 c 1
 166 699 151 684 133 684 c 0
 116 684 101 698 92 720 c 1
 83 698 67 684 50 684 c 1
467 328 m 0x0520
 439 328 417 364 417 411 c 0
 417 458 439 495 467 495 c 0
 495 495 517 458 517 411 c 0
 517 364 495 328 467 328 c 0x0520
550 149 m 0x0308
 522 149 500 186 500 233 c 0
 500 280 522 316 550 316 c 0
 578 316 600 280 600 233 c 0
 600 186 578 149 550 149 c 0x0308
EndSplineSet
EndChar

StartChar: O
Encoding: 79 79 35
Width: 800
VWidth: -343
UnlinkRmOvrlpSave: 1
Flags: HW
HStem: 153 170<99 178 180 264 264 350 350 434 436 515> 243 172<9 88 526 605> 427 170<8 94 520 606> 609 172<9 88 526 605> 701 170<99 178 180 264 264 350 350 434 436 515>
VStem: 0 102<297 400 441 583 624 727> 512 102<297 400 441 583 624 727>
LayerCount: 2
Fore
SplineSet
51 243 m 1x66
 22 243 0 280 0 328 c 0
 0 376 22 415 51 415 c 0x66
 80 415 102 376 102 328 c 0
 102 316 100 307 98 297 c 1
 107 314 121 323 136 323 c 1
 154 323 170 308 179 285 c 1
 188 308 204 323 222 323 c 1
 239 323 255 309 264 287 c 1
 273 309 290 323 307 323 c 0
 324 323 341 309 350 287 c 1
 359 309 375 323 392 323 c 0
 410 323 426 308 435 285 c 1
 444 308 460 323 478 323 c 0xa6
 493 323 507 314 516 297 c 1
 514 307 512 316 512 328 c 0
 512 376 534 415 563 415 c 0
 592 415 614 376 614 328 c 0
 614 280 592 243 563 243 c 0x66
 548 243 534 255 525 272 c 1
 527 262 529 250 529 238 c 0
 529 190 507 153 478 153 c 0
 460 153 444 170 435 193 c 1
 426 170 410 153 392 153 c 0
 375 153 359 168 350 190 c 1
 341 168 324 153 307 153 c 0
 290 153 273 168 264 190 c 1
 255 168 239 153 222 153 c 0
 204 153 188 170 179 193 c 1
 170 170 154 153 136 153 c 1xa6
 107 153 85 190 85 238 c 0
 85 250 87 262 89 272 c 1
 80 255 66 243 51 243 c 1x66
51 427 m 0
 22 427 0 464 0 512 c 0
 0 560 22 597 51 597 c 0
 80 597 102 560 102 512 c 0
 102 464 80 427 51 427 c 0
51 609 m 0x36
 22 609 0 648 0 696 c 0
 0 744 22 781 51 781 c 0x36
 66 781 80 769 89 752 c 1
 87 762 85 774 85 786 c 0
 85 834 107 871 136 871 c 0
 154 871 170 854 179 831 c 1
 188 854 204 871 222 871 c 0
 239 871 255 856 264 834 c 1
 273 856 290 871 307 871 c 1
 324 871 341 856 350 834 c 1
 359 856 375 871 392 871 c 0
 410 871 426 854 435 831 c 1
 444 854 460 871 478 871 c 0x2e
 507 871 529 834 529 786 c 0
 529 774 527 762 525 752 c 1
 534 769 548 781 563 781 c 0
 592 781 614 744 614 696 c 0
 614 648 592 609 563 609 c 0x36
 534 609 512 648 512 696 c 0
 512 708 514 717 516 727 c 1
 507 710 493 701 478 701 c 0
 460 701 444 716 435 739 c 1
 426 716 410 701 392 701 c 0
 375 701 359 715 350 737 c 1
 341 715 324 701 307 701 c 0
 290 701 273 715 264 737 c 1
 255 715 239 701 222 701 c 1
 204 701 188 716 179 739 c 1
 170 716 154 701 136 701 c 0x2e
 121 701 107 710 98 727 c 1
 100 717 102 708 102 696 c 0
 102 648 80 609 51 609 c 0x36
563 427 m 0
 534 427 512 464 512 512 c 0
 512 560 534 597 563 597 c 0
 592 597 614 560 614 512 c 0
 614 464 592 427 563 427 c 0
EndSplineSet
EndChar

StartChar: S
Encoding: 83 83 36
Width: 800
VWidth: -334
UnlinkRmOvrlpSave: 1
Flags: HW
HStem: -1 167<174 235 258 342 365 426> 138 167<98 159> 416 167<174 235 258 342 365 426> 695 167<441 502> 834 167<174 235 258 342 365 426>
VStem: 90 100<160 291 578 707 710 840> 143 100<13 143 431 561 857 987> 250 100<13 152 431 569 848 987> 357 100<13 143 439 569 857 987> 410 100<160 290 293 422 709 840>
LayerCount: 2
Fore
SplineSet
50 238 m 1x6180
 22 238 0 274 0 321 c 0
 0 368 22 405 50 405 c 0xa180
 78 405 100 368 100 321 c 0
 100 309 98 300 96 290 c 1
 105 307 118 316 133 316 c 1
 151 316 166 301 175 278 c 1
 184 301 199 316 217 316 c 1xa140
 232 316 245 307 254 290 c 1
 252 300 250 309 250 321 c 0
 250 368 272 405 300 405 c 0
 328 405 350 368 350 321 c 0
 350 274 328 238 300 238 c 0xa180
 285 238 272 248 263 265 c 1
 265 255 267 245 267 233 c 0
 267 186 245 149 217 149 c 0
 199 149 184 165 175 188 c 1
 166 165 151 149 133 149 c 1xa140
 105 149 83 186 83 233 c 0
 83 245 85 255 87 265 c 1
 78 248 65 238 50 238 c 1x6180
50 416 m 0
 22 416 0 453 0 500 c 0
 0 547 22 584 50 584 c 0
 78 584 100 547 100 500 c 0
 100 453 78 416 50 416 c 0
50 595 m 0xa3
 22 595 0 632 0 679 c 0
 0 726 22 762 50 762 c 0xa3
 65 762 78 752 87 735 c 1
 85 745 83 755 83 767 c 0
 83 814 105 851 133 851 c 0
 161 851 183 814 183 767 c 0
 183 720 161 684 133 684 c 0x65
 118 684 105 693 96 710 c 1
 98 700 100 691 100 679 c 0
 100 632 78 595 50 595 c 0xa3
300 416 m 0
 272 416 250 453 250 500 c 0
 250 547 272 584 300 584 c 0
 328 584 350 547 350 500 c 0
 350 453 328 416 300 416 c 0
300 595 m 0
 272 595 250 632 250 679 c 0
 250 726 272 762 300 762 c 0x2b
 315 762 328 752 337 735 c 1
 335 745 333 755 333 767 c 0
 333 814 355 851 383 851 c 0
 401 851 416 835 425 812 c 1
 434 835 449 851 467 851 c 0
 495 851 517 814 517 767 c 0x35
 517 755 515 745 513 735 c 1
 522 752 535 762 550 762 c 0
 578 762 600 726 600 679 c 0
 600 632 578 595 550 595 c 0x2b
 522 595 500 632 500 679 c 0
 500 691 502 700 504 710 c 1
 495 693 482 684 467 684 c 0
 449 684 434 699 425 722 c 1
 416 699 401 684 383 684 c 0x2d
 368 684 355 693 346 710 c 1
 348 700 350 691 350 679 c 0
 350 632 328 595 300 595 c 0
467 149 m 0x3140
 439 149 417 186 417 233 c 0
 417 280 439 316 467 316 c 0x3140
 482 316 495 307 504 290 c 1
 502 300 500 309 500 321 c 0
 500 368 522 405 550 405 c 0
 578 405 600 368 600 321 c 0
 600 274 578 238 550 238 c 0x2980
 535 238 522 248 513 265 c 1
 515 255 517 245 517 233 c 0
 517 186 495 149 467 149 c 0x3140
550 416 m 0
 522 416 500 453 500 500 c 0
 500 547 522 584 550 584 c 0
 578 584 600 547 600 500 c 0x29
 600 453 578 416 550 416 c 0
EndSplineSet
EndChar

StartChar: W
Encoding: 87 87 37
Width: 800
VWidth: -334
UnlinkRmOvrlpSave: 1
Flags: HW
HStem: -1 167<174 214 386 426> 138 167<226 269 331 374> 968 33G<126 154 446 474>
VStem: 90 100<160 290 293 429 431 569 571 707 710 847 848 987> 143 100<13 144> 197 100<158 286> 250 100<297 429 431 569> 303 100<158 286> 357 100<13 144> 410 100<160 290 293 429 431 569 571 707 710 847 848 987>
LayerCount: 2
Fore
SplineSet
50 238 m 1x6080
 22 238 0 274 0 321 c 0
 0 368 22 405 50 405 c 0xa080
 65 405 79 393 88 376 c 1
 85 386 83 398 83 411 c 0
 83 458 105 495 133 495 c 0
 149 495 163 481 172 463 c 1
 169 475 167 487 167 500 c 0
 167 513 169 525 172 537 c 1
 163 519 149 505 133 505 c 0
 105 505 83 542 83 589 c 0x65
 83 602 85 614 88 624 c 1
 79 607 65 595 50 595 c 1
 22 595 0 632 0 679 c 0xa8
 0 726 22 762 50 762 c 0
 65 762 78 752 87 735 c 1
 85 745 83 755 83 767 c 0x68
 83 814 105 851 133 851 c 0
 151 851 166 835 175 812 c 1
 184 835 199 851 217 851 c 0
 234 851 249 836 258 814 c 1
 267 836 283 851 300 851 c 1
 317 851 333 836 342 814 c 1
 351 836 366 851 383 851 c 0
 401 851 416 835 425 812 c 1
 434 835 449 851 467 851 c 0
 484 851 499 836 508 814 c 1
 517 836 533 851 550 851 c 0
 578 851 600 814 600 767 c 0
 600 720 578 684 550 684 c 0
 533 684 517 698 508 720 c 1
 499 698 484 684 467 684 c 0
 449 684 434 699 425 722 c 1
 416 699 401 684 383 684 c 0
 366 684 351 698 342 720 c 1
 333 698 317 684 300 684 c 0
 283 684 267 698 258 720 c 1
 249 698 234 684 217 684 c 1
 199 684 184 699 175 722 c 1
 166 699 151 684 133 684 c 0
 118 684 105 693 96 710 c 1
 98 700 100 691 100 679 c 0
 100 666 98 654 95 644 c 1
 104 661 118 672 133 672 c 1xb4
 161 672 183 636 183 589 c 0
 183 576 181 564 178 552 c 1
 187 570 201 584 217 584 c 0
 234 584 249 569 258 547 c 1
 267 569 283 584 300 584 c 1
 328 584 350 547 350 500 c 0
 350 453 328 416 300 416 c 0
 283 416 267 431 258 453 c 1
 249 431 234 416 217 416 c 0
 201 416 187 430 178 448 c 1
 181 436 183 424 183 411 c 0x62
 183 364 161 328 133 328 c 0
 118 328 104 339 95 356 c 1
 98 346 100 334 100 321 c 0
 100 309 98 300 96 290 c 1
 105 307 118 316 133 316 c 1
 151 316 166 301 175 278 c 1
 184 301 199 316 217 316 c 1
 234 316 249 302 258 280 c 1
 267 302 283 316 300 316 c 0
 317 316 333 302 342 280 c 1
 351 302 366 316 383 316 c 0
 401 316 416 301 425 278 c 1
 434 301 449 316 467 316 c 0
 484 316 499 302 508 280 c 1
 517 302 533 316 550 316 c 0
 578 316 600 280 600 233 c 0
 600 186 578 149 550 149 c 0
 533 149 517 164 508 186 c 1
 499 164 484 149 467 149 c 0
 449 149 434 165 425 188 c 1
 416 165 401 149 383 149 c 0
 366 149 351 164 342 186 c 1
 333 164 317 149 300 149 c 0
 283 149 267 164 258 186 c 1
 249 164 234 149 217 149 c 0
 199 149 184 165 175 188 c 1
 166 165 151 149 133 149 c 1xa140
 105 149 83 186 83 233 c 0
 83 245 85 255 87 265 c 1
 78 248 65 238 50 238 c 1x6080
EndSplineSet
EndChar

StartChar: bracketleft
Encoding: 91 91 38
Width: 800
VWidth: -334
UnlinkRmOvrlpSave: 1
Flags: HW
HStem: -1 167<258 342 365 449> 834 167<258 342 365 449>
VStem: 143 100<13 152 153 290 293 429 431 569 571 707 710 847 848 987> 250 100<13 152 848 987> 357 100<13 152 848 987>
CounterMasks: 1 e0
LayerCount: 2
Fore
SplineSet
50 238 m 0
 22 238 0 274 0 321 c 0
 0 368 22 405 50 405 c 0
 78 405 100 368 100 321 c 0
 100 274 78 238 50 238 c 0
50 416 m 0
 22 416 0 453 0 500 c 0
 0 547 22 584 50 584 c 0
 78 584 100 547 100 500 c 0
 100 453 78 416 50 416 c 0
50 595 m 1
 22 595 0 632 0 679 c 0
 0 726 22 762 50 762 c 0
 67 762 83 747 92 725 c 1
 101 747 116 762 133 762 c 1
 151 762 166 747 175 724 c 1
 184 747 199 762 217 762 c 0
 234 762 249 747 258 725 c 1
 267 747 283 762 300 762 c 1
 317 762 333 747 342 725 c 1
 351 747 366 762 383 762 c 0
 401 762 416 747 425 724 c 1
 434 747 449 762 467 762 c 0
 484 762 499 747 508 725 c 1
 517 747 533 762 550 762 c 0
 578 762 600 726 600 679 c 0
 600 632 578 595 550 595 c 0
 533 595 517 610 508 632 c 1
 499 610 484 595 467 595 c 0
 449 595 434 611 425 634 c 1
 416 611 401 595 383 595 c 0
 366 595 351 610 342 632 c 1
 333 610 317 595 300 595 c 0
 283 595 267 610 258 632 c 1
 249 610 234 595 217 595 c 1
 199 595 184 611 175 634 c 1
 166 611 151 595 133 595 c 0
 116 595 101 610 92 632 c 1
 83 610 67 595 50 595 c 1
550 238 m 0
 522 238 500 274 500 321 c 0
 500 368 522 405 550 405 c 0
 578 405 600 368 600 321 c 0
 600 274 578 238 550 238 c 0
550 416 m 0
 522 416 500 453 500 500 c 0
 500 547 522 584 550 584 c 0
 578 584 600 547 600 500 c 0
 600 453 578 416 550 416 c 0
EndSplineSet
EndChar

StartChar: underscore
Encoding: 95 95 39
Width: 800
VWidth: -334
UnlinkRmOvrlpSave: 1
Flags: HW
HStem: -1 35G<286 314> -1 35G<286 314> 555 167<98 162 438 502> 695 167<171 235 365 429> 968 33G<286 314>
VStem: 90 100<569 703> 143 100<714 848> 250 100<13 152 153 290 293 429 431 569 571 707 710 847 848 987> 357 100<714 848> 410 100<569 703>
LayerCount: 2
Fore
SplineSet
350 82 m 0x89
 350 35 328 -1 300 -1 c 0
 272 -1 250 35 250 82 c 0
 250 110 259 138 272 153 c 1
 259 168 250 193 250 221 c 1
 250 251 259 276 273 291 c 1
 259 306 250 331 250 361 c 0
 250 389 259 415 272 430 c 1
 259 445 250 472 250 500 c 1
 250 528 259 555 272 570 c 1
 259 585 250 611 250 639 c 0
 250 669 259 694 273 709 c 1
 259 724 250 749 250 779 c 0
 250 807 259 832 272 847 c 1
 259 862 250 890 250 918 c 0
 250 965 272 1001 300 1001 c 0
 328 1001 350 965 350 918 c 0
 350 890 341 862 328 847 c 1
 341 832 350 807 350 779 c 0
 350 749 341 724 327 709 c 1
 341 694 350 669 350 639 c 0
 350 611 341 585 328 570 c 1
 341 555 350 528 350 500 c 0
 350 472 341 445 328 430 c 1
 341 415 350 389 350 361 c 0
 350 331 341 306 327 291 c 1
 341 276 350 251 350 221 c 1
 350 193 341 168 328 153 c 1
 341 138 350 110 350 82 c 0x89
510 639 m 0x2940
 510 592 488 555 460 555 c 0
 432 555 410 592 410 639 c 0x2940
 410 666 418 689 429 704 c 1
 422 699 415 695 407 695 c 0
 379 695 357 732 357 779 c 0
 357 826 379 862 407 862 c 0
 435 862 457 826 457 779 c 0x1980
 457 752 449 729 438 714 c 1
 445 719 452 722 460 722 c 0
 488 722 510 686 510 639 c 0x2940
190 639 m 1x1d
 190 592 168 555 140 555 c 0
 112 555 90 592 90 639 c 0
 90 686 112 722 140 722 c 0x2d
 148 722 155 719 162 714 c 1
 151 729 143 752 143 779 c 1
 143 826 165 862 193 862 c 0
 221 862 243 826 243 779 c 0x1b
 243 732 221 695 193 695 c 0
 185 695 178 699 171 704 c 1
 182 689 190 666 190 639 c 1x1d
EndSplineSet
EndChar

StartChar: c
Encoding: 99 99 40
Width: 800
VWidth: -334
UnlinkRmOvrlpSave: 1
Flags: HW
HStem: -1 167<174 235 258 342 365 426> 138 167<441 502> 695 167<441 502> 834 167<174 235 258 342 365 426>
VStem: 90 100<160 290 293 429 431 569 571 707 710 840> 143 100<13 143 857 987> 250 100<13 152 848 987> 357 100<13 143 857 987> 410 100<160 291 709 840>
LayerCount: 2
Fore
SplineSet
50 238 m 1x43
 22 238 0 274 0 321 c 0
 0 368 22 405 50 405 c 0
 78 405 100 368 100 321 c 0x83
 100 309 98 300 96 290 c 1
 105 307 118 316 133 316 c 1
 161 316 183 280 183 233 c 0
 183 186 161 149 133 149 c 0x4280
 105 149 83 186 83 233 c 0
 83 245 85 255 87 265 c 1
 78 248 65 238 50 238 c 1x43
50 416 m 0
 22 416 0 453 0 500 c 0
 0 547 22 584 50 584 c 0
 78 584 100 547 100 500 c 0
 100 453 78 416 50 416 c 0
50 595 m 0x96
 22 595 0 632 0 679 c 0
 0 726 22 762 50 762 c 0x96
 65 762 78 752 87 735 c 1
 85 745 83 755 83 767 c 0
 83 814 105 851 133 851 c 0
 151 851 166 835 175 812 c 1
 184 835 199 851 217 851 c 0
 234 851 249 836 258 814 c 1
 267 836 283 851 300 851 c 1
 317 851 333 836 342 814 c 1
 351 836 366 851 383 851 c 0
 401 851 416 835 425 812 c 1
 434 835 449 851 467 851 c 0
 495 851 517 814 517 767 c 0x6a
 517 755 515 745 513 735 c 1
 522 752 535 762 550 762 c 0
 578 762 600 726 600 679 c 0
 600 632 578 595 550 595 c 0x16
 522 595 500 632 500 679 c 0
 500 691 502 700 504 710 c 1
 495 693 482 684 467 684 c 0
 449 684 434 699 425 722 c 1
 416 699 401 684 383 684 c 0
 366 684 351 698 342 720 c 1
 333 698 317 684 300 684 c 0
 283 684 267 698 258 720 c 1
 249 698 234 684 217 684 c 1
 199 684 184 699 175 722 c 1
 166 699 151 684 133 684 c 0x1a
 118 684 105 693 96 710 c 1
 98 700 100 691 100 679 c 0
 100 632 78 595 50 595 c 0x96
467 149 m 0x2280
 439 149 417 186 417 233 c 0
 417 280 439 316 467 316 c 0x2280
 482 316 495 307 504 290 c 1
 502 300 500 309 500 321 c 0
 500 368 522 405 550 405 c 0
 578 405 600 368 600 321 c 0
 600 274 578 238 550 238 c 0x13
 535 238 522 248 513 265 c 1
 515 255 517 245 517 233 c 0
 517 186 495 149 467 149 c 0x2280
550 416 m 0
 522 416 500 453 500 500 c 0
 500 547 522 584 550 584 c 0
 578 584 600 547 600 500 c 0x12
 600 453 578 416 550 416 c 0
EndSplineSet
EndChar

StartChar: g
Encoding: 103 103 41
Width: 800
VWidth: -334
UnlinkRmOvrlpSave: 1
Flags: HW
HStem: -1 167<174 235 258 342 365 426> 416 167<311 395> 695 167<441 502> 834 167<174 235 258 342 365 426>
VStem: 90 100<160 290 293 429 431 569 571 707 710 840> 143 100<13 143 857 987> 250 100<13 152 848 987> 303 100<431 569> 357 100<13 143 857 987> 410 100<160 290 293 429 431 569 709 840>
LayerCount: 2
Fore
SplineSet
50 238 m 1xc080
 22 238 0 274 0 321 c 0
 0 368 22 405 50 405 c 0xc080
 78 405 100 368 100 321 c 0
 100 309 98 300 96 290 c 1
 105 307 118 316 133 316 c 1
 151 316 166 301 175 278 c 1
 184 301 199 316 217 316 c 1
 234 316 249 302 258 280 c 1
 267 302 283 316 300 316 c 0
 328 316 350 280 350 233 c 0
 350 186 328 149 300 149 c 0
 283 149 267 164 258 186 c 1
 249 164 234 149 217 149 c 0
 199 149 184 165 175 188 c 1
 166 165 151 149 133 149 c 1xc040
 105 149 83 186 83 233 c 0
 83 245 85 255 87 265 c 1
 78 248 65 238 50 238 c 1xc080
50 416 m 0xc2
 22 416 0 453 0 500 c 0
 0 547 22 584 50 584 c 0
 78 584 100 547 100 500 c 0
 100 453 78 416 50 416 c 0xc2
50 595 m 0xd4
 22 595 0 632 0 679 c 0
 0 726 22 762 50 762 c 0xd4
 65 762 78 752 87 735 c 1
 85 745 83 755 83 767 c 0
 83 814 105 851 133 851 c 0
 151 851 166 835 175 812 c 1
 184 835 199 851 217 851 c 0
 234 851 249 836 258 814 c 1
 267 836 283 851 300 851 c 1
 317 851 333 836 342 814 c 1
 351 836 366 851 383 851 c 0
 401 851 416 835 425 812 c 1
 434 835 449 851 467 851 c 0
 495 851 517 814 517 767 c 0xe8
 517 755 515 745 513 735 c 1
 522 752 535 762 550 762 c 0
 578 762 600 726 600 679 c 0
 600 632 578 595 550 595 c 0xd4
 522 595 500 632 500 679 c 0
 500 691 502 700 504 710 c 1
 495 693 482 684 467 684 c 0
 449 684 434 699 425 722 c 1
 416 699 401 684 383 684 c 0
 366 684 351 698 342 720 c 1
 333 698 317 684 300 684 c 0
 283 684 267 698 258 720 c 1
 249 698 234 684 217 684 c 1
 199 684 184 699 175 722 c 1
 166 699 151 684 133 684 c 0xd8
 118 684 105 693 96 710 c 1
 98 700 100 691 100 679 c 0
 100 632 78 595 50 595 c 0xd4
300 328 m 0xc1
 272 328 250 364 250 411 c 0
 250 458 272 495 300 495 c 0
 328 495 350 458 350 411 c 0
 350 364 328 328 300 328 c 0xc1
467 149 m 0xe040
 439 149 417 186 417 233 c 0
 417 280 439 316 467 316 c 0xe040
 482 316 495 307 504 290 c 1
 502 300 500 309 500 321 c 0
 500 368 522 405 550 405 c 0
 578 405 600 368 600 321 c 0
 600 274 578 238 550 238 c 0xd080
 535 238 522 248 513 265 c 1
 515 255 517 245 517 233 c 0
 517 186 495 149 467 149 c 0xe040
550 416 m 0xd2
 522 416 500 453 500 500 c 0
 500 547 522 584 550 584 c 0
 578 584 600 547 600 500 c 0
 600 453 578 416 550 416 c 0xd2
EndSplineSet
EndChar

StartChar: k
Encoding: 107 107 42
Width: 800
VWidth: -334
UnlinkRmOvrlpSave: 1
Flags: HW
HStem: -1 167<441 502> -1 35G<126 154> 138 167<382 426> 278 167<334 378> 555 167<205 266> 695 167<311 395> 834 167<418 502>
VStem: 90 100<13 152 153 290 293 429 431 569 571 707 710 847 848 987> 197 100<578 708> 250 100<439 561> 303 100<294 422 709 848> 357 100<160 289> 410 100<13 143 848 987>
LayerCount: 2
Fore
SplineSet
50 149 m 0x8108
 22 149 0 186 0 233 c 0
 0 280 22 316 50 316 c 0x8108
 65 316 78 307 87 290 c 1
 85 300 83 309 83 321 c 0
 83 368 105 405 133 405 c 0x2110
 150 405 165 392 174 370 c 1
 170 382 167 396 167 411 c 0
 167 458 189 495 217 495 c 0x1120
 232 495 245 485 254 468 c 1
 252 478 250 488 250 500 c 0
 250 547 272 584 300 584 c 0x1140
 315 584 328 574 337 557 c 1
 335 567 333 577 333 589 c 0
 333 636 355 672 383 672 c 0
 411 672 433 636 433 589 c 0
 433 542 411 505 383 505 c 0x1980
 368 505 355 515 346 532 c 1
 348 522 350 512 350 500 c 0
 350 453 328 416 300 416 c 0x1940
 285 416 272 426 263 443 c 1
 265 433 267 423 267 411 c 0
 267 364 245 328 217 328 c 0x1920
 200 328 185 341 176 363 c 1
 180 351 183 336 183 321 c 0
 183 274 161 238 133 238 c 0x2110
 118 238 105 248 96 265 c 1
 98 255 100 245 100 233 c 0
 100 186 78 149 50 149 c 0x8108
50 684 m 1
 22 684 0 720 0 767 c 0
 0 814 22 851 50 851 c 0
 67 851 83 836 92 814 c 1
 101 836 116 851 133 851 c 1
 151 851 166 835 175 812 c 1
 184 835 199 851 217 851 c 0
 234 851 249 836 258 814 c 1
 267 836 283 851 300 851 c 1
 317 851 333 836 342 814 c 1
 351 836 366 851 383 851 c 0
 401 851 416 835 425 812 c 1
 434 835 449 851 467 851 c 0
 484 851 499 836 508 814 c 1
 517 836 533 851 550 851 c 0
 578 851 600 814 600 767 c 0x43
 600 720 578 684 550 684 c 0
 533 684 517 698 508 720 c 1
 499 698 484 684 467 684 c 0
 449 684 434 699 425 722 c 1
 416 699 401 684 383 684 c 0
 366 684 351 698 342 720 c 1
 333 698 317 684 300 684 c 0
 283 684 267 698 258 720 c 1
 249 698 234 684 217 684 c 1
 199 684 184 699 175 722 c 1
 166 699 151 684 133 684 c 0
 116 684 101 698 92 720 c 1
 83 698 67 684 50 684 c 1
467 328 m 0x0520
 439 328 417 364 417 411 c 0
 417 458 439 495 467 495 c 0
 495 495 517 458 517 411 c 0
 517 364 495 328 467 328 c 0x0520
550 149 m 0x0308
 522 149 500 186 500 233 c 0
 500 280 522 316 550 316 c 0
 578 316 600 280 600 233 c 0
 600 186 578 149 550 149 c 0x0308
EndSplineSet
EndChar

StartChar: o
Encoding: 111 111 43
Width: 800
VWidth: -334
UnlinkRmOvrlpSave: 1
Flags: HW
HStem: -1 167<174 235 258 342 365 426> 834 167<174 235 258 342 365 426>
VStem: 90 100<160 290 293 429 431 569 571 707 710 840> 143 100<13 143 857 987> 250 100<13 152 848 987> 357 100<13 143 857 987> 410 100<160 290 293 429 431 569 571 707 710 840>
LayerCount: 2
Fore
SplineSet
50 238 m 1xcc
 22 238 0 274 0 321 c 0
 0 368 22 405 50 405 c 0xcc
 78 405 100 368 100 321 c 0
 100 309 98 300 96 290 c 1
 105 307 118 316 133 316 c 1
 151 316 166 301 175 278 c 1
 184 301 199 316 217 316 c 1
 234 316 249 302 258 280 c 1
 267 302 283 316 300 316 c 0
 317 316 333 302 342 280 c 1
 351 302 366 316 383 316 c 0
 401 316 416 301 425 278 c 1
 434 301 449 316 467 316 c 0xca
 482 316 495 307 504 290 c 1
 502 300 500 309 500 321 c 0
 500 368 522 405 550 405 c 0
 578 405 600 368 600 321 c 0
 600 274 578 238 550 238 c 0xcc
 535 238 522 248 513 265 c 1
 515 255 517 245 517 233 c 0
 517 186 495 149 467 149 c 0
 449 149 434 165 425 188 c 1
 416 165 401 149 383 149 c 0
 366 149 351 164 342 186 c 1
 333 164 317 149 300 149 c 0
 283 149 267 164 258 186 c 1
 249 164 234 149 217 149 c 0
 199 149 184 165 175 188 c 1
 166 165 151 149 133 149 c 1xca
 105 149 83 186 83 233 c 0
 83 245 85 255 87 265 c 1
 78 248 65 238 50 238 c 1xcc
50 416 m 0
 22 416 0 453 0 500 c 0
 0 547 22 584 50 584 c 0
 78 584 100 547 100 500 c 0
 100 453 78 416 50 416 c 0
50 595 m 0xd8
 22 595 0 632 0 679 c 0
 0 726 22 762 50 762 c 0xd8
 65 762 78 752 87 735 c 1
 85 745 83 755 83 767 c 0
 83 814 105 851 133 851 c 0
 151 851 166 835 175 812 c 1
 184 835 199 851 217 851 c 0
 234 851 249 836 258 814 c 1
 267 836 283 851 300 851 c 1
 317 851 333 836 342 814 c 1
 351 836 366 851 383 851 c 0
 401 851 416 835 425 812 c 1
 434 835 449 851 467 851 c 0xe8
 495 851 517 814 517 767 c 0
 517 755 515 745 513 735 c 1
 522 752 535 762 550 762 c 0
 578 762 600 726 600 679 c 0
 600 632 578 595 550 595 c 0xd8
 522 595 500 632 500 679 c 0
 500 691 502 700 504 710 c 1
 495 693 482 684 467 684 c 0
 449 684 434 699 425 722 c 1
 416 699 401 684 383 684 c 0
 366 684 351 698 342 720 c 1
 333 698 317 684 300 684 c 0
 283 684 267 698 258 720 c 1
 249 698 234 684 217 684 c 1
 199 684 184 699 175 722 c 1
 166 699 151 684 133 684 c 0xe8
 118 684 105 693 96 710 c 1
 98 700 100 691 100 679 c 0
 100 632 78 595 50 595 c 0xd8
550 416 m 0
 522 416 500 453 500 500 c 0
 500 547 522 584 550 584 c 0
 578 584 600 547 600 500 c 0
 600 453 578 416 550 416 c 0
EndSplineSet
EndChar

StartChar: s
Encoding: 115 115 44
Width: 800
VWidth: -334
UnlinkRmOvrlpSave: 1
Flags: HW
HStem: -1 167<174 235 258 342 365 426> 138 167<98 159> 416 167<174 235 258 342 365 426> 695 167<441 502> 834 167<174 235 258 342 365 426>
VStem: 90 100<160 291 578 707 710 840> 143 100<13 143 431 561 857 987> 250 100<13 152 431 569 848 987> 357 100<13 143 439 569 857 987> 410 100<160 290 293 422 709 840>
LayerCount: 2
Fore
SplineSet
50 238 m 1x6180
 22 238 0 274 0 321 c 0
 0 368 22 405 50 405 c 0xa180
 78 405 100 368 100 321 c 0
 100 309 98 300 96 290 c 1
 105 307 118 316 133 316 c 1
 151 316 166 301 175 278 c 1
 184 301 199 316 217 316 c 1xa140
 232 316 245 307 254 290 c 1
 252 300 250 309 250 321 c 0
 250 368 272 405 300 405 c 0
 328 405 350 368 350 321 c 0
 350 274 328 238 300 238 c 0xa180
 285 238 272 248 263 265 c 1
 265 255 267 245 267 233 c 0
 267 186 245 149 217 149 c 0
 199 149 184 165 175 188 c 1
 166 165 151 149 133 149 c 1xa140
 105 149 83 186 83 233 c 0
 83 245 85 255 87 265 c 1
 78 248 65 238 50 238 c 1x6180
50 416 m 0
 22 416 0 453 0 500 c 0
 0 547 22 584 50 584 c 0
 78 584 100 547 100 500 c 0
 100 453 78 416 50 416 c 0
50 595 m 0xa3
 22 595 0 632 0 679 c 0
 0 726 22 762 50 762 c 0xa3
 65 762 78 752 87 735 c 1
 85 745 83 755 83 767 c 0
 83 814 105 851 133 851 c 0
 161 851 183 814 183 767 c 0
 183 720 161 684 133 684 c 0x65
 118 684 105 693 96 710 c 1
 98 700 100 691 100 679 c 0
 100 632 78 595 50 595 c 0xa3
300 416 m 0
 272 416 250 453 250 500 c 0
 250 547 272 584 300 584 c 0
 328 584 350 547 350 500 c 0
 350 453 328 416 300 416 c 0
300 595 m 0
 272 595 250 632 250 679 c 0
 250 726 272 762 300 762 c 0x2b
 315 762 328 752 337 735 c 1
 335 745 333 755 333 767 c 0
 333 814 355 851 383 851 c 0
 401 851 416 835 425 812 c 1
 434 835 449 851 467 851 c 0
 495 851 517 814 517 767 c 0x35
 517 755 515 745 513 735 c 1
 522 752 535 762 550 762 c 0
 578 762 600 726 600 679 c 0
 600 632 578 595 550 595 c 0x2b
 522 595 500 632 500 679 c 0
 500 691 502 700 504 710 c 1
 495 693 482 684 467 684 c 0
 449 684 434 699 425 722 c 1
 416 699 401 684 383 684 c 0x2d
 368 684 355 693 346 710 c 1
 348 700 350 691 350 679 c 0
 350 632 328 595 300 595 c 0
467 149 m 0x3140
 439 149 417 186 417 233 c 0
 417 280 439 316 467 316 c 0x3140
 482 316 495 307 504 290 c 1
 502 300 500 309 500 321 c 0
 500 368 522 405 550 405 c 0
 578 405 600 368 600 321 c 0
 600 274 578 238 550 238 c 0x2980
 535 238 522 248 513 265 c 1
 515 255 517 245 517 233 c 0
 517 186 495 149 467 149 c 0x3140
550 416 m 0
 522 416 500 453 500 500 c 0
 500 547 522 584 550 584 c 0
 578 584 600 547 600 500 c 0x29
 600 453 578 416 550 416 c 0
EndSplineSet
EndChar

StartChar: w
Encoding: 119 119 45
Width: 800
VWidth: -334
UnlinkRmOvrlpSave: 1
Flags: HW
HStem: -1 167<174 214 386 426> 138 167<226 269 331 374> 968 33G<126 154 446 474>
VStem: 90 100<160 290 293 429 431 569 571 707 710 847 848 987> 143 100<13 144> 197 100<158 286> 250 100<297 429 431 569> 303 100<158 286> 357 100<13 144> 410 100<160 290 293 429 431 569 571 707 710 847 848 987>
LayerCount: 2
Fore
SplineSet
50 238 m 1x6080
 22 238 0 274 0 321 c 0
 0 368 22 405 50 405 c 0xa080
 65 405 79 393 88 376 c 1
 85 386 83 398 83 411 c 0
 83 458 105 495 133 495 c 0
 149 495 163 481 172 463 c 1
 169 475 167 487 167 500 c 0
 167 513 169 525 172 537 c 1
 163 519 149 505 133 505 c 0
 105 505 83 542 83 589 c 0x65
 83 602 85 614 88 624 c 1
 79 607 65 595 50 595 c 1
 22 595 0 632 0 679 c 0xa8
 0 726 22 762 50 762 c 0
 65 762 78 752 87 735 c 1
 85 745 83 755 83 767 c 0x68
 83 814 105 851 133 851 c 0
 151 851 166 835 175 812 c 1
 184 835 199 851 217 851 c 0
 234 851 249 836 258 814 c 1
 267 836 283 851 300 851 c 1
 317 851 333 836 342 814 c 1
 351 836 366 851 383 851 c 0
 401 851 416 835 425 812 c 1
 434 835 449 851 467 851 c 0
 484 851 499 836 508 814 c 1
 517 836 533 851 550 851 c 0
 578 851 600 814 600 767 c 0
 600 720 578 684 550 684 c 0
 533 684 517 698 508 720 c 1
 499 698 484 684 467 684 c 0
 449 684 434 699 425 722 c 1
 416 699 401 684 383 684 c 0
 366 684 351 698 342 720 c 1
 333 698 317 684 300 684 c 0
 283 684 267 698 258 720 c 1
 249 698 234 684 217 684 c 1
 199 684 184 699 175 722 c 1
 166 699 151 684 133 684 c 0
 118 684 105 693 96 710 c 1
 98 700 100 691 100 679 c 0
 100 666 98 654 95 644 c 1
 104 661 118 672 133 672 c 1xb4
 161 672 183 636 183 589 c 0
 183 576 181 564 178 552 c 1
 187 570 201 584 217 584 c 0
 234 584 249 569 258 547 c 1
 267 569 283 584 300 584 c 1
 328 584 350 547 350 500 c 0
 350 453 328 416 300 416 c 0
 283 416 267 431 258 453 c 1
 249 431 234 416 217 416 c 0
 201 416 187 430 178 448 c 1
 181 436 183 424 183 411 c 0x62
 183 364 161 328 133 328 c 0
 118 328 104 339 95 356 c 1
 98 346 100 334 100 321 c 0
 100 309 98 300 96 290 c 1
 105 307 118 316 133 316 c 1
 151 316 166 301 175 278 c 1
 184 301 199 316 217 316 c 1
 234 316 249 302 258 280 c 1
 267 302 283 316 300 316 c 0
 317 316 333 302 342 280 c 1
 351 302 366 316 383 316 c 0
 401 316 416 301 425 278 c 1
 434 301 449 316 467 316 c 0
 484 316 499 302 508 280 c 1
 517 302 533 316 550 316 c 0
 578 316 600 280 600 233 c 0
 600 186 578 149 550 149 c 0
 533 149 517 164 508 186 c 1
 499 164 484 149 467 149 c 0
 449 149 434 165 425 188 c 1
 416 165 401 149 383 149 c 0
 366 149 351 164 342 186 c 1
 333 164 317 149 300 149 c 0
 283 149 267 164 258 186 c 1
 249 164 234 149 217 149 c 0
 199 149 184 165 175 188 c 1
 166 165 151 149 133 149 c 1xa140
 105 149 83 186 83 233 c 0
 83 245 85 255 87 265 c 1
 78 248 65 238 50 238 c 1x6080
EndSplineSet
EndChar

StartChar: braceleft
Encoding: 123 123 46
Width: 800
VWidth: -334
UnlinkRmOvrlpSave: 1
Flags: HW
HStem: -1 167<258 342 365 449> 834 167<258 342 365 449>
VStem: 143 100<13 152 153 290 293 429 431 569 571 707 710 847 848 987> 250 100<13 152 848 987> 357 100<13 152 848 987>
CounterMasks: 1 e0
LayerCount: 2
Fore
SplineSet
50 238 m 0
 22 238 0 274 0 321 c 0
 0 368 22 405 50 405 c 0
 78 405 100 368 100 321 c 0
 100 274 78 238 50 238 c 0
50 416 m 0
 22 416 0 453 0 500 c 0
 0 547 22 584 50 584 c 0
 78 584 100 547 100 500 c 0
 100 453 78 416 50 416 c 0
50 595 m 1
 22 595 0 632 0 679 c 0
 0 726 22 762 50 762 c 0
 67 762 83 747 92 725 c 1
 101 747 116 762 133 762 c 1
 151 762 166 747 175 724 c 1
 184 747 199 762 217 762 c 0
 234 762 249 747 258 725 c 1
 267 747 283 762 300 762 c 1
 317 762 333 747 342 725 c 1
 351 747 366 762 383 762 c 0
 401 762 416 747 425 724 c 1
 434 747 449 762 467 762 c 0
 484 762 499 747 508 725 c 1
 517 747 533 762 550 762 c 0
 578 762 600 726 600 679 c 0
 600 632 578 595 550 595 c 0
 533 595 517 610 508 632 c 1
 499 610 484 595 467 595 c 0
 449 595 434 611 425 634 c 1
 416 611 401 595 383 595 c 0
 366 595 351 610 342 632 c 1
 333 610 317 595 300 595 c 0
 283 595 267 610 258 632 c 1
 249 610 234 595 217 595 c 1
 199 595 184 611 175 634 c 1
 166 611 151 595 133 595 c 0
 116 595 101 610 92 632 c 1
 83 610 67 595 50 595 c 1
550 238 m 0
 522 238 500 274 500 321 c 0
 500 368 522 405 550 405 c 0
 578 405 600 368 600 321 c 0
 600 274 578 238 550 238 c 0
550 416 m 0
 522 416 500 453 500 500 c 0
 500 547 522 584 550 584 c 0
 578 584 600 547 600 500 c 0
 600 453 578 416 550 416 c 0
EndSplineSet
EndChar

StartChar: two
Encoding: 50 50 51
Width: 800
VWidth: -334
UnlinkRmOvrlpSave: 1
Flags: HW
HStem: -1 167<98 159 226 289 311 395 418 502> 138 167<174 214> 278 167<258 342> 416 167<365 426> 695 167<98 159> 834 167<174 235 258 342 365 426>
VStem: 90 100<13 143 709 840> 143 100<160 291 857 987> 197 100<13 145> 250 100<292 431 848 987> 303 100<13 152> 357 100<431 561 857 987> 410 100<13 152 578 707 710 840>
LayerCount: 2
Fore
SplineSet
50 149 m 0x8008
 22 149 0 186 0 233 c 0
 0 280 22 316 50 316 c 0
 78 316 100 280 100 233 c 0
 100 186 78 149 50 149 c 0x8008
50 328 m 0x8020
 22 328 0 364 0 411 c 0
 0 458 22 495 50 495 c 0
 78 495 100 458 100 411 c 0
 100 364 78 328 50 328 c 0x8020
50 505 m 0x8080
 22 505 0 542 0 589 c 0x8080
 0 636 22 672 50 672 c 0
 65 672 79 661 88 644 c 1
 85 654 83 666 83 679 c 0x4080
 83 691 85 700 87 710 c 1
 78 693 65 684 50 684 c 0
 22 684 0 720 0 767 c 0
 0 814 22 851 50 851 c 0
 78 851 100 814 100 767 c 0x8280
 100 755 98 745 96 735 c 1
 105 752 118 762 133 762 c 0
 161 762 183 726 183 679 c 0
 183 632 161 595 133 595 c 0x41
 118 595 104 607 95 624 c 1
 98 614 100 602 100 589 c 0
 100 542 78 505 50 505 c 0x8080
217 416 m 0x2040
 189 416 167 453 167 500 c 0
 167 547 189 584 217 584 c 0
 245 584 267 547 267 500 c 0
 267 453 245 416 217 416 c 0x2040
300 238 m 1x0810
 272 238 250 274 250 321 c 0
 250 368 272 405 300 405 c 0x1810
 328 405 350 368 350 321 c 0
 350 309 348 300 346 290 c 1
 355 307 368 316 383 316 c 1
 401 316 416 301 425 278 c 1
 434 301 449 316 467 316 c 0x1808
 482 316 495 307 504 290 c 1
 502 300 500 309 500 321 c 0
 500 368 522 405 550 405 c 0
 578 405 600 368 600 321 c 0
 600 274 578 238 550 238 c 0x1410
 535 238 522 248 513 265 c 1
 515 255 517 245 517 233 c 0
 517 186 495 149 467 149 c 0
 449 149 434 165 425 188 c 1
 416 165 401 149 383 149 c 0x0808
 355 149 333 186 333 233 c 0
 333 245 335 255 337 265 c 1
 328 248 315 238 300 238 c 1x0810
467 684 m 0x06
 439 684 417 720 417 767 c 0
 417 814 439 851 467 851 c 0
 495 851 517 814 517 767 c 0x0a
 517 755 515 745 513 735 c 1
 522 752 535 762 550 762 c 0
 578 762 600 726 600 679 c 0
 600 632 578 595 550 595 c 0x05
 522 595 500 632 500 679 c 0
 500 691 502 700 504 710 c 1
 495 693 482 684 467 684 c 0x06
550 416 m 0x0440
 522 416 500 453 500 500 c 0
 500 547 522 584 550 584 c 0
 578 584 600 547 600 500 c 0
 600 453 578 416 550 416 c 0x0440
EndSplineSet
EndChar

StartChar: six
Encoding: 54 54 52
Width: 800
VWidth: -334
UnlinkRmOvrlpSave: 1
Flags: HW
HStem: -1 167<174 235 258 342 365 426> 416 167<174 214 281 342 365 426> 555 167<226 266> 695 167<278 319> 834 167<334 395>
VStem: 90 100<160 290 293 422> 143 100<13 143 439 563> 197 100<578 703> 250 100<13 152 431 561 714 840> 303 100<857 987> 357 100<13 143 439 569> 410 100<160 290 293 422>
LayerCount: 2
Fore
SplineSet
50 238 m 1xc020
 22 238 0 274 0 321 c 0
 0 368 22 405 50 405 c 0xc020
 78 405 100 368 100 321 c 0
 100 309 98 300 96 290 c 1
 105 307 118 316 133 316 c 1
 151 316 166 301 175 278 c 1
 184 301 199 316 217 316 c 1xc010
 232 316 245 307 254 290 c 1
 252 300 250 309 250 321 c 0
 250 368 272 405 300 405 c 0
 328 405 350 368 350 321 c 0
 350 274 328 238 300 238 c 0xc020
 285 238 272 248 263 265 c 1
 265 255 267 245 267 233 c 0
 267 186 245 149 217 149 c 0
 199 149 184 165 175 188 c 1
 166 165 151 149 133 149 c 1xc010
 105 149 83 186 83 233 c 0
 83 245 85 255 87 265 c 1
 78 248 65 238 50 238 c 1xc020
50 416 m 0x8080
 22 416 0 453 0 500 c 0
 0 547 22 584 50 584 c 0
 78 584 100 547 100 500 c 0
 100 453 78 416 50 416 c 0x8080
50 595 m 0xc2
 22 595 0 632 0 679 c 0
 0 726 22 762 50 762 c 0xc2
 65 762 78 752 87 735 c 1
 85 745 83 755 83 767 c 0
 83 814 105 851 133 851 c 0
 151 851 166 835 175 812 c 1
 184 835 199 851 217 851 c 0xc4
 245 851 267 814 267 767 c 0
 267 755 265 745 263 735 c 1
 272 752 285 762 300 762 c 0
 328 762 350 726 350 679 c 0xc2
 350 666 348 654 345 644 c 1
 354 661 368 672 383 672 c 1
 411 672 433 636 433 589 c 0xa1
 433 576 431 564 428 552 c 1
 437 570 451 584 467 584 c 1
 495 584 517 547 517 500 c 0x9080
 517 488 515 478 513 468 c 1
 522 485 535 495 550 495 c 1
 578 495 600 458 600 411 c 0
 600 364 578 328 550 328 c 0x8840
 522 328 500 364 500 411 c 0
 500 423 502 433 504 443 c 1
 495 426 482 416 467 416 c 1x8880
 439 416 417 453 417 500 c 0
 417 513 419 525 422 537 c 1
 413 519 399 505 383 505 c 1x91
 368 505 355 515 346 532 c 1
 348 522 350 512 350 500 c 0
 350 453 328 416 300 416 c 0
 272 416 250 453 250 500 c 0xd080
 250 547 272 584 300 584 c 0
 315 584 328 574 337 557 c 1
 335 567 333 577 333 589 c 0
 333 602 335 614 338 624 c 1
 329 607 315 595 300 595 c 1xa280
 272 595 250 632 250 679 c 0
 250 691 252 700 254 710 c 1
 245 693 232 684 217 684 c 0
 199 684 184 699 175 722 c 1
 166 699 151 684 133 684 c 0xc4
 118 684 105 693 96 710 c 1
 98 700 100 691 100 679 c 0
 100 632 78 595 50 595 c 0xc2
EndSplineSet
EndChar

StartChar: colon
Encoding: 58 58 53
Width: 800
VWidth: -334
UnlinkRmOvrlpSave: 1
Flags: HW
HStem: -1 35G<286 314> -1 35G<286 314> 138 167<205 266 334 395> 278 167<278 322> 555 167<278 322> 695 167<205 266 334 395> 968 33G<286 314>
VStem: 197 100<160 286 714 840> 250 100<13 144 297 431 569 703 856 987> 303 100<160 286 714 840>
LayerCount: 2
Fore
SplineSet
50 416 m 1x2280
 22 416 0 453 0 500 c 0
 0 547 22 584 50 584 c 0xa280
 65 584 78 574 87 557 c 1
 85 567 83 577 83 589 c 0
 83 636 105 672 133 672 c 0
 161 672 183 636 183 589 c 0xa3
 183 576 181 564 178 552 c 1
 187 570 201 584 217 584 c 0
 245 584 267 547 267 500 c 0
 267 453 245 416 217 416 c 0x1280
 201 416 187 430 178 448 c 1
 181 436 183 424 183 411 c 0
 183 364 161 328 133 328 c 0x2240
 105 328 83 364 83 411 c 0
 83 423 85 433 87 443 c 1
 78 426 65 416 50 416 c 1x2280
383 416 m 1
 355 416 333 453 333 500 c 0
 333 547 355 584 383 584 c 0x0a80
 399 584 413 570 422 552 c 1
 419 564 417 576 417 589 c 0
 417 636 439 672 467 672 c 0x07
 495 672 517 636 517 589 c 0
 517 577 515 567 513 557 c 1
 522 574 535 584 550 584 c 0
 578 584 600 547 600 500 c 0
 600 453 578 416 550 416 c 0x0680
 535 416 522 426 513 443 c 1
 515 433 517 423 517 411 c 0
 517 364 495 328 467 328 c 0
 439 328 417 364 417 411 c 0x0640
 417 424 419 436 422 448 c 1
 413 430 399 416 383 416 c 1
96 468 m 1
 105 485 118 495 133 495 c 1
 149 495 163 481 172 463 c 1
 169 475 167 487 167 500 c 0
 167 513 169 525 172 537 c 1
 163 519 149 505 133 505 c 0x1340
 118 505 105 515 96 532 c 1
 98 522 100 512 100 500 c 0
 100 488 98 478 96 468 c 1
428 463 m 1
 437 481 451 495 467 495 c 1
 482 495 495 485 504 468 c 1
 502 478 500 488 500 500 c 0
 500 512 502 522 504 532 c 1
 495 515 482 505 467 505 c 0
 451 505 437 519 428 537 c 1
 431 525 433 513 433 500 c 0x0b40
 433 487 431 475 428 463 c 1
EndSplineSet
EndChar

StartChar: greater
Encoding: 62 62 54
Width: 800
VWidth: -334
UnlinkRmOvrlpSave: 1
Flags: HW
HStem: -1 167<98 182> 138 167<205 289> 278 167<311 395> 416 167<418 502> 555 167<311 395> 695 167<205 289> 834 167<98 182>
VStem: 90 100<13 152 848 987> 197 100<152 291 709 848> 303 100<292 431 569 708> 410 100<431 569>
LayerCount: 2
Fore
SplineSet
50 684 m 0x81e0
 22 684 0 720 0 767 c 0
 0 814 22 851 50 851 c 0
 78 851 100 814 100 767 c 0
 100 720 78 684 50 684 c 0x81e0
133 505 m 0
 105 505 83 542 83 589 c 0
 83 636 105 672 133 672 c 0
 161 672 183 636 183 589 c 0x41e0
 183 542 161 505 133 505 c 0
217 328 m 0
 189 328 167 364 167 411 c 0
 167 458 189 495 217 495 c 0
 245 495 267 458 267 411 c 0x21e0
 267 364 245 328 217 328 c 0
300 149 m 0
 272 149 250 186 250 233 c 0
 250 280 272 316 300 316 c 0
 328 316 350 280 350 233 c 0x11e0
 350 186 328 149 300 149 c 0
383 328 m 0
 355 328 333 364 333 411 c 0
 333 458 355 495 383 495 c 0
 411 495 433 458 433 411 c 0x09e0
 433 364 411 328 383 328 c 0
467 505 m 0
 439 505 417 542 417 589 c 0
 417 636 439 672 467 672 c 0
 495 672 517 636 517 589 c 0x05e0
 517 542 495 505 467 505 c 0
550 684 m 0
 522 684 500 720 500 767 c 0
 500 814 522 851 550 851 c 0
 578 851 600 814 600 767 c 0x03e0
 600 720 578 684 550 684 c 0
EndSplineSet
EndChar

StartChar: B
Encoding: 66 66 55
Width: 800
VWidth: -334
UnlinkRmOvrlpSave: 1
Flags: HW
HStem: -1 167<98 159 226 289 311 395> 416 167<258 342 365 426> 834 167<98 159 226 289 311 395>
VStem: 90 100<13 143 857 987> 143 100<160 290 293 429 431 569 571 707 710 840> 197 100<13 145 855 987> 250 100<431 569> 303 100<13 152 848 987> 357 100<439 561> 410 100<152 290 293 422 578 707 710 848>
CounterMasks: 1 01c0
LayerCount: 2
Fore
SplineSet
50 328 m 0xe1
 22 328 0 364 0 411 c 0
 0 458 22 495 50 495 c 0
 78 495 100 458 100 411 c 0
 100 364 78 328 50 328 c 0xe1
50 505 m 0xe4
 22 505 0 542 0 589 c 0
 0 636 22 672 50 672 c 0
 65 672 79 661 88 644 c 1
 85 654 83 666 83 679 c 0
 83 691 85 700 87 710 c 1
 78 693 65 684 50 684 c 0
 22 684 0 720 0 767 c 0
 0 814 22 851 50 851 c 0xf4
 78 851 100 814 100 767 c 0
 100 755 98 745 96 735 c 1
 105 752 118 762 133 762 c 0
 151 762 166 747 175 724 c 1
 184 747 199 762 217 762 c 0
 234 762 249 747 258 725 c 1
 267 747 283 762 300 762 c 1
 317 762 333 747 342 725 c 1
 351 747 366 762 383 762 c 0
 401 762 416 747 425 724 c 1
 434 747 449 762 467 762 c 0xe8
 482 762 495 752 504 735 c 1
 502 745 500 755 500 767 c 0
 500 814 522 851 550 851 c 0
 578 851 600 814 600 767 c 0
 600 720 578 684 550 684 c 0
 535 684 522 693 513 710 c 1
 515 700 517 691 517 679 c 0
 517 666 515 654 512 644 c 1
 521 661 535 672 550 672 c 1
 578 672 600 636 600 589 c 0
 600 542 578 505 550 505 c 0xf4
 522 505 500 542 500 589 c 0
 500 602 502 614 505 624 c 1
 496 607 482 595 467 595 c 1
 449 595 434 611 425 634 c 1
 416 611 401 595 383 595 c 0
 366 595 351 610 342 632 c 1
 333 610 317 595 300 595 c 0
 283 595 267 610 258 632 c 1
 249 610 234 595 217 595 c 1
 199 595 184 611 175 634 c 1
 166 611 151 595 133 595 c 0xe8
 118 595 104 607 95 624 c 1
 98 614 100 602 100 589 c 0
 100 542 78 505 50 505 c 0xe4
133 149 m 1xe040
 105 149 83 186 83 233 c 0
 83 280 105 316 133 316 c 0
 151 316 166 301 175 278 c 1
 184 301 199 316 217 316 c 1xe040
 232 316 245 307 254 290 c 1
 252 300 250 309 250 321 c 0
 250 368 272 405 300 405 c 0xe080
 328 405 350 368 350 321 c 0
 350 309 348 300 346 290 c 1
 355 307 368 316 383 316 c 1
 401 316 416 301 425 278 c 1
 434 301 449 316 467 316 c 0
 495 316 517 280 517 233 c 0
 517 186 495 149 467 149 c 0
 449 149 434 165 425 188 c 1
 416 165 401 149 383 149 c 0xe040
 355 149 333 186 333 233 c 0
 333 245 335 255 337 265 c 1
 328 248 315 238 300 238 c 1xe080
 285 238 272 248 263 265 c 1
 265 255 267 245 267 233 c 0
 267 186 245 149 217 149 c 0
 199 149 184 165 175 188 c 1
 166 165 151 149 133 149 c 1xe040
300 416 m 0xe2
 272 416 250 453 250 500 c 0
 250 547 272 584 300 584 c 0
 328 584 350 547 350 500 c 0
 350 453 328 416 300 416 c 0xe2
550 328 m 0xe1
 522 328 500 364 500 411 c 0
 500 458 522 495 550 495 c 0
 578 495 600 458 600 411 c 0
 600 364 578 328 550 328 c 0xe1
EndSplineSet
EndChar

StartChar: F
Encoding: 70 70 56
Width: 800
VWidth: -334
UnlinkRmOvrlpSave: 1
Flags: HW
HStem: -1 35G<126 154> -1 35G<126 154> 416 167<205 289 311 395> 834 167<205 289 311 395 418 502>
VStem: 90 100<13 152 153 290 293 429 431 569 571 707 710 847 848 987> 197 100<431 569 848 987> 303 100<431 569 848 987> 410 100<848 987>
LayerCount: 2
Fore
SplineSet
50 684 m 1xbf
 22 684 0 720 0 767 c 0
 0 814 22 851 50 851 c 0
 67 851 83 836 92 814 c 1
 101 836 116 851 133 851 c 1
 151 851 166 835 175 812 c 1
 184 835 199 851 217 851 c 0
 234 851 249 836 258 814 c 1
 267 836 283 851 300 851 c 1
 317 851 333 836 342 814 c 1
 351 836 366 851 383 851 c 0
 401 851 416 835 425 812 c 1
 434 835 449 851 467 851 c 0
 484 851 499 836 508 814 c 1
 517 836 533 851 550 851 c 0
 578 851 600 814 600 767 c 0
 600 720 578 684 550 684 c 0
 533 684 517 698 508 720 c 1
 499 698 484 684 467 684 c 0
 449 684 434 699 425 722 c 1
 416 699 401 684 383 684 c 0
 366 684 351 698 342 720 c 1
 333 698 317 684 300 684 c 0
 283 684 267 698 258 720 c 1
 249 698 234 684 217 684 c 1
 199 684 184 699 175 722 c 1
 166 699 151 684 133 684 c 0
 116 684 101 698 92 720 c 1
 83 698 67 684 50 684 c 1xbf
300 328 m 0
 272 328 250 364 250 411 c 0
 250 458 272 495 300 495 c 0
 328 495 350 458 350 411 c 0
 350 364 328 328 300 328 c 0
300 505 m 0
 272 505 250 542 250 589 c 0
 250 636 272 672 300 672 c 0
 328 672 350 636 350 589 c 0
 350 542 328 505 300 505 c 0
550 149 m 0
 522 149 500 186 500 233 c 0
 500 280 522 316 550 316 c 0
 578 316 600 280 600 233 c 0
 600 186 578 149 550 149 c 0
550 328 m 0
 522 328 500 364 500 411 c 0
 500 458 522 495 550 495 c 0
 578 495 600 458 600 411 c 0
 600 364 578 328 550 328 c 0
550 505 m 0
 522 505 500 542 500 589 c 0
 500 636 522 672 550 672 c 0
 578 672 600 636 600 589 c 0
 600 542 578 505 550 505 c 0
EndSplineSet
EndChar

StartChar: J
Encoding: 74 74 57
Width: 800
VWidth: -334
UnlinkRmOvrlpSave: 1
Flags: HW
HStem: -1 167<174 235 258 342 365 426> 138 167<98 159> 968 33G<446 474>
VStem: 90 100<160 291> 143 100<13 143> 250 100<13 152> 357 100<13 143> 410 100<160 290 293 429 431 569 571 707 710 847 848 987>
LayerCount: 2
Fore
SplineSet
50 238 m 1x66
 22 238 0 274 0 321 c 0
 0 368 22 405 50 405 c 0xa6
 78 405 100 368 100 321 c 0
 100 309 98 300 96 290 c 1
 105 307 118 316 133 316 c 1
 151 316 166 301 175 278 c 1
 184 301 199 316 217 316 c 1
 234 316 249 302 258 280 c 1
 267 302 283 316 300 316 c 0
 317 316 333 302 342 280 c 1
 351 302 366 316 383 316 c 0
 401 316 416 301 425 278 c 1
 434 301 449 316 467 316 c 0
 484 316 499 302 508 280 c 1
 517 302 533 316 550 316 c 0
 578 316 600 280 600 233 c 0
 600 186 578 149 550 149 c 0
 533 149 517 164 508 186 c 1
 499 164 484 149 467 149 c 0
 449 149 434 165 425 188 c 1
 416 165 401 149 383 149 c 0
 366 149 351 164 342 186 c 1
 333 164 317 149 300 149 c 0
 283 149 267 164 258 186 c 1
 249 164 234 149 217 149 c 0
 199 149 184 165 175 188 c 1
 166 165 151 149 133 149 c 1xa5
 105 149 83 186 83 233 c 0
 83 245 85 255 87 265 c 1
 78 248 65 238 50 238 c 1x66
50 416 m 0
 22 416 0 453 0 500 c 0
 0 547 22 584 50 584 c 0
 78 584 100 547 100 500 c 0
 100 453 78 416 50 416 c 0
50 595 m 0xac
 22 595 0 632 0 679 c 0
 0 726 22 762 50 762 c 0xac
 65 762 78 752 87 735 c 1
 85 745 83 755 83 767 c 0
 83 814 105 851 133 851 c 0
 161 851 183 814 183 767 c 0
 183 720 161 684 133 684 c 0x74
 118 684 105 693 96 710 c 1
 98 700 100 691 100 679 c 0
 100 632 78 595 50 595 c 0xac
EndSplineSet
EndChar

StartChar: N
Encoding: 78 78 58
Width: 800
VWidth: -334
UnlinkRmOvrlpSave: 1
Flags: HW
HStem: -1 167<441 502> -1 35G<126 154> 138 167<382 426> 278 167<334 378> 555 167<222 266> 695 167<174 218> 834 167<98 159>
VStem: 90 100<13 152 153 290 293 429 431 569 571 703 857 987> 143 100<714 840> 197 100<578 706> 250 100<439 561> 303 100<294 422> 357 100<160 286> 410 100<13 143 297 429 431 569 571 707 710 847 848 987>
LayerCount: 2
Fore
SplineSet
50 149 m 0x9204
 22 149 0 186 0 233 c 0
 0 280 22 316 50 316 c 0x9204
 65 316 78 307 87 290 c 1
 85 300 83 309 83 321 c 0
 83 368 105 405 133 405 c 0x2008
 150 405 165 392 174 370 c 1
 170 382 167 396 167 411 c 0
 167 458 189 495 217 495 c 0x1010
 232 495 245 485 254 468 c 1
 252 478 250 488 250 500 c 0
 250 547 272 584 300 584 c 0
 315 584 328 574 337 557 c 1
 335 567 333 577 333 589 c 0x1820
 333 636 355 672 383 672 c 0
 400 672 415 659 424 637 c 1
 420 649 417 664 417 679 c 0
 417 692 419 703 422 715 c 1
 413 697 399 684 383 684 c 1
 366 684 351 698 342 720 c 1
 333 698 317 684 300 684 c 0
 283 684 267 698 258 720 c 1
 249 698 234 684 217 684 c 1
 199 684 184 699 175 722 c 1
 166 699 151 684 133 684 c 0
 116 684 101 698 92 720 c 1
 83 698 67 684 50 684 c 1
 22 684 0 720 0 767 c 0
 0 814 22 851 50 851 c 0
 67 851 83 836 92 814 c 1
 101 836 116 851 133 851 c 1
 151 851 166 835 175 812 c 1
 184 835 199 851 217 851 c 0
 234 851 249 836 258 814 c 1
 267 836 283 851 300 851 c 1
 317 851 333 836 342 814 c 1
 351 836 366 851 383 851 c 0x4540
 411 851 433 814 433 767 c 0
 433 754 431 742 428 730 c 1
 437 748 451 762 467 762 c 1x4880
 482 762 495 752 504 735 c 1
 502 745 500 755 500 767 c 0
 500 814 522 851 550 851 c 0
 578 851 600 814 600 767 c 0
 600 720 578 684 550 684 c 0x4b
 535 684 522 693 513 710 c 1
 515 700 517 691 517 679 c 0
 517 632 495 595 467 595 c 0x0480
 450 595 435 608 426 630 c 1
 430 618 433 604 433 589 c 0
 433 542 411 505 383 505 c 0x0840
 368 505 355 515 346 532 c 1
 348 522 350 512 350 500 c 0
 350 453 328 416 300 416 c 0
 285 416 272 426 263 443 c 1
 265 433 267 423 267 411 c 0x1820
 267 364 245 328 217 328 c 0
 200 328 185 341 176 363 c 1
 180 351 183 336 183 321 c 0
 183 308 181 297 178 285 c 1
 187 303 201 316 217 316 c 0
 234 316 249 302 258 280 c 1
 267 302 283 316 300 316 c 0
 317 316 333 302 342 280 c 1
 351 302 366 316 383 316 c 0
 401 316 416 301 425 278 c 1
 434 301 449 316 467 316 c 0
 484 316 499 302 508 280 c 1
 517 302 533 316 550 316 c 0
 578 316 600 280 600 233 c 0
 600 186 578 149 550 149 c 0
 533 149 517 164 508 186 c 1
 499 164 484 149 467 149 c 0
 449 149 434 165 425 188 c 1
 416 165 401 149 383 149 c 0
 366 149 351 164 342 186 c 1
 333 164 317 149 300 149 c 0
 283 149 267 164 258 186 c 1
 249 164 234 149 217 149 c 0x2214
 189 149 167 186 167 233 c 0
 167 246 169 258 172 270 c 1
 163 252 149 238 133 238 c 0x1208
 118 238 105 248 96 265 c 1
 98 255 100 245 100 233 c 0
 100 186 78 149 50 149 c 0x9204
EndSplineSet
EndChar

StartChar: R
Encoding: 82 82 59
Width: 800
VWidth: -334
UnlinkRmOvrlpSave: 1
Flags: HW
HStem: -1 167<441 502> -1 35G<126 154> 138 167<382 426> 416 167<205 289> 834 167<205 289 311 395>
VStem: 90 100<13 152 153 290 293 429 431 569 571 707 710 847 848 987> 197 100<431 569 848 987> 303 100<294 429 431 569 848 987> 357 100<160 289> 410 100<13 143 569 707 710 848>
LayerCount: 2
Fore
SplineSet
50 149 m 0x9e40
 22 149 0 186 0 233 c 0
 0 280 22 316 50 316 c 0x9e40
 65 316 78 307 87 290 c 1
 85 300 83 309 83 321 c 0
 83 368 105 405 133 405 c 0x3e80
 150 405 165 392 174 370 c 1
 170 382 167 396 167 411 c 0
 167 458 189 495 217 495 c 0
 234 495 249 480 258 458 c 1
 267 480 283 495 300 495 c 0
 328 495 350 458 350 411 c 0
 350 364 328 328 300 328 c 0
 283 328 267 343 258 365 c 1
 249 343 234 328 217 328 c 0x3f
 200 328 185 341 176 363 c 1
 180 351 183 336 183 321 c 0
 183 274 161 238 133 238 c 0x3e80
 118 238 105 248 96 265 c 1
 98 255 100 245 100 233 c 0
 100 186 78 149 50 149 c 0x9e40
50 684 m 1
 22 684 0 720 0 767 c 0x5e
 0 814 22 851 50 851 c 0
 67 851 83 836 92 814 c 1
 101 836 116 851 133 851 c 1
 151 851 166 835 175 812 c 1
 184 835 199 851 217 851 c 0
 234 851 249 836 258 814 c 1
 267 836 283 851 300 851 c 1
 317 851 333 836 342 814 c 1
 351 836 366 851 383 851 c 0
 401 851 416 835 425 812 c 1
 434 835 449 851 467 851 c 0
 484 851 499 836 508 814 c 1
 517 836 533 851 550 851 c 0
 578 851 600 814 600 767 c 0
 600 720 578 684 550 684 c 0
 533 684 517 698 508 720 c 1
 499 698 484 684 467 684 c 0
 449 684 434 699 425 722 c 1
 416 699 401 684 383 684 c 0
 366 684 351 698 342 720 c 1
 333 698 317 684 300 684 c 0
 283 684 267 698 258 720 c 1
 249 698 234 684 217 684 c 1
 199 684 184 699 175 722 c 1
 166 699 151 684 133 684 c 0
 116 684 101 698 92 720 c 1
 83 698 67 684 50 684 c 1
300 505 m 0
 272 505 250 542 250 589 c 0
 250 636 272 672 300 672 c 0
 328 672 350 636 350 589 c 0
 350 542 328 505 300 505 c 0
383 149 m 0x1e40
 355 149 333 186 333 233 c 0
 333 280 355 316 383 316 c 0
 401 316 416 301 425 278 c 1
 434 301 449 316 467 316 c 0
 495 316 517 280 517 233 c 0
 517 186 495 149 467 149 c 0
 449 149 434 165 425 188 c 1
 416 165 401 149 383 149 c 0x1e40
550 328 m 0x1f
 522 328 500 364 500 411 c 0
 500 458 522 495 550 495 c 0
 578 495 600 458 600 411 c 0
 600 364 578 328 550 328 c 0x1f
550 505 m 0
 522 505 500 542 500 589 c 0
 500 636 522 672 550 672 c 0
 578 672 600 636 600 589 c 0
 600 542 578 505 550 505 c 0
EndSplineSet
EndChar

StartChar: V
Encoding: 86 86 60
Width: 800
VWidth: -334
UnlinkRmOvrlpSave: 1
Flags: HW
HStem: -1 35G<286 314> -1 35G<286 314> 138 167<222 266 334 378> 278 167<174 218 382 426> 968 33G<126 154 446 474>
VStem: 90 100<439 569 571 707 710 847 848 987> 143 100<294 422> 197 100<160 289> 250 100<13 144> 303 100<160 289> 357 100<294 422> 410 100<439 569 571 707 710 847 848 987>
LayerCount: 2
Fore
SplineSet
50 416 m 1x2880
 22 416 0 453 0 500 c 0
 0 547 22 584 50 584 c 0xa880
 65 584 78 574 87 557 c 1
 85 567 83 577 83 589 c 0
 83 636 105 672 133 672 c 0xa9
 150 672 165 659 174 637 c 1
 170 649 167 664 167 679 c 0
 167 726 189 762 217 762 c 0x1a
 232 762 245 752 254 735 c 1
 252 745 250 755 250 767 c 0
 250 814 272 851 300 851 c 0
 317 851 333 836 342 814 c 1
 351 836 366 851 383 851 c 0
 401 851 416 835 425 812 c 1
 434 835 449 851 467 851 c 0
 484 851 499 836 508 814 c 1
 517 836 533 851 550 851 c 0
 578 851 600 814 600 767 c 0
 600 720 578 684 550 684 c 0
 533 684 517 698 508 720 c 1
 499 698 484 684 467 684 c 0
 449 684 434 699 425 722 c 1
 416 699 401 684 383 684 c 0
 366 684 351 698 342 720 c 1
 333 698 317 684 300 684 c 0x1c
 285 684 272 693 263 710 c 1
 265 700 267 691 267 679 c 0
 267 632 245 595 217 595 c 0x1a
 200 595 185 608 176 630 c 1
 180 618 183 604 183 589 c 0
 183 542 161 505 133 505 c 0
 118 505 105 515 96 532 c 1
 98 522 100 512 100 500 c 0
 100 488 98 478 96 468 c 1
 105 485 118 495 133 495 c 1x2940
 161 495 183 458 183 411 c 0
 183 396 180 382 176 370 c 1
 185 392 200 405 217 405 c 1x2820
 245 405 267 368 267 321 c 0
 267 309 265 300 263 290 c 1
 272 307 285 316 300 316 c 1
 317 316 333 302 342 280 c 1
 351 302 366 316 383 316 c 0
 401 316 416 301 425 278 c 1
 434 301 449 316 467 316 c 0
 484 316 499 302 508 280 c 1
 517 302 533 316 550 316 c 0
 578 316 600 280 600 233 c 0
 600 186 578 149 550 149 c 0
 533 149 517 164 508 186 c 1
 499 164 484 149 467 149 c 0
 449 149 434 165 425 188 c 1
 416 165 401 149 383 149 c 0
 366 149 351 164 342 186 c 1
 333 164 317 149 300 149 c 0x1810
 272 149 250 186 250 233 c 0
 250 245 252 255 254 265 c 1
 245 248 232 238 217 238 c 1x1820
 189 238 167 274 167 321 c 0
 167 336 170 351 174 363 c 1
 165 341 150 328 133 328 c 1x1840
 105 328 83 364 83 411 c 0
 83 423 85 433 87 443 c 1
 78 426 65 416 50 416 c 1x2880
EndSplineSet
EndChar

StartChar: Z
Encoding: 90 90 61
Width: 800
VWidth: -334
UnlinkRmOvrlpSave: 1
Flags: HW
HStem: -1 167<98 159 226 289 311 395 418 502> 138 167<174 214> 278 167<222 266> 416 167<281 319> 555 167<334 378> 695 167<386 426> 834 167<98 182 205 289 311 374 441 502>
VStem: 90 100<13 143 848 987> 143 100<160 289> 197 100<13 145 294 422 848 987> 250 100<439 561> 303 100<13 152 578 706 855 987> 357 100<711 840> 410 100<13 152 857 987>
LayerCount: 2
Fore
SplineSet
50 149 m 0x8004
 22 149 0 186 0 233 c 0
 0 280 22 316 50 316 c 0
 78 316 100 280 100 233 c 0
 100 186 78 149 50 149 c 0x8004
50 328 m 0x8010
 22 328 0 364 0 411 c 0
 0 458 22 495 50 495 c 0
 78 495 100 458 100 411 c 0
 100 364 78 328 50 328 c 0x8010
50 505 m 0xa040
 22 505 0 542 0 589 c 0xa040
 0 636 22 672 50 672 c 0
 65 672 79 661 88 644 c 1
 85 654 83 666 83 679 c 0x4040
 83 691 85 700 87 710 c 1
 78 693 65 684 50 684 c 0
 22 684 0 720 0 767 c 0
 0 814 22 851 50 851 c 0x8140
 78 851 100 814 100 767 c 0
 100 755 98 745 96 735 c 1
 105 752 118 762 133 762 c 0x8080
 161 762 183 726 183 679 c 0
 183 664 180 649 176 637 c 1
 185 659 200 672 217 672 c 0x4040
 245 672 267 636 267 589 c 0
 267 577 265 567 263 557 c 1
 272 574 285 584 300 584 c 0x2020
 328 584 350 547 350 500 c 0
 350 488 348 478 346 468 c 1
 355 485 368 495 383 495 c 1x1010
 411 495 433 458 433 411 c 0
 433 396 430 382 426 370 c 1
 435 392 450 405 467 405 c 1x0808
 482 405 496 393 505 376 c 1
 502 386 500 398 500 411 c 0
 500 458 522 495 550 495 c 0
 578 495 600 458 600 411 c 0x0a10
 600 364 578 328 550 328 c 0
 535 328 521 339 512 356 c 1
 515 346 517 334 517 321 c 0x0410
 517 309 515 300 513 290 c 1
 522 307 535 316 550 316 c 1
 578 316 600 280 600 233 c 0
 600 186 578 149 550 149 c 0x0214
 522 149 500 186 500 233 c 0
 500 245 502 255 504 265 c 1
 495 248 482 238 467 238 c 1x0208
 439 238 417 274 417 321 c 0
 417 336 420 351 424 363 c 1
 415 341 400 328 383 328 c 1x0410
 355 328 333 364 333 411 c 0
 333 423 335 433 337 443 c 1
 328 426 315 416 300 416 c 1x0820
 272 416 250 453 250 500 c 0
 250 512 252 522 254 532 c 1
 245 515 232 505 217 505 c 0x1040
 189 505 167 542 167 589 c 0
 167 604 170 618 174 630 c 1
 165 608 150 595 133 595 c 0x2080
 118 595 104 607 95 624 c 1
 98 614 100 602 100 589 c 0
 100 542 78 505 50 505 c 0xa040
550 505 m 0
 522 505 500 542 500 589 c 0
 500 636 522 672 550 672 c 0
 578 672 600 636 600 589 c 0x0240
 600 542 578 505 550 505 c 0
550 684 m 0x03
 522 684 500 720 500 767 c 0
 500 814 522 851 550 851 c 0
 578 851 600 814 600 767 c 0
 600 720 578 684 550 684 c 0x03
EndSplineSet
EndChar

StartChar: asciicircum
Encoding: 94 94 62
Width: 800
VWidth: -334
UnlinkRmOvrlpSave: 1
Flags: HW
HStem: 138 167<311 378> 278 167<386 426> 416 167<98 182 205 289 311 374 441 502> 555 167<386 426> 695 167<311 378>
VStem: 90 100<431 569> 197 100<431 569> 303 100<152 289 437 563 711 848> 357 100<294 422 578 706> 410 100<439 561>
LayerCount: 2
Fore
SplineSet
403 221 m 1x47
 403 174 381 138 353 138 c 0
 325 138 303 174 303 221 c 0x87
 303 268 325 305 353 305 c 0
 362 305 371 300 378 293 c 1
 365 308 357 333 357 361 c 1x8680
 357 386 364 410 374 425 c 1
 368 420 361 416 353 416 c 0
 325 416 303 453 303 500 c 0xa7
 303 547 325 584 353 584 c 0
 361 584 368 580 374 575 c 1
 364 590 357 614 357 639 c 0xa680
 357 667 365 692 378 707 c 1
 371 700 362 695 353 695 c 0
 325 695 303 732 303 779 c 0
 303 826 325 862 353 862 c 0
 381 862 403 826 403 779 c 0xaf
 403 751 395 725 382 710 c 1
 389 717 398 722 407 722 c 0
 435 722 457 686 457 639 c 0x1680
 457 614 451 592 441 577 c 1
 447 580 453 584 460 584 c 0
 488 584 510 547 510 500 c 0x2640
 510 453 488 416 460 416 c 0
 453 416 447 420 441 423 c 1
 451 408 457 386 457 361 c 1x2680
 457 314 435 278 407 278 c 0
 398 278 389 283 382 290 c 1
 395 275 403 249 403 221 c 1x47
297 500 m 0
 297 453 275 416 247 416 c 0
 219 416 197 453 197 500 c 0
 197 547 219 584 247 584 c 0x26
 275 584 297 547 297 500 c 0
190 500 m 0
 190 453 168 416 140 416 c 0
 112 416 90 453 90 500 c 0
 90 547 112 584 140 584 c 0
 168 584 190 547 190 500 c 0
426 438 m 1
 416 453 410 475 410 500 c 1
 410 525 416 547 426 562 c 1
 420 559 414 555 407 555 c 0
 399 555 392 558 386 563 c 1
 396 548 403 525 403 500 c 0
 403 475 396 452 386 437 c 1
 392 442 399 445 407 445 c 0x5740
 414 445 420 441 426 438 c 1
EndSplineSet
EndChar

StartChar: b
Encoding: 98 98 63
Width: 800
VWidth: -334
UnlinkRmOvrlpSave: 1
Flags: HW
HStem: -1 167<98 159 226 289 311 395> 416 167<258 342 365 426> 834 167<98 159 226 289 311 395>
VStem: 90 100<13 143 857 987> 143 100<160 290 293 429 431 569 571 707 710 840> 197 100<13 145 855 987> 250 100<431 569> 303 100<13 152 848 987> 357 100<439 561> 410 100<152 290 293 422 578 707 710 848>
CounterMasks: 1 01c0
LayerCount: 2
Fore
SplineSet
50 328 m 0xe1
 22 328 0 364 0 411 c 0
 0 458 22 495 50 495 c 0
 78 495 100 458 100 411 c 0
 100 364 78 328 50 328 c 0xe1
50 505 m 0xe4
 22 505 0 542 0 589 c 0
 0 636 22 672 50 672 c 0
 65 672 79 661 88 644 c 1
 85 654 83 666 83 679 c 0
 83 691 85 700 87 710 c 1
 78 693 65 684 50 684 c 0
 22 684 0 720 0 767 c 0
 0 814 22 851 50 851 c 0xf4
 78 851 100 814 100 767 c 0
 100 755 98 745 96 735 c 1
 105 752 118 762 133 762 c 0
 151 762 166 747 175 724 c 1
 184 747 199 762 217 762 c 0
 234 762 249 747 258 725 c 1
 267 747 283 762 300 762 c 1
 317 762 333 747 342 725 c 1
 351 747 366 762 383 762 c 0
 401 762 416 747 425 724 c 1
 434 747 449 762 467 762 c 0xe8
 482 762 495 752 504 735 c 1
 502 745 500 755 500 767 c 0
 500 814 522 851 550 851 c 0
 578 851 600 814 600 767 c 0
 600 720 578 684 550 684 c 0
 535 684 522 693 513 710 c 1
 515 700 517 691 517 679 c 0
 517 666 515 654 512 644 c 1
 521 661 535 672 550 672 c 1
 578 672 600 636 600 589 c 0
 600 542 578 505 550 505 c 0xf4
 522 505 500 542 500 589 c 0
 500 602 502 614 505 624 c 1
 496 607 482 595 467 595 c 1
 449 595 434 611 425 634 c 1
 416 611 401 595 383 595 c 0
 366 595 351 610 342 632 c 1
 333 610 317 595 300 595 c 0
 283 595 267 610 258 632 c 1
 249 610 234 595 217 595 c 1
 199 595 184 611 175 634 c 1
 166 611 151 595 133 595 c 0xe8
 118 595 104 607 95 624 c 1
 98 614 100 602 100 589 c 0
 100 542 78 505 50 505 c 0xe4
133 149 m 1xe040
 105 149 83 186 83 233 c 0
 83 280 105 316 133 316 c 0
 151 316 166 301 175 278 c 1
 184 301 199 316 217 316 c 1xe040
 232 316 245 307 254 290 c 1
 252 300 250 309 250 321 c 0
 250 368 272 405 300 405 c 0xe080
 328 405 350 368 350 321 c 0
 350 309 348 300 346 290 c 1
 355 307 368 316 383 316 c 1
 401 316 416 301 425 278 c 1
 434 301 449 316 467 316 c 0
 495 316 517 280 517 233 c 0
 517 186 495 149 467 149 c 0
 449 149 434 165 425 188 c 1
 416 165 401 149 383 149 c 0xe040
 355 149 333 186 333 233 c 0
 333 245 335 255 337 265 c 1
 328 248 315 238 300 238 c 1xe080
 285 238 272 248 263 265 c 1
 265 255 267 245 267 233 c 0
 267 186 245 149 217 149 c 0
 199 149 184 165 175 188 c 1
 166 165 151 149 133 149 c 1xe040
300 416 m 0xe2
 272 416 250 453 250 500 c 0
 250 547 272 584 300 584 c 0
 328 584 350 547 350 500 c 0
 350 453 328 416 300 416 c 0xe2
550 328 m 0xe1
 522 328 500 364 500 411 c 0
 500 458 522 495 550 495 c 0
 578 495 600 458 600 411 c 0
 600 364 578 328 550 328 c 0xe1
EndSplineSet
EndChar

StartChar: f
Encoding: 102 102 64
Width: 800
VWidth: -334
UnlinkRmOvrlpSave: 1
Flags: HW
HStem: -1 35G<126 154> -1 35G<126 154> 416 167<205 289 311 395> 834 167<205 289 311 395 418 502>
VStem: 90 100<13 152 153 290 293 429 431 569 571 707 710 847 848 987> 197 100<431 569 848 987> 303 100<431 569 848 987> 410 100<848 987>
LayerCount: 2
Fore
SplineSet
50 684 m 1xbf
 22 684 0 720 0 767 c 0
 0 814 22 851 50 851 c 0
 67 851 83 836 92 814 c 1
 101 836 116 851 133 851 c 1
 151 851 166 835 175 812 c 1
 184 835 199 851 217 851 c 0
 234 851 249 836 258 814 c 1
 267 836 283 851 300 851 c 1
 317 851 333 836 342 814 c 1
 351 836 366 851 383 851 c 0
 401 851 416 835 425 812 c 1
 434 835 449 851 467 851 c 0
 484 851 499 836 508 814 c 1
 517 836 533 851 550 851 c 0
 578 851 600 814 600 767 c 0
 600 720 578 684 550 684 c 0
 533 684 517 698 508 720 c 1
 499 698 484 684 467 684 c 0
 449 684 434 699 425 722 c 1
 416 699 401 684 383 684 c 0
 366 684 351 698 342 720 c 1
 333 698 317 684 300 684 c 0
 283 684 267 698 258 720 c 1
 249 698 234 684 217 684 c 1
 199 684 184 699 175 722 c 1
 166 699 151 684 133 684 c 0
 116 684 101 698 92 720 c 1
 83 698 67 684 50 684 c 1xbf
300 328 m 0
 272 328 250 364 250 411 c 0
 250 458 272 495 300 495 c 0
 328 495 350 458 350 411 c 0
 350 364 328 328 300 328 c 0
300 505 m 0
 272 505 250 542 250 589 c 0
 250 636 272 672 300 672 c 0
 328 672 350 636 350 589 c 0
 350 542 328 505 300 505 c 0
550 149 m 0
 522 149 500 186 500 233 c 0
 500 280 522 316 550 316 c 0
 578 316 600 280 600 233 c 0
 600 186 578 149 550 149 c 0
550 328 m 0
 522 328 500 364 500 411 c 0
 500 458 522 495 550 495 c 0
 578 495 600 458 600 411 c 0
 600 364 578 328 550 328 c 0
550 505 m 0
 522 505 500 542 500 589 c 0
 500 636 522 672 550 672 c 0
 578 672 600 636 600 589 c 0
 600 542 578 505 550 505 c 0
EndSplineSet
EndChar

StartChar: j
Encoding: 106 106 65
Width: 800
VWidth: -334
UnlinkRmOvrlpSave: 1
Flags: HW
HStem: -1 167<174 235 258 342 365 426> 138 167<98 159> 968 33G<446 474>
VStem: 90 100<160 291> 143 100<13 143> 250 100<13 152> 357 100<13 143> 410 100<160 290 293 429 431 569 571 707 710 847 848 987>
LayerCount: 2
Fore
SplineSet
50 238 m 1x66
 22 238 0 274 0 321 c 0
 0 368 22 405 50 405 c 0xa6
 78 405 100 368 100 321 c 0
 100 309 98 300 96 290 c 1
 105 307 118 316 133 316 c 1
 151 316 166 301 175 278 c 1
 184 301 199 316 217 316 c 1
 234 316 249 302 258 280 c 1
 267 302 283 316 300 316 c 0
 317 316 333 302 342 280 c 1
 351 302 366 316 383 316 c 0
 401 316 416 301 425 278 c 1
 434 301 449 316 467 316 c 0
 484 316 499 302 508 280 c 1
 517 302 533 316 550 316 c 0
 578 316 600 280 600 233 c 0
 600 186 578 149 550 149 c 0
 533 149 517 164 508 186 c 1
 499 164 484 149 467 149 c 0
 449 149 434 165 425 188 c 1
 416 165 401 149 383 149 c 0
 366 149 351 164 342 186 c 1
 333 164 317 149 300 149 c 0
 283 149 267 164 258 186 c 1
 249 164 234 149 217 149 c 0
 199 149 184 165 175 188 c 1
 166 165 151 149 133 149 c 1xa5
 105 149 83 186 83 233 c 0
 83 245 85 255 87 265 c 1
 78 248 65 238 50 238 c 1x66
50 416 m 0
 22 416 0 453 0 500 c 0
 0 547 22 584 50 584 c 0
 78 584 100 547 100 500 c 0
 100 453 78 416 50 416 c 0
50 595 m 0xac
 22 595 0 632 0 679 c 0
 0 726 22 762 50 762 c 0xac
 65 762 78 752 87 735 c 1
 85 745 83 755 83 767 c 0
 83 814 105 851 133 851 c 0
 161 851 183 814 183 767 c 0
 183 720 161 684 133 684 c 0x74
 118 684 105 693 96 710 c 1
 98 700 100 691 100 679 c 0
 100 632 78 595 50 595 c 0xac
EndSplineSet
EndChar

StartChar: n
Encoding: 110 110 66
Width: 800
VWidth: -334
UnlinkRmOvrlpSave: 1
Flags: HW
HStem: -1 167<441 502> -1 35G<126 154> 138 167<382 426> 278 167<334 378> 555 167<222 266> 695 167<174 218> 834 167<98 159>
VStem: 90 100<13 152 153 290 293 429 431 569 571 703 857 987> 143 100<714 840> 197 100<578 706> 250 100<439 561> 303 100<294 422> 357 100<160 286> 410 100<13 143 297 429 431 569 571 707 710 847 848 987>
LayerCount: 2
Fore
SplineSet
50 149 m 0x9204
 22 149 0 186 0 233 c 0
 0 280 22 316 50 316 c 0x9204
 65 316 78 307 87 290 c 1
 85 300 83 309 83 321 c 0
 83 368 105 405 133 405 c 0x2008
 150 405 165 392 174 370 c 1
 170 382 167 396 167 411 c 0
 167 458 189 495 217 495 c 0x1010
 232 495 245 485 254 468 c 1
 252 478 250 488 250 500 c 0
 250 547 272 584 300 584 c 0
 315 584 328 574 337 557 c 1
 335 567 333 577 333 589 c 0x1820
 333 636 355 672 383 672 c 0
 400 672 415 659 424 637 c 1
 420 649 417 664 417 679 c 0
 417 692 419 703 422 715 c 1
 413 697 399 684 383 684 c 1
 366 684 351 698 342 720 c 1
 333 698 317 684 300 684 c 0
 283 684 267 698 258 720 c 1
 249 698 234 684 217 684 c 1
 199 684 184 699 175 722 c 1
 166 699 151 684 133 684 c 0
 116 684 101 698 92 720 c 1
 83 698 67 684 50 684 c 1
 22 684 0 720 0 767 c 0
 0 814 22 851 50 851 c 0
 67 851 83 836 92 814 c 1
 101 836 116 851 133 851 c 1
 151 851 166 835 175 812 c 1
 184 835 199 851 217 851 c 0
 234 851 249 836 258 814 c 1
 267 836 283 851 300 851 c 1
 317 851 333 836 342 814 c 1
 351 836 366 851 383 851 c 0x4540
 411 851 433 814 433 767 c 0
 433 754 431 742 428 730 c 1
 437 748 451 762 467 762 c 1x4880
 482 762 495 752 504 735 c 1
 502 745 500 755 500 767 c 0
 500 814 522 851 550 851 c 0
 578 851 600 814 600 767 c 0
 600 720 578 684 550 684 c 0x4b
 535 684 522 693 513 710 c 1
 515 700 517 691 517 679 c 0
 517 632 495 595 467 595 c 0x0480
 450 595 435 608 426 630 c 1
 430 618 433 604 433 589 c 0
 433 542 411 505 383 505 c 0x0840
 368 505 355 515 346 532 c 1
 348 522 350 512 350 500 c 0
 350 453 328 416 300 416 c 0
 285 416 272 426 263 443 c 1
 265 433 267 423 267 411 c 0x1820
 267 364 245 328 217 328 c 0
 200 328 185 341 176 363 c 1
 180 351 183 336 183 321 c 0
 183 308 181 297 178 285 c 1
 187 303 201 316 217 316 c 0
 234 316 249 302 258 280 c 1
 267 302 283 316 300 316 c 0
 317 316 333 302 342 280 c 1
 351 302 366 316 383 316 c 0
 401 316 416 301 425 278 c 1
 434 301 449 316 467 316 c 0
 484 316 499 302 508 280 c 1
 517 302 533 316 550 316 c 0
 578 316 600 280 600 233 c 0
 600 186 578 149 550 149 c 0
 533 149 517 164 508 186 c 1
 499 164 484 149 467 149 c 0
 449 149 434 165 425 188 c 1
 416 165 401 149 383 149 c 0
 366 149 351 164 342 186 c 1
 333 164 317 149 300 149 c 0
 283 149 267 164 258 186 c 1
 249 164 234 149 217 149 c 0x2214
 189 149 167 186 167 233 c 0
 167 246 169 258 172 270 c 1
 163 252 149 238 133 238 c 0x1208
 118 238 105 248 96 265 c 1
 98 255 100 245 100 233 c 0
 100 186 78 149 50 149 c 0x9204
EndSplineSet
EndChar

StartChar: r
Encoding: 114 114 67
Width: 800
VWidth: -334
UnlinkRmOvrlpSave: 1
Flags: HW
HStem: -1 167<441 502> -1 35G<126 154> 138 167<382 426> 416 167<205 289> 834 167<205 289 311 395>
VStem: 90 100<13 152 153 290 293 429 431 569 571 707 710 847 848 987> 197 100<431 569 848 987> 303 100<294 429 431 569 848 987> 357 100<160 289> 410 100<13 143 569 707 710 848>
LayerCount: 2
Fore
SplineSet
50 149 m 0x9e40
 22 149 0 186 0 233 c 0
 0 280 22 316 50 316 c 0x9e40
 65 316 78 307 87 290 c 1
 85 300 83 309 83 321 c 0
 83 368 105 405 133 405 c 0x3e80
 150 405 165 392 174 370 c 1
 170 382 167 396 167 411 c 0
 167 458 189 495 217 495 c 0
 234 495 249 480 258 458 c 1
 267 480 283 495 300 495 c 0
 328 495 350 458 350 411 c 0
 350 364 328 328 300 328 c 0
 283 328 267 343 258 365 c 1
 249 343 234 328 217 328 c 0x3f
 200 328 185 341 176 363 c 1
 180 351 183 336 183 321 c 0
 183 274 161 238 133 238 c 0x3e80
 118 238 105 248 96 265 c 1
 98 255 100 245 100 233 c 0
 100 186 78 149 50 149 c 0x9e40
50 684 m 1
 22 684 0 720 0 767 c 0x5e
 0 814 22 851 50 851 c 0
 67 851 83 836 92 814 c 1
 101 836 116 851 133 851 c 1
 151 851 166 835 175 812 c 1
 184 835 199 851 217 851 c 0
 234 851 249 836 258 814 c 1
 267 836 283 851 300 851 c 1
 317 851 333 836 342 814 c 1
 351 836 366 851 383 851 c 0
 401 851 416 835 425 812 c 1
 434 835 449 851 467 851 c 0
 484 851 499 836 508 814 c 1
 517 836 533 851 550 851 c 0
 578 851 600 814 600 767 c 0
 600 720 578 684 550 684 c 0
 533 684 517 698 508 720 c 1
 499 698 484 684 467 684 c 0
 449 684 434 699 425 722 c 1
 416 699 401 684 383 684 c 0
 366 684 351 698 342 720 c 1
 333 698 317 684 300 684 c 0
 283 684 267 698 258 720 c 1
 249 698 234 684 217 684 c 1
 199 684 184 699 175 722 c 1
 166 699 151 684 133 684 c 0
 116 684 101 698 92 720 c 1
 83 698 67 684 50 684 c 1
300 505 m 0
 272 505 250 542 250 589 c 0
 250 636 272 672 300 672 c 0
 328 672 350 636 350 589 c 0
 350 542 328 505 300 505 c 0
383 149 m 0x1e40
 355 149 333 186 333 233 c 0
 333 280 355 316 383 316 c 0
 401 316 416 301 425 278 c 1
 434 301 449 316 467 316 c 0
 495 316 517 280 517 233 c 0
 517 186 495 149 467 149 c 0
 449 149 434 165 425 188 c 1
 416 165 401 149 383 149 c 0x1e40
550 328 m 0x1f
 522 328 500 364 500 411 c 0
 500 458 522 495 550 495 c 0
 578 495 600 458 600 411 c 0
 600 364 578 328 550 328 c 0x1f
550 505 m 0
 522 505 500 542 500 589 c 0
 500 636 522 672 550 672 c 0
 578 672 600 636 600 589 c 0
 600 542 578 505 550 505 c 0
EndSplineSet
EndChar

StartChar: v
Encoding: 118 118 68
Width: 800
VWidth: -334
UnlinkRmOvrlpSave: 1
Flags: HW
HStem: -1 35G<286 314> -1 35G<286 314> 138 167<222 266 334 378> 278 167<174 218 382 426> 968 33G<126 154 446 474>
VStem: 90 100<439 569 571 707 710 847 848 987> 143 100<294 422> 197 100<160 289> 250 100<13 144> 303 100<160 289> 357 100<294 422> 410 100<439 569 571 707 710 847 848 987>
LayerCount: 2
Fore
SplineSet
50 416 m 1x2880
 22 416 0 453 0 500 c 0
 0 547 22 584 50 584 c 0xa880
 65 584 78 574 87 557 c 1
 85 567 83 577 83 589 c 0
 83 636 105 672 133 672 c 0xa9
 150 672 165 659 174 637 c 1
 170 649 167 664 167 679 c 0
 167 726 189 762 217 762 c 0x1a
 232 762 245 752 254 735 c 1
 252 745 250 755 250 767 c 0
 250 814 272 851 300 851 c 0
 317 851 333 836 342 814 c 1
 351 836 366 851 383 851 c 0
 401 851 416 835 425 812 c 1
 434 835 449 851 467 851 c 0
 484 851 499 836 508 814 c 1
 517 836 533 851 550 851 c 0
 578 851 600 814 600 767 c 0
 600 720 578 684 550 684 c 0
 533 684 517 698 508 720 c 1
 499 698 484 684 467 684 c 0
 449 684 434 699 425 722 c 1
 416 699 401 684 383 684 c 0
 366 684 351 698 342 720 c 1
 333 698 317 684 300 684 c 0x1c
 285 684 272 693 263 710 c 1
 265 700 267 691 267 679 c 0
 267 632 245 595 217 595 c 0x1a
 200 595 185 608 176 630 c 1
 180 618 183 604 183 589 c 0
 183 542 161 505 133 505 c 0
 118 505 105 515 96 532 c 1
 98 522 100 512 100 500 c 0
 100 488 98 478 96 468 c 1
 105 485 118 495 133 495 c 1x2940
 161 495 183 458 183 411 c 0
 183 396 180 382 176 370 c 1
 185 392 200 405 217 405 c 1x2820
 245 405 267 368 267 321 c 0
 267 309 265 300 263 290 c 1
 272 307 285 316 300 316 c 1
 317 316 333 302 342 280 c 1
 351 302 366 316 383 316 c 0
 401 316 416 301 425 278 c 1
 434 301 449 316 467 316 c 0
 484 316 499 302 508 280 c 1
 517 302 533 316 550 316 c 0
 578 316 600 280 600 233 c 0
 600 186 578 149 550 149 c 0
 533 149 517 164 508 186 c 1
 499 164 484 149 467 149 c 0
 449 149 434 165 425 188 c 1
 416 165 401 149 383 149 c 0
 366 149 351 164 342 186 c 1
 333 164 317 149 300 149 c 0x1810
 272 149 250 186 250 233 c 0
 250 245 252 255 254 265 c 1
 245 248 232 238 217 238 c 1x1820
 189 238 167 274 167 321 c 0
 167 336 170 351 174 363 c 1
 165 341 150 328 133 328 c 1x1840
 105 328 83 364 83 411 c 0
 83 423 85 433 87 443 c 1
 78 426 65 416 50 416 c 1x2880
EndSplineSet
EndChar

StartChar: z
Encoding: 122 122 69
Width: 800
VWidth: -334
UnlinkRmOvrlpSave: 1
Flags: HW
HStem: -1 167<98 159 226 289 311 395 418 502> 138 167<174 214> 278 167<222 266> 416 167<281 319> 555 167<334 378> 695 167<386 426> 834 167<98 182 205 289 311 374 441 502>
VStem: 90 100<13 143 848 987> 143 100<160 289> 197 100<13 145 294 422 848 987> 250 100<439 561> 303 100<13 152 578 706 855 987> 357 100<711 840> 410 100<13 152 857 987>
LayerCount: 2
Fore
SplineSet
50 149 m 0x8004
 22 149 0 186 0 233 c 0
 0 280 22 316 50 316 c 0
 78 316 100 280 100 233 c 0
 100 186 78 149 50 149 c 0x8004
50 328 m 0x8010
 22 328 0 364 0 411 c 0
 0 458 22 495 50 495 c 0
 78 495 100 458 100 411 c 0
 100 364 78 328 50 328 c 0x8010
50 505 m 0xa040
 22 505 0 542 0 589 c 0xa040
 0 636 22 672 50 672 c 0
 65 672 79 661 88 644 c 1
 85 654 83 666 83 679 c 0x4040
 83 691 85 700 87 710 c 1
 78 693 65 684 50 684 c 0
 22 684 0 720 0 767 c 0
 0 814 22 851 50 851 c 0x8140
 78 851 100 814 100 767 c 0
 100 755 98 745 96 735 c 1
 105 752 118 762 133 762 c 0x8080
 161 762 183 726 183 679 c 0
 183 664 180 649 176 637 c 1
 185 659 200 672 217 672 c 0x4040
 245 672 267 636 267 589 c 0
 267 577 265 567 263 557 c 1
 272 574 285 584 300 584 c 0x2020
 328 584 350 547 350 500 c 0
 350 488 348 478 346 468 c 1
 355 485 368 495 383 495 c 1x1010
 411 495 433 458 433 411 c 0
 433 396 430 382 426 370 c 1
 435 392 450 405 467 405 c 1x0808
 482 405 496 393 505 376 c 1
 502 386 500 398 500 411 c 0
 500 458 522 495 550 495 c 0
 578 495 600 458 600 411 c 0x0a10
 600 364 578 328 550 328 c 0
 535 328 521 339 512 356 c 1
 515 346 517 334 517 321 c 0x0410
 517 309 515 300 513 290 c 1
 522 307 535 316 550 316 c 1
 578 316 600 280 600 233 c 0
 600 186 578 149 550 149 c 0x0214
 522 149 500 186 500 233 c 0
 500 245 502 255 504 265 c 1
 495 248 482 238 467 238 c 1x0208
 439 238 417 274 417 321 c 0
 417 336 420 351 424 363 c 1
 415 341 400 328 383 328 c 1x0410
 355 328 333 364 333 411 c 0
 333 423 335 433 337 443 c 1
 328 426 315 416 300 416 c 1x0820
 272 416 250 453 250 500 c 0
 250 512 252 522 254 532 c 1
 245 515 232 505 217 505 c 0x1040
 189 505 167 542 167 589 c 0
 167 604 170 618 174 630 c 1
 165 608 150 595 133 595 c 0x2080
 118 595 104 607 95 624 c 1
 98 614 100 602 100 589 c 0
 100 542 78 505 50 505 c 0xa040
550 505 m 0
 522 505 500 542 500 589 c 0
 500 636 522 672 550 672 c 0
 578 672 600 636 600 589 c 0x0240
 600 542 578 505 550 505 c 0
550 684 m 0x03
 522 684 500 720 500 767 c 0
 500 814 522 851 550 851 c 0
 578 851 600 814 600 767 c 0
 600 720 578 684 550 684 c 0x03
EndSplineSet
EndChar

StartChar: asciitilde
Encoding: 126 126 70
Width: 800
VWidth: -334
UnlinkRmOvrlpSave: 1
Flags: HW
HStem: 138 167<311 378> 278 167<386 426> 416 167<98 182 205 289 311 374 441 502> 555 167<386 426> 695 167<311 378>
VStem: 90 100<431 569> 197 100<431 569> 303 100<152 289 437 563 711 848> 357 100<294 422 578 706> 410 100<439 561>
LayerCount: 2
Fore
SplineSet
403 221 m 1x47
 403 174 381 138 353 138 c 0
 325 138 303 174 303 221 c 0x87
 303 268 325 305 353 305 c 0
 362 305 371 300 378 293 c 1
 365 308 357 333 357 361 c 1x8680
 357 386 364 410 374 425 c 1
 368 420 361 416 353 416 c 0
 325 416 303 453 303 500 c 0xa7
 303 547 325 584 353 584 c 0
 361 584 368 580 374 575 c 1
 364 590 357 614 357 639 c 0xa680
 357 667 365 692 378 707 c 1
 371 700 362 695 353 695 c 0
 325 695 303 732 303 779 c 0
 303 826 325 862 353 862 c 0
 381 862 403 826 403 779 c 0xaf
 403 751 395 725 382 710 c 1
 389 717 398 722 407 722 c 0
 435 722 457 686 457 639 c 0x1680
 457 614 451 592 441 577 c 1
 447 580 453 584 460 584 c 0
 488 584 510 547 510 500 c 0x2640
 510 453 488 416 460 416 c 0
 453 416 447 420 441 423 c 1
 451 408 457 386 457 361 c 1x2680
 457 314 435 278 407 278 c 0
 398 278 389 283 382 290 c 1
 395 275 403 249 403 221 c 1x47
297 500 m 0
 297 453 275 416 247 416 c 0
 219 416 197 453 197 500 c 0
 197 547 219 584 247 584 c 0x26
 275 584 297 547 297 500 c 0
190 500 m 0
 190 453 168 416 140 416 c 0
 112 416 90 453 90 500 c 0
 90 547 112 584 140 584 c 0
 168 584 190 547 190 500 c 0
426 438 m 1
 416 453 410 475 410 500 c 1
 410 525 416 547 426 562 c 1
 420 559 414 555 407 555 c 0
 399 555 392 558 386 563 c 1
 396 548 403 525 403 500 c 0
 403 475 396 452 386 437 c 1
 392 442 399 445 407 445 c 0x5740
 414 445 420 441 426 438 c 1
EndSplineSet
EndChar

StartChar: one
Encoding: 49 49 75
Width: 800
VWidth: -334
UnlinkRmOvrlpSave: 1
Flags: HW
HStem: -1 167<151 235 365 449> 695 167<151 235> 968 33G<286 314>
VStem: 143 100<13 152 709 848> 250 100<13 152 153 290 293 429 431 569 571 707 710 847 848 987> 357 100<13 152>
CounterMasks: 1 e0
LayerCount: 2
Fore
SplineSet
50 238 m 0
 22 238 0 274 0 321 c 0
 0 368 22 405 50 405 c 0
 78 405 100 368 100 321 c 0
 100 274 78 238 50 238 c 0
50 416 m 0
 22 416 0 453 0 500 c 0
 0 547 22 584 50 584 c 0
 67 584 83 569 92 547 c 1
 101 569 116 584 133 584 c 1
 151 584 166 568 175 545 c 1
 184 568 199 584 217 584 c 0
 234 584 249 569 258 547 c 1
 267 569 283 584 300 584 c 1
 317 584 333 569 342 547 c 1
 351 569 366 584 383 584 c 0
 401 584 416 568 425 545 c 1
 434 568 449 584 467 584 c 0
 484 584 499 569 508 547 c 1
 517 569 533 584 550 584 c 0
 578 584 600 547 600 500 c 0
 600 453 578 416 550 416 c 0
 533 416 517 431 508 453 c 1
 499 431 484 416 467 416 c 0
 449 416 434 432 425 455 c 1
 416 432 401 416 383 416 c 0
 366 416 351 431 342 453 c 1
 333 431 317 416 300 416 c 0
 283 416 267 431 258 453 c 1
 249 431 234 416 217 416 c 0
 199 416 184 432 175 455 c 1
 166 432 151 416 133 416 c 1
 116 416 101 431 92 453 c 1
 83 431 67 416 50 416 c 0
50 595 m 0
 22 595 0 632 0 679 c 0
 0 726 22 762 50 762 c 0
 78 762 100 726 100 679 c 0
 100 632 78 595 50 595 c 0
467 595 m 0
 439 595 417 632 417 679 c 0
 417 726 439 762 467 762 c 0
 495 762 517 726 517 679 c 0
 517 632 495 595 467 595 c 0
EndSplineSet
EndChar

StartChar: five
Encoding: 53 53 76
Width: 800
VWidth: -334
UnlinkRmOvrlpSave: 1
Flags: HW
HStem: -1 167<174 235 258 342 365 426> 138 167<98 159> 555 167<205 289 311 395> 834 167<205 289 311 395 418 502>
VStem: 90 100<160 291 569 707 710 847 848 987> 143 100<13 143> 197 100<569 708 848 987> 250 100<13 152> 303 100<569 708 848 987> 357 100<13 143> 410 100<160 290 293 429 431 569 848 987>
LayerCount: 2
Fore
SplineSet
50 238 m 1x7040
 22 238 0 274 0 321 c 0
 0 368 22 405 50 405 c 0xb040
 78 405 100 368 100 321 c 0
 100 309 98 300 96 290 c 1
 105 307 118 316 133 316 c 1
 151 316 166 301 175 278 c 1
 184 301 199 316 217 316 c 1
 234 316 249 302 258 280 c 1
 267 302 283 316 300 316 c 0
 328 316 350 280 350 233 c 0
 350 186 328 149 300 149 c 0
 283 149 267 164 258 186 c 1
 249 164 234 149 217 149 c 0
 199 149 184 165 175 188 c 1
 166 165 151 149 133 149 c 1xb020
 105 149 83 186 83 233 c 0
 83 245 85 255 87 265 c 1
 78 248 65 238 50 238 c 1x7040
50 416 m 0xb1
 22 416 0 453 0 500 c 0
 0 547 22 584 50 584 c 0
 78 584 100 547 100 500 c 0
 100 453 78 416 50 416 c 0xb1
50 595 m 0xb4
 22 595 0 632 0 679 c 0
 0 726 22 762 50 762 c 0xb4
 65 762 78 752 87 735 c 1
 85 745 83 755 83 767 c 0
 83 814 105 851 133 851 c 0
 161 851 183 814 183 767 c 0
 183 720 161 684 133 684 c 0x78
 118 684 105 693 96 710 c 1
 98 700 100 691 100 679 c 0
 100 632 78 595 50 595 c 0xb4
383 328 m 0x3080
 355 328 333 364 333 411 c 0
 333 458 355 495 383 495 c 0
 411 495 433 458 433 411 c 0
 433 364 411 328 383 328 c 0x3080
383 505 m 0x32
 355 505 333 542 333 589 c 0
 333 636 355 672 383 672 c 0
 411 672 433 636 433 589 c 0
 433 542 411 505 383 505 c 0x32
383 684 m 0x38
 355 684 333 720 333 767 c 0
 333 814 355 851 383 851 c 0
 401 851 416 835 425 812 c 1
 434 835 449 851 467 851 c 0
 484 851 499 836 508 814 c 1
 517 836 533 851 550 851 c 0
 578 851 600 814 600 767 c 0
 600 720 578 684 550 684 c 0
 533 684 517 698 508 720 c 1
 499 698 484 684 467 684 c 0
 449 684 434 699 425 722 c 1
 416 699 401 684 383 684 c 0x38
550 149 m 0x3020
 522 149 500 186 500 233 c 0
 500 280 522 316 550 316 c 0
 578 316 600 280 600 233 c 0
 600 186 578 149 550 149 c 0x3020
550 328 m 0x3080
 522 328 500 364 500 411 c 0
 500 458 522 495 550 495 c 0
 578 495 600 458 600 411 c 0
 600 364 578 328 550 328 c 0x3080
550 505 m 0x32
 522 505 500 542 500 589 c 0
 500 636 522 672 550 672 c 0
 578 672 600 636 600 589 c 0
 600 542 578 505 550 505 c 0x32
EndSplineSet
EndChar

StartChar: nine
Encoding: 57 57 77
Width: 800
VWidth: -334
UnlinkRmOvrlpSave: 1
Flags: HW
HStem: -1 167<205 266> 138 167<281 322> 278 167<334 374> 416 167<174 235 258 319 386 426> 834 167<174 235 258 342 365 426>
VStem: 90 100<578 707 710 840> 143 100<431 561 857 987> 197 100<13 143> 250 100<160 286 439 569 848 987> 303 100<297 422> 357 100<437 561 857 987> 410 100<578 707 710 840>
LayerCount: 2
Fore
SplineSet
50 505 m 0x49
 22 505 0 542 0 589 c 0
 0 636 22 672 50 672 c 0x89
 78 672 100 636 100 589 c 0
 100 577 98 567 96 557 c 1
 105 574 118 584 133 584 c 0x8880
 161 584 183 547 183 500 c 0
 183 487 181 475 178 463 c 1
 187 481 201 495 217 495 c 0x4840
 232 495 245 485 254 468 c 1
 252 478 250 488 250 500 c 0
 250 547 272 584 300 584 c 0
 328 584 350 547 350 500 c 0x5880
 350 453 328 416 300 416 c 0
 285 416 272 426 263 443 c 1
 265 433 267 423 267 411 c 0
 267 398 265 386 262 376 c 1
 271 393 285 405 300 405 c 0x28a0
 328 405 350 368 350 321 c 0
 350 309 348 300 346 290 c 1
 355 307 368 316 383 316 c 1
 401 316 416 301 425 278 c 1
 434 301 449 316 467 316 c 0x1810
 482 316 495 307 504 290 c 1
 502 300 500 309 500 321 c 0
 500 368 522 405 550 405 c 0
 578 405 600 368 600 321 c 0
 600 274 578 238 550 238 c 0x1820
 535 238 522 248 513 265 c 1
 515 255 517 245 517 233 c 0
 517 186 495 149 467 149 c 0
 449 149 434 165 425 188 c 1
 416 165 401 149 383 149 c 0x1810
 355 149 333 186 333 233 c 0
 333 245 335 255 337 265 c 1
 328 248 315 238 300 238 c 1x1820
 272 238 250 274 250 321 c 0
 250 334 252 346 255 356 c 1
 246 339 232 328 217 328 c 0x1840
 189 328 167 364 167 411 c 0
 167 424 169 436 172 448 c 1
 163 430 149 416 133 416 c 0x2880
 105 416 83 453 83 500 c 0
 83 512 85 522 87 532 c 1
 78 515 65 505 50 505 c 0x49
300 595 m 0x1a
 272 595 250 632 250 679 c 0
 250 726 272 762 300 762 c 0x1a
 315 762 328 752 337 735 c 1
 335 745 333 755 333 767 c 0
 333 814 355 851 383 851 c 0
 401 851 416 835 425 812 c 1
 434 835 449 851 467 851 c 0x1c
 495 851 517 814 517 767 c 0
 517 755 515 745 513 735 c 1
 522 752 535 762 550 762 c 0
 578 762 600 726 600 679 c 0
 600 632 578 595 550 595 c 0x1a
 522 595 500 632 500 679 c 0
 500 691 502 700 504 710 c 1
 495 693 482 684 467 684 c 0
 449 684 434 699 425 722 c 1
 416 699 401 684 383 684 c 0x1c
 368 684 355 693 346 710 c 1
 348 700 350 691 350 679 c 0
 350 632 328 595 300 595 c 0x1a
550 416 m 0x0880
 522 416 500 453 500 500 c 0
 500 547 522 584 550 584 c 0
 578 584 600 547 600 500 c 0
 600 453 578 416 550 416 c 0x0880
EndSplineSet
EndChar

StartChar: equal
Encoding: 61 61 78
Width: 800
VWidth: -334
UnlinkRmOvrlpSave: 1
Flags: HW
HStem: 278 167<98 182 205 289 311 395 418 502> 555 167<98 182 205 289 311 395 418 502>
VStem: 90 100<292 431 569 708> 197 100<292 431 569 708> 303 100<292 431 569 708> 410 100<292 431 569 708>
LayerCount: 2
Fore
SplineSet
217 149 m 0
 189 149 167 186 167 233 c 0
 167 280 189 316 217 316 c 0
 245 316 267 280 267 233 c 0
 267 186 245 149 217 149 c 0
217 328 m 0
 189 328 167 364 167 411 c 0
 167 458 189 495 217 495 c 0
 245 495 267 458 267 411 c 0
 267 364 245 328 217 328 c 0
217 505 m 0
 189 505 167 542 167 589 c 0
 167 636 189 672 217 672 c 0
 245 672 267 636 267 589 c 0
 267 542 245 505 217 505 c 0
217 684 m 0
 189 684 167 720 167 767 c 0
 167 814 189 851 217 851 c 0
 245 851 267 814 267 767 c 0
 267 720 245 684 217 684 c 0
383 149 m 0
 355 149 333 186 333 233 c 0
 333 280 355 316 383 316 c 0
 411 316 433 280 433 233 c 0
 433 186 411 149 383 149 c 0
383 328 m 0
 355 328 333 364 333 411 c 0
 333 458 355 495 383 495 c 0
 411 495 433 458 433 411 c 0
 433 364 411 328 383 328 c 0
383 505 m 0
 355 505 333 542 333 589 c 0
 333 636 355 672 383 672 c 0
 411 672 433 636 433 589 c 0
 433 542 411 505 383 505 c 0
383 684 m 0
 355 684 333 720 333 767 c 0
 333 814 355 851 383 851 c 0
 411 851 433 814 433 767 c 0
 433 720 411 684 383 684 c 0
EndSplineSet
EndChar

StartChar: A
Encoding: 65 65 79
Width: 800
VWidth: -334
UnlinkRmOvrlpSave: 1
Flags: HW
HStem: -1 35G<126 154 446 474> -1 35G<126 154 446 474> 278 167<205 289 311 395> 555 167<174 218 382 426> 695 167<222 266 334 378> 968 33G<286 314>
VStem: 90 100<13 152 153 290 293 429 431 561> 143 100<578 706> 197 100<292 431 711 840> 250 100<856 987> 303 100<292 431 711 840> 357 100<578 706> 410 100<13 152 153 290 293 429 431 561>
LayerCount: 2
Fore
SplineSet
50 149 m 0x3408
 22 149 0 186 0 233 c 0
 0 280 22 316 50 316 c 0
 67 316 83 302 92 280 c 1
 101 302 116 316 133 316 c 0
 151 316 166 301 175 278 c 1
 184 301 199 316 217 316 c 1
 234 316 249 302 258 280 c 1
 267 302 283 316 300 316 c 0xb408
 315 316 328 307 337 290 c 1
 335 300 333 309 333 321 c 0
 333 368 355 405 383 405 c 0xb410
 400 405 415 392 424 370 c 1
 420 382 417 396 417 411 c 0
 417 458 439 495 467 495 c 0
 482 495 495 485 504 468 c 1
 502 478 500 488 500 500 c 0
 500 512 502 522 504 532 c 1
 495 515 482 505 467 505 c 0x2ca0
 439 505 417 542 417 589 c 0
 417 604 420 618 424 630 c 1
 415 608 400 595 383 595 c 0x2d
 355 595 333 632 333 679 c 0
 333 691 335 700 337 710 c 1
 328 693 315 684 300 684 c 0
 283 684 267 698 258 720 c 1
 249 698 234 684 217 684 c 1
 199 684 184 699 175 722 c 1
 166 699 151 684 133 684 c 0
 116 684 101 698 92 720 c 1
 83 698 67 684 50 684 c 1
 22 684 0 720 0 767 c 0
 0 814 22 851 50 851 c 0
 67 851 83 836 92 814 c 1
 101 836 116 851 133 851 c 1
 151 851 166 835 175 812 c 1
 184 835 199 851 217 851 c 0
 234 851 249 836 258 814 c 1
 267 836 283 851 300 851 c 1xb6
 328 851 350 814 350 767 c 0
 350 755 348 745 346 735 c 1
 355 752 368 762 383 762 c 0xb5
 411 762 433 726 433 679 c 0
 433 664 430 649 426 637 c 1
 435 659 450 672 467 672 c 0xb480
 495 672 517 636 517 589 c 0
 517 577 515 567 513 557 c 1
 522 574 535 584 550 584 c 0
 578 584 600 547 600 500 c 0
 600 453 578 416 550 416 c 0x2c40
 535 416 522 426 513 443 c 1
 515 433 517 423 517 411 c 0
 517 364 495 328 467 328 c 0x2c20
 450 328 435 341 426 363 c 1
 430 351 433 336 433 321 c 0
 433 274 411 238 383 238 c 0x3410
 368 238 355 248 346 265 c 1
 348 255 350 245 350 233 c 0
 350 186 328 149 300 149 c 0
 283 149 267 164 258 186 c 1
 249 164 234 149 217 149 c 0
 199 149 184 165 175 188 c 1
 166 165 151 149 133 149 c 1
 116 149 101 164 92 186 c 1
 83 164 67 149 50 149 c 0x3408
217 328 m 0x2420
 189 328 167 364 167 411 c 0
 167 458 189 495 217 495 c 0
 245 495 267 458 267 411 c 0
 267 364 245 328 217 328 c 0x2420
217 505 m 0x2480
 189 505 167 542 167 589 c 0
 167 636 189 672 217 672 c 0
 245 672 267 636 267 589 c 0
 267 542 245 505 217 505 c 0x2480
EndSplineSet
EndChar

StartChar: E
Encoding: 69 69 80
Width: 800
VWidth: -334
UnlinkRmOvrlpSave: 1
Flags: HW
HStem: -1 167<205 289 311 395 418 502> 416 167<205 289 311 395> 834 167<205 289 311 395 418 502>
VStem: 90 100<13 152 153 290 293 429 431 569 571 707 710 847 848 987> 197 100<13 152 431 569 848 987> 303 100<13 152 431 569 848 987> 410 100<13 152 848 987>
CounterMasks: 1 0e
LayerCount: 2
Fore
SplineSet
50 149 m 0
 22 149 0 186 0 233 c 0
 0 280 22 316 50 316 c 0
 78 316 100 280 100 233 c 0
 100 186 78 149 50 149 c 0
50 328 m 0
 22 328 0 364 0 411 c 0
 0 458 22 495 50 495 c 0
 78 495 100 458 100 411 c 0
 100 364 78 328 50 328 c 0
50 505 m 0
 22 505 0 542 0 589 c 0
 0 636 22 672 50 672 c 0
 78 672 100 636 100 589 c 0
 100 542 78 505 50 505 c 0
50 684 m 1
 22 684 0 720 0 767 c 0
 0 814 22 851 50 851 c 0
 67 851 83 836 92 814 c 1
 101 836 116 851 133 851 c 1
 151 851 166 835 175 812 c 1
 184 835 199 851 217 851 c 0
 234 851 249 836 258 814 c 1
 267 836 283 851 300 851 c 1
 317 851 333 836 342 814 c 1
 351 836 366 851 383 851 c 0
 401 851 416 835 425 812 c 1
 434 835 449 851 467 851 c 0
 484 851 499 836 508 814 c 1
 517 836 533 851 550 851 c 0
 578 851 600 814 600 767 c 0
 600 720 578 684 550 684 c 0
 533 684 517 698 508 720 c 1
 499 698 484 684 467 684 c 0
 449 684 434 699 425 722 c 1
 416 699 401 684 383 684 c 0
 366 684 351 698 342 720 c 1
 333 698 317 684 300 684 c 0
 283 684 267 698 258 720 c 1
 249 698 234 684 217 684 c 1
 199 684 184 699 175 722 c 1
 166 699 151 684 133 684 c 0
 116 684 101 698 92 720 c 1
 83 698 67 684 50 684 c 1
300 328 m 0
 272 328 250 364 250 411 c 0
 250 458 272 495 300 495 c 0
 328 495 350 458 350 411 c 0
 350 364 328 328 300 328 c 0
300 505 m 0
 272 505 250 542 250 589 c 0
 250 636 272 672 300 672 c 0
 328 672 350 636 350 589 c 0
 350 542 328 505 300 505 c 0
550 149 m 0
 522 149 500 186 500 233 c 0
 500 280 522 316 550 316 c 0
 578 316 600 280 600 233 c 0
 600 186 578 149 550 149 c 0
550 328 m 0
 522 328 500 364 500 411 c 0
 500 458 522 495 550 495 c 0
 578 495 600 458 600 411 c 0
 600 364 578 328 550 328 c 0
550 505 m 0
 522 505 500 542 500 589 c 0
 500 636 522 672 550 672 c 0
 578 672 600 636 600 589 c 0
 600 542 578 505 550 505 c 0
EndSplineSet
EndChar

StartChar: I
Encoding: 73 73 81
Width: 800
VWidth: -334
UnlinkRmOvrlpSave: 1
Flags: HW
HStem: -1 167<151 235 365 449> 834 167<151 235 365 449>
VStem: 143 100<13 152 848 987> 250 100<13 152 153 290 293 429 431 569 571 707 710 847 848 987> 357 100<13 152 848 987>
CounterMasks: 1 e0
LayerCount: 2
Fore
SplineSet
50 238 m 0
 22 238 0 274 0 321 c 0
 0 368 22 405 50 405 c 0
 78 405 100 368 100 321 c 0
 100 274 78 238 50 238 c 0
50 416 m 0
 22 416 0 453 0 500 c 0
 0 547 22 584 50 584 c 0
 67 584 83 569 92 547 c 1
 101 569 116 584 133 584 c 1
 151 584 166 568 175 545 c 1
 184 568 199 584 217 584 c 0
 234 584 249 569 258 547 c 1
 267 569 283 584 300 584 c 1
 317 584 333 569 342 547 c 1
 351 569 366 584 383 584 c 0
 401 584 416 568 425 545 c 1
 434 568 449 584 467 584 c 0
 484 584 499 569 508 547 c 1
 517 569 533 584 550 584 c 0
 578 584 600 547 600 500 c 0
 600 453 578 416 550 416 c 0
 533 416 517 431 508 453 c 1
 499 431 484 416 467 416 c 0
 449 416 434 432 425 455 c 1
 416 432 401 416 383 416 c 0
 366 416 351 431 342 453 c 1
 333 431 317 416 300 416 c 0
 283 416 267 431 258 453 c 1
 249 431 234 416 217 416 c 0
 199 416 184 432 175 455 c 1
 166 432 151 416 133 416 c 1
 116 416 101 431 92 453 c 1
 83 431 67 416 50 416 c 0
50 595 m 0
 22 595 0 632 0 679 c 0
 0 726 22 762 50 762 c 0
 78 762 100 726 100 679 c 0
 100 632 78 595 50 595 c 0
550 238 m 0
 522 238 500 274 500 321 c 0
 500 368 522 405 550 405 c 0
 578 405 600 368 600 321 c 0
 600 274 578 238 550 238 c 0
550 595 m 0
 522 595 500 632 500 679 c 0
 500 726 522 762 550 762 c 0
 578 762 600 726 600 679 c 0
 600 632 578 595 550 595 c 0
EndSplineSet
EndChar

StartChar: M
Encoding: 77 77 82
Width: 800
VWidth: -334
UnlinkRmOvrlpSave: 1
Flags: HW
HStem: -1 35G<126 154 446 474> -1 35G<126 154 446 474> 555 167<222 266 334 378> 695 167<174 218 382 426> 834 167<98 159 441 502>
VStem: 90 100<13 152 153 290 293 429 431 569 571 703 857 987> 143 100<714 840> 197 100<578 706> 250 100<431 561> 303 100<578 706> 357 100<714 840> 410 100<13 152 153 290 293 429 431 569 571 703 857 987>
LayerCount: 2
Fore
SplineSet
50 149 m 0x2810
 22 149 0 186 0 233 c 0
 0 280 22 316 50 316 c 0
 67 316 83 302 92 280 c 1
 101 302 116 316 133 316 c 0
 151 316 166 301 175 278 c 1
 184 301 199 316 217 316 c 1
 234 316 249 302 258 280 c 1
 267 302 283 316 300 316 c 0
 317 316 333 302 342 280 c 1
 351 302 366 316 383 316 c 0
 399 316 413 303 422 285 c 1
 419 297 417 308 417 321 c 0
 417 336 420 351 424 363 c 1
 415 341 400 328 383 328 c 1x9050
 355 328 333 364 333 411 c 0
 333 423 335 433 337 443 c 1
 328 426 315 416 300 416 c 1
 272 416 250 453 250 500 c 0
 250 547 272 584 300 584 c 0
 315 584 328 574 337 557 c 1
 335 567 333 577 333 589 c 0x2080
 333 636 355 672 383 672 c 0
 400 672 415 659 424 637 c 1
 420 649 417 664 417 679 c 0
 417 692 419 703 422 715 c 1
 413 697 399 684 383 684 c 1
 366 684 351 698 342 720 c 1
 333 698 317 684 300 684 c 0
 283 684 267 698 258 720 c 1
 249 698 234 684 217 684 c 1
 199 684 184 699 175 722 c 1
 166 699 151 684 133 684 c 0
 116 684 101 698 92 720 c 1
 83 698 67 684 50 684 c 1
 22 684 0 720 0 767 c 0
 0 814 22 851 50 851 c 0
 67 851 83 836 92 814 c 1
 101 836 116 851 133 851 c 1
 151 851 166 835 175 812 c 1
 184 835 199 851 217 851 c 0
 234 851 249 836 258 814 c 1
 267 836 283 851 300 851 c 1
 317 851 333 836 342 814 c 1
 351 836 366 851 383 851 c 0x95
 411 851 433 814 433 767 c 0
 433 754 431 742 428 730 c 1
 437 748 451 762 467 762 c 1xa2
 482 762 495 752 504 735 c 1
 502 745 500 755 500 767 c 0
 500 814 522 851 550 851 c 0
 578 851 600 814 600 767 c 0
 600 720 578 684 550 684 c 0xac
 535 684 522 693 513 710 c 1
 515 700 517 691 517 679 c 0
 517 632 495 595 467 595 c 0x12
 450 595 435 608 426 630 c 1
 430 618 433 604 433 589 c 0
 433 542 411 505 383 505 c 0
 368 505 355 515 346 532 c 1
 348 522 350 512 350 500 c 0
 350 488 348 478 346 468 c 1
 355 485 368 495 383 495 c 1
 411 495 433 458 433 411 c 0x2140
 433 396 430 382 426 370 c 1
 435 392 450 405 467 405 c 1
 495 405 517 368 517 321 c 0x1020
 517 309 515 300 513 290 c 1
 522 307 535 316 550 316 c 1
 578 316 600 280 600 233 c 0
 600 186 578 149 550 149 c 0x0810
 522 149 500 186 500 233 c 0
 500 245 502 255 504 265 c 1
 495 248 482 238 467 238 c 1x0820
 451 238 437 252 428 270 c 1
 431 258 433 246 433 233 c 0
 433 186 411 149 383 149 c 0
 366 149 351 164 342 186 c 1
 333 164 317 149 300 149 c 0
 283 149 267 164 258 186 c 1
 249 164 234 149 217 149 c 0
 199 149 184 165 175 188 c 1
 166 165 151 149 133 149 c 1
 116 149 101 164 92 186 c 1
 83 164 67 149 50 149 c 0x2810
EndSplineSet
EndChar

StartChar: Q
Encoding: 81 81 83
Width: 800
VWidth: -334
UnlinkRmOvrlpSave: 1
Flags: HW
HStem: -1 167<174 235 258 342 441 502> 138 167<382 426> 278 167<311 378> 834 167<174 235 258 342 365 426>
VStem: 90 100<160 290 293 429 431 569 571 707 710 840> 143 100<13 143 857 987> 250 100<13 152 848 987> 303 100<294 431> 357 100<160 286 857 987> 410 100<13 143 297 429 431 569 571 707 710 840>
LayerCount: 2
Fore
SplineSet
50 149 m 0xb040
 22 149 0 186 0 233 c 0
 0 280 22 316 50 316 c 0xb040
 65 316 78 307 87 290 c 1
 85 300 83 309 83 321 c 0
 83 368 105 405 133 405 c 0x5080
 150 405 165 392 174 370 c 1
 170 382 167 396 167 411 c 0
 167 458 189 495 217 495 c 0
 245 495 267 458 267 411 c 0x31
 267 364 245 328 217 328 c 0
 200 328 185 341 176 363 c 1
 180 351 183 336 183 321 c 0
 183 308 181 297 178 285 c 1
 187 303 201 316 217 316 c 0
 234 316 249 302 258 280 c 1
 267 302 283 316 300 316 c 0
 317 316 333 302 342 280 c 1
 351 302 366 316 383 316 c 0
 401 316 416 301 425 278 c 1
 434 301 449 316 467 316 c 0x5140
 482 316 495 307 504 290 c 1
 502 300 500 309 500 321 c 0
 500 368 522 405 550 405 c 0
 578 405 600 368 600 321 c 0
 600 274 578 238 550 238 c 0x5080
 535 238 522 248 513 265 c 1
 515 255 517 245 517 233 c 0
 517 186 495 149 467 149 c 0
 449 149 434 165 425 188 c 1
 416 165 401 149 383 149 c 0
 366 149 351 164 342 186 c 1
 333 164 317 149 300 149 c 0
 283 149 267 164 258 186 c 1
 249 164 234 149 217 149 c 0x5040
 189 149 167 186 167 233 c 0
 167 246 169 258 172 270 c 1
 163 252 149 238 133 238 c 0x3080
 118 238 105 248 96 265 c 1
 98 255 100 245 100 233 c 0
 100 186 78 149 50 149 c 0xb040
50 416 m 0x92
 22 416 0 453 0 500 c 0
 0 547 22 584 50 584 c 0
 78 584 100 547 100 500 c 0
 100 453 78 416 50 416 c 0x92
50 595 m 0x94
 22 595 0 632 0 679 c 0
 0 726 22 762 50 762 c 0x94
 65 762 78 752 87 735 c 1
 85 745 83 755 83 767 c 0
 83 814 105 851 133 851 c 0
 151 851 166 835 175 812 c 1
 184 835 199 851 217 851 c 0
 234 851 249 836 258 814 c 1
 267 836 283 851 300 851 c 1
 317 851 333 836 342 814 c 1
 351 836 366 851 383 851 c 0
 401 851 416 835 425 812 c 1
 434 835 449 851 467 851 c 0x58
 495 851 517 814 517 767 c 0
 517 755 515 745 513 735 c 1
 522 752 535 762 550 762 c 0
 578 762 600 726 600 679 c 0
 600 632 578 595 550 595 c 0x54
 522 595 500 632 500 679 c 0
 500 691 502 700 504 710 c 1
 495 693 482 684 467 684 c 0
 449 684 434 699 425 722 c 1
 416 699 401 684 383 684 c 0
 366 684 351 698 342 720 c 1
 333 698 317 684 300 684 c 0
 283 684 267 698 258 720 c 1
 249 698 234 684 217 684 c 1
 199 684 184 699 175 722 c 1
 166 699 151 684 133 684 c 0x58
 118 684 105 693 96 710 c 1
 98 700 100 691 100 679 c 0
 100 632 78 595 50 595 c 0x94
550 416 m 0x12
 522 416 500 453 500 500 c 0
 500 547 522 584 550 584 c 0
 578 584 600 547 600 500 c 0
 600 453 578 416 550 416 c 0x12
EndSplineSet
EndChar

StartChar: U
Encoding: 85 85 84
Width: 800
VWidth: -334
UnlinkRmOvrlpSave: 1
Flags: HW
HStem: -1 167<174 235 258 342 365 426> 968 33G<126 154 446 474>
VStem: 90 100<160 290 293 429 431 569 571 707 710 847 848 987> 143 100<13 143> 250 100<13 152> 357 100<13 143> 410 100<160 290 293 429 431 569 571 707 710 847 848 987>
LayerCount: 2
Fore
SplineSet
50 238 m 1xcc
 22 238 0 274 0 321 c 0
 0 368 22 405 50 405 c 0xcc
 78 405 100 368 100 321 c 0
 100 309 98 300 96 290 c 1
 105 307 118 316 133 316 c 1
 151 316 166 301 175 278 c 1
 184 301 199 316 217 316 c 1
 234 316 249 302 258 280 c 1
 267 302 283 316 300 316 c 0
 317 316 333 302 342 280 c 1
 351 302 366 316 383 316 c 0
 401 316 416 301 425 278 c 1
 434 301 449 316 467 316 c 0
 484 316 499 302 508 280 c 1
 517 302 533 316 550 316 c 0
 578 316 600 280 600 233 c 0
 600 186 578 149 550 149 c 0
 533 149 517 164 508 186 c 1
 499 164 484 149 467 149 c 0
 449 149 434 165 425 188 c 1
 416 165 401 149 383 149 c 0
 366 149 351 164 342 186 c 1
 333 164 317 149 300 149 c 0
 283 149 267 164 258 186 c 1
 249 164 234 149 217 149 c 0
 199 149 184 165 175 188 c 1
 166 165 151 149 133 149 c 1xca
 105 149 83 186 83 233 c 0
 83 245 85 255 87 265 c 1
 78 248 65 238 50 238 c 1xcc
50 416 m 0
 22 416 0 453 0 500 c 0
 0 547 22 584 50 584 c 0
 78 584 100 547 100 500 c 0
 100 453 78 416 50 416 c 0
50 595 m 0xd8
 22 595 0 632 0 679 c 0
 0 726 22 762 50 762 c 0xd8
 65 762 78 752 87 735 c 1
 85 745 83 755 83 767 c 0
 83 814 105 851 133 851 c 0
 151 851 166 835 175 812 c 1
 184 835 199 851 217 851 c 0
 234 851 249 836 258 814 c 1
 267 836 283 851 300 851 c 1
 317 851 333 836 342 814 c 1
 351 836 366 851 383 851 c 0
 401 851 416 835 425 812 c 1
 434 835 449 851 467 851 c 0
 484 851 499 836 508 814 c 1
 517 836 533 851 550 851 c 0
 578 851 600 814 600 767 c 0
 600 720 578 684 550 684 c 0
 533 684 517 698 508 720 c 1
 499 698 484 684 467 684 c 0
 449 684 434 699 425 722 c 1
 416 699 401 684 383 684 c 0
 366 684 351 698 342 720 c 1
 333 698 317 684 300 684 c 0
 283 684 267 698 258 720 c 1
 249 698 234 684 217 684 c 1
 199 684 184 699 175 722 c 1
 166 699 151 684 133 684 c 0xe8
 118 684 105 693 96 710 c 1
 98 700 100 691 100 679 c 0
 100 632 78 595 50 595 c 0xd8
EndSplineSet
EndChar

StartChar: Y
Encoding: 89 89 85
Width: 800
VWidth: -334
UnlinkRmOvrlpSave: 1
Flags: HW
HStem: -1 35G<286 314> -1 35G<286 314> 555 167<222 266 334 378> 695 167<174 218 382 426> 834 167<98 159 441 502>
VStem: 90 100<857 987> 143 100<711 840> 197 100<578 706> 250 100<13 152 153 290 293 429 431 561> 303 100<578 706> 357 100<711 840> 410 100<857 987>
LayerCount: 2
Fore
SplineSet
50 416 m 0x2080
 22 416 0 453 0 500 c 0
 0 547 22 584 50 584 c 0
 67 584 83 569 92 547 c 1
 101 569 116 584 133 584 c 1
 151 584 166 568 175 545 c 1
 184 568 199 584 217 584 c 0
 234 584 249 569 258 547 c 1
 267 569 283 584 300 584 c 1xa080
 315 584 328 574 337 557 c 1
 335 567 333 577 333 589 c 0
 333 636 355 672 383 672 c 0xa1
 400 672 415 659 424 637 c 1
 420 649 417 664 417 679 c 0
 417 726 439 762 467 762 c 0x12
 482 762 495 752 504 735 c 1
 502 745 500 755 500 767 c 0
 500 814 522 851 550 851 c 0
 578 851 600 814 600 767 c 0
 600 720 578 684 550 684 c 0x0c
 535 684 522 693 513 710 c 1
 515 700 517 691 517 679 c 0
 517 632 495 595 467 595 c 0x12
 450 595 435 608 426 630 c 1
 430 618 433 604 433 589 c 0
 433 542 411 505 383 505 c 0
 368 505 355 515 346 532 c 1
 348 522 350 512 350 500 c 0
 350 488 348 478 346 468 c 1
 355 485 368 495 383 495 c 1
 411 495 433 458 433 411 c 0x2140
 433 396 430 382 426 370 c 1
 435 392 450 405 467 405 c 1
 495 405 517 368 517 321 c 0x1020
 517 309 515 300 513 290 c 1
 522 307 535 316 550 316 c 1
 578 316 600 280 600 233 c 0
 600 186 578 149 550 149 c 0x0810
 522 149 500 186 500 233 c 0
 500 245 502 255 504 265 c 1
 495 248 482 238 467 238 c 1x0820
 439 238 417 274 417 321 c 0
 417 336 420 351 424 363 c 1
 415 341 400 328 383 328 c 1x1040
 355 328 333 364 333 411 c 0
 333 423 335 433 337 443 c 1
 328 426 315 416 300 416 c 1
 283 416 267 431 258 453 c 1
 249 431 234 416 217 416 c 0
 199 416 184 432 175 455 c 1
 166 432 151 416 133 416 c 1
 116 416 101 431 92 453 c 1
 83 431 67 416 50 416 c 0x2080
EndSplineSet
EndChar

StartChar: bracketright
Encoding: 93 93 86
Width: 800
VWidth: -334
UnlinkRmOvrlpSave: 1
Flags: HW
HStem: -1 167<151 235 258 342> 834 167<151 235 258 342>
VStem: 143 100<13 152 848 987> 250 100<13 152 848 987> 357 100<13 152 153 290 293 429 431 569 571 707 710 847 848 987>
CounterMasks: 1 e0
LayerCount: 2
Fore
SplineSet
50 238 m 0
 22 238 0 274 0 321 c 0
 0 368 22 405 50 405 c 0
 67 405 83 390 92 368 c 1
 101 390 116 405 133 405 c 0
 151 405 166 389 175 366 c 1
 184 389 199 405 217 405 c 1
 234 405 249 390 258 368 c 1
 267 390 283 405 300 405 c 0
 317 405 333 390 342 368 c 1
 351 390 366 405 383 405 c 0
 401 405 416 389 425 366 c 1
 434 389 449 405 467 405 c 0
 484 405 499 390 508 368 c 1
 517 390 533 405 550 405 c 0
 578 405 600 368 600 321 c 0
 600 274 578 238 550 238 c 0
 533 238 517 253 508 275 c 1
 499 253 484 238 467 238 c 0
 449 238 434 253 425 276 c 1
 416 253 401 238 383 238 c 0
 366 238 351 253 342 275 c 1
 333 253 317 238 300 238 c 0
 283 238 267 253 258 275 c 1
 249 253 234 238 217 238 c 0
 199 238 184 253 175 276 c 1
 166 253 151 238 133 238 c 1
 116 238 101 253 92 275 c 1
 83 253 67 238 50 238 c 0
50 416 m 0
 22 416 0 453 0 500 c 0
 0 547 22 584 50 584 c 0
 78 584 100 547 100 500 c 0
 100 453 78 416 50 416 c 0
50 595 m 0
 22 595 0 632 0 679 c 0
 0 726 22 762 50 762 c 0
 78 762 100 726 100 679 c 0
 100 632 78 595 50 595 c 0
550 416 m 0
 522 416 500 453 500 500 c 0
 500 547 522 584 550 584 c 0
 578 584 600 547 600 500 c 0
 600 453 578 416 550 416 c 0
550 595 m 0
 522 595 500 632 500 679 c 0
 500 726 522 762 550 762 c 0
 578 762 600 726 600 679 c 0
 600 632 578 595 550 595 c 0
EndSplineSet
EndChar

StartChar: a
Encoding: 97 97 87
Width: 800
VWidth: -334
UnlinkRmOvrlpSave: 1
Flags: HW
HStem: -1 35G<126 154 446 474> -1 35G<126 154 446 474> 278 167<205 289 311 395> 555 167<174 218 382 426> 695 167<222 266 334 378> 968 33G<286 314>
VStem: 90 100<13 152 153 290 293 429 431 561> 143 100<578 706> 197 100<292 431 711 840> 250 100<856 987> 303 100<292 431 711 840> 357 100<578 706> 410 100<13 152 153 290 293 429 431 561>
LayerCount: 2
Fore
SplineSet
50 149 m 0x3408
 22 149 0 186 0 233 c 0
 0 280 22 316 50 316 c 0
 67 316 83 302 92 280 c 1
 101 302 116 316 133 316 c 0
 151 316 166 301 175 278 c 1
 184 301 199 316 217 316 c 1
 234 316 249 302 258 280 c 1
 267 302 283 316 300 316 c 0xb408
 315 316 328 307 337 290 c 1
 335 300 333 309 333 321 c 0
 333 368 355 405 383 405 c 0xb410
 400 405 415 392 424 370 c 1
 420 382 417 396 417 411 c 0
 417 458 439 495 467 495 c 0
 482 495 495 485 504 468 c 1
 502 478 500 488 500 500 c 0
 500 512 502 522 504 532 c 1
 495 515 482 505 467 505 c 0x2ca0
 439 505 417 542 417 589 c 0
 417 604 420 618 424 630 c 1
 415 608 400 595 383 595 c 0x2d
 355 595 333 632 333 679 c 0
 333 691 335 700 337 710 c 1
 328 693 315 684 300 684 c 0
 283 684 267 698 258 720 c 1
 249 698 234 684 217 684 c 1
 199 684 184 699 175 722 c 1
 166 699 151 684 133 684 c 0
 116 684 101 698 92 720 c 1
 83 698 67 684 50 684 c 1
 22 684 0 720 0 767 c 0
 0 814 22 851 50 851 c 0
 67 851 83 836 92 814 c 1
 101 836 116 851 133 851 c 1
 151 851 166 835 175 812 c 1
 184 835 199 851 217 851 c 0
 234 851 249 836 258 814 c 1
 267 836 283 851 300 851 c 1xb6
 328 851 350 814 350 767 c 0
 350 755 348 745 346 735 c 1
 355 752 368 762 383 762 c 0xb5
 411 762 433 726 433 679 c 0
 433 664 430 649 426 637 c 1
 435 659 450 672 467 672 c 0xb480
 495 672 517 636 517 589 c 0
 517 577 515 567 513 557 c 1
 522 574 535 584 550 584 c 0
 578 584 600 547 600 500 c 0
 600 453 578 416 550 416 c 0x2c40
 535 416 522 426 513 443 c 1
 515 433 517 423 517 411 c 0
 517 364 495 328 467 328 c 0x2c20
 450 328 435 341 426 363 c 1
 430 351 433 336 433 321 c 0
 433 274 411 238 383 238 c 0x3410
 368 238 355 248 346 265 c 1
 348 255 350 245 350 233 c 0
 350 186 328 149 300 149 c 0
 283 149 267 164 258 186 c 1
 249 164 234 149 217 149 c 0
 199 149 184 165 175 188 c 1
 166 165 151 149 133 149 c 1
 116 149 101 164 92 186 c 1
 83 164 67 149 50 149 c 0x3408
217 328 m 0x2420
 189 328 167 364 167 411 c 0
 167 458 189 495 217 495 c 0
 245 495 267 458 267 411 c 0
 267 364 245 328 217 328 c 0x2420
217 505 m 0x2480
 189 505 167 542 167 589 c 0
 167 636 189 672 217 672 c 0
 245 672 267 636 267 589 c 0
 267 542 245 505 217 505 c 0x2480
EndSplineSet
EndChar

StartChar: e
Encoding: 101 101 88
Width: 800
VWidth: -334
UnlinkRmOvrlpSave: 1
Flags: HW
HStem: -1 167<205 289 311 395 418 502> 416 167<205 289 311 395> 834 167<205 289 311 395 418 502>
VStem: 90 100<13 152 153 290 293 429 431 569 571 707 710 847 848 987> 197 100<13 152 431 569 848 987> 303 100<13 152 431 569 848 987> 410 100<13 152 848 987>
CounterMasks: 1 0e
LayerCount: 2
Fore
SplineSet
50 149 m 0
 22 149 0 186 0 233 c 0
 0 280 22 316 50 316 c 0
 78 316 100 280 100 233 c 0
 100 186 78 149 50 149 c 0
50 328 m 0
 22 328 0 364 0 411 c 0
 0 458 22 495 50 495 c 0
 78 495 100 458 100 411 c 0
 100 364 78 328 50 328 c 0
50 505 m 0
 22 505 0 542 0 589 c 0
 0 636 22 672 50 672 c 0
 78 672 100 636 100 589 c 0
 100 542 78 505 50 505 c 0
50 684 m 1
 22 684 0 720 0 767 c 0
 0 814 22 851 50 851 c 0
 67 851 83 836 92 814 c 1
 101 836 116 851 133 851 c 1
 151 851 166 835 175 812 c 1
 184 835 199 851 217 851 c 0
 234 851 249 836 258 814 c 1
 267 836 283 851 300 851 c 1
 317 851 333 836 342 814 c 1
 351 836 366 851 383 851 c 0
 401 851 416 835 425 812 c 1
 434 835 449 851 467 851 c 0
 484 851 499 836 508 814 c 1
 517 836 533 851 550 851 c 0
 578 851 600 814 600 767 c 0
 600 720 578 684 550 684 c 0
 533 684 517 698 508 720 c 1
 499 698 484 684 467 684 c 0
 449 684 434 699 425 722 c 1
 416 699 401 684 383 684 c 0
 366 684 351 698 342 720 c 1
 333 698 317 684 300 684 c 0
 283 684 267 698 258 720 c 1
 249 698 234 684 217 684 c 1
 199 684 184 699 175 722 c 1
 166 699 151 684 133 684 c 0
 116 684 101 698 92 720 c 1
 83 698 67 684 50 684 c 1
300 328 m 0
 272 328 250 364 250 411 c 0
 250 458 272 495 300 495 c 0
 328 495 350 458 350 411 c 0
 350 364 328 328 300 328 c 0
300 505 m 0
 272 505 250 542 250 589 c 0
 250 636 272 672 300 672 c 0
 328 672 350 636 350 589 c 0
 350 542 328 505 300 505 c 0
550 149 m 0
 522 149 500 186 500 233 c 0
 500 280 522 316 550 316 c 0
 578 316 600 280 600 233 c 0
 600 186 578 149 550 149 c 0
550 328 m 0
 522 328 500 364 500 411 c 0
 500 458 522 495 550 495 c 0
 578 495 600 458 600 411 c 0
 600 364 578 328 550 328 c 0
550 505 m 0
 522 505 500 542 500 589 c 0
 500 636 522 672 550 672 c 0
 578 672 600 636 600 589 c 0
 600 542 578 505 550 505 c 0
EndSplineSet
EndChar

StartChar: i
Encoding: 105 105 89
Width: 800
VWidth: -334
UnlinkRmOvrlpSave: 1
Flags: HW
HStem: -1 167<151 235 365 449> 834 167<151 235 365 449>
VStem: 143 100<13 152 848 987> 250 100<13 152 153 290 293 429 431 569 571 707 710 847 848 987> 357 100<13 152 848 987>
CounterMasks: 1 e0
LayerCount: 2
Fore
SplineSet
50 238 m 0
 22 238 0 274 0 321 c 0
 0 368 22 405 50 405 c 0
 78 405 100 368 100 321 c 0
 100 274 78 238 50 238 c 0
50 416 m 0
 22 416 0 453 0 500 c 0
 0 547 22 584 50 584 c 0
 67 584 83 569 92 547 c 1
 101 569 116 584 133 584 c 1
 151 584 166 568 175 545 c 1
 184 568 199 584 217 584 c 0
 234 584 249 569 258 547 c 1
 267 569 283 584 300 584 c 1
 317 584 333 569 342 547 c 1
 351 569 366 584 383 584 c 0
 401 584 416 568 425 545 c 1
 434 568 449 584 467 584 c 0
 484 584 499 569 508 547 c 1
 517 569 533 584 550 584 c 0
 578 584 600 547 600 500 c 0
 600 453 578 416 550 416 c 0
 533 416 517 431 508 453 c 1
 499 431 484 416 467 416 c 0
 449 416 434 432 425 455 c 1
 416 432 401 416 383 416 c 0
 366 416 351 431 342 453 c 1
 333 431 317 416 300 416 c 0
 283 416 267 431 258 453 c 1
 249 431 234 416 217 416 c 0
 199 416 184 432 175 455 c 1
 166 432 151 416 133 416 c 1
 116 416 101 431 92 453 c 1
 83 431 67 416 50 416 c 0
50 595 m 0
 22 595 0 632 0 679 c 0
 0 726 22 762 50 762 c 0
 78 762 100 726 100 679 c 0
 100 632 78 595 50 595 c 0
550 238 m 0
 522 238 500 274 500 321 c 0
 500 368 522 405 550 405 c 0
 578 405 600 368 600 321 c 0
 600 274 578 238 550 238 c 0
550 595 m 0
 522 595 500 632 500 679 c 0
 500 726 522 762 550 762 c 0
 578 762 600 726 600 679 c 0
 600 632 578 595 550 595 c 0
EndSplineSet
EndChar

StartChar: m
Encoding: 109 109 90
Width: 800
VWidth: -334
UnlinkRmOvrlpSave: 1
Flags: HW
HStem: -1 35G<126 154 446 474> -1 35G<126 154 446 474> 555 167<222 266 334 378> 695 167<174 218 382 426> 834 167<98 159 441 502>
VStem: 90 100<13 152 153 290 293 429 431 569 571 703 857 987> 143 100<714 840> 197 100<578 706> 250 100<431 561> 303 100<578 706> 357 100<714 840> 410 100<13 152 153 290 293 429 431 569 571 703 857 987>
LayerCount: 2
Fore
SplineSet
50 149 m 0x2810
 22 149 0 186 0 233 c 0
 0 280 22 316 50 316 c 0
 67 316 83 302 92 280 c 1
 101 302 116 316 133 316 c 0
 151 316 166 301 175 278 c 1
 184 301 199 316 217 316 c 1
 234 316 249 302 258 280 c 1
 267 302 283 316 300 316 c 0
 317 316 333 302 342 280 c 1
 351 302 366 316 383 316 c 0
 399 316 413 303 422 285 c 1
 419 297 417 308 417 321 c 0
 417 336 420 351 424 363 c 1
 415 341 400 328 383 328 c 1x9050
 355 328 333 364 333 411 c 0
 333 423 335 433 337 443 c 1
 328 426 315 416 300 416 c 1
 272 416 250 453 250 500 c 0
 250 547 272 584 300 584 c 0
 315 584 328 574 337 557 c 1
 335 567 333 577 333 589 c 0x2080
 333 636 355 672 383 672 c 0
 400 672 415 659 424 637 c 1
 420 649 417 664 417 679 c 0
 417 692 419 703 422 715 c 1
 413 697 399 684 383 684 c 1
 366 684 351 698 342 720 c 1
 333 698 317 684 300 684 c 0
 283 684 267 698 258 720 c 1
 249 698 234 684 217 684 c 1
 199 684 184 699 175 722 c 1
 166 699 151 684 133 684 c 0
 116 684 101 698 92 720 c 1
 83 698 67 684 50 684 c 1
 22 684 0 720 0 767 c 0
 0 814 22 851 50 851 c 0
 67 851 83 836 92 814 c 1
 101 836 116 851 133 851 c 1
 151 851 166 835 175 812 c 1
 184 835 199 851 217 851 c 0
 234 851 249 836 258 814 c 1
 267 836 283 851 300 851 c 1
 317 851 333 836 342 814 c 1
 351 836 366 851 383 851 c 0x95
 411 851 433 814 433 767 c 0
 433 754 431 742 428 730 c 1
 437 748 451 762 467 762 c 1xa2
 482 762 495 752 504 735 c 1
 502 745 500 755 500 767 c 0
 500 814 522 851 550 851 c 0
 578 851 600 814 600 767 c 0
 600 720 578 684 550 684 c 0xac
 535 684 522 693 513 710 c 1
 515 700 517 691 517 679 c 0
 517 632 495 595 467 595 c 0x12
 450 595 435 608 426 630 c 1
 430 618 433 604 433 589 c 0
 433 542 411 505 383 505 c 0
 368 505 355 515 346 532 c 1
 348 522 350 512 350 500 c 0
 350 488 348 478 346 468 c 1
 355 485 368 495 383 495 c 1
 411 495 433 458 433 411 c 0x2140
 433 396 430 382 426 370 c 1
 435 392 450 405 467 405 c 1
 495 405 517 368 517 321 c 0x1020
 517 309 515 300 513 290 c 1
 522 307 535 316 550 316 c 1
 578 316 600 280 600 233 c 0
 600 186 578 149 550 149 c 0x0810
 522 149 500 186 500 233 c 0
 500 245 502 255 504 265 c 1
 495 248 482 238 467 238 c 1x0820
 451 238 437 252 428 270 c 1
 431 258 433 246 433 233 c 0
 433 186 411 149 383 149 c 0
 366 149 351 164 342 186 c 1
 333 164 317 149 300 149 c 0
 283 149 267 164 258 186 c 1
 249 164 234 149 217 149 c 0
 199 149 184 165 175 188 c 1
 166 165 151 149 133 149 c 1
 116 149 101 164 92 186 c 1
 83 164 67 149 50 149 c 0x2810
EndSplineSet
EndChar

StartChar: q
Encoding: 113 113 91
Width: 800
VWidth: -334
UnlinkRmOvrlpSave: 1
Flags: HW
HStem: -1 167<174 235 258 342 441 502> 138 167<382 426> 278 167<311 378> 834 167<174 235 258 342 365 426>
VStem: 90 100<160 290 293 429 431 569 571 707 710 840> 143 100<13 143 857 987> 250 100<13 152 848 987> 303 100<294 431> 357 100<160 286 857 987> 410 100<13 143 297 429 431 569 571 707 710 840>
LayerCount: 2
Fore
SplineSet
50 149 m 0xb040
 22 149 0 186 0 233 c 0
 0 280 22 316 50 316 c 0xb040
 65 316 78 307 87 290 c 1
 85 300 83 309 83 321 c 0
 83 368 105 405 133 405 c 0x5080
 150 405 165 392 174 370 c 1
 170 382 167 396 167 411 c 0
 167 458 189 495 217 495 c 0
 245 495 267 458 267 411 c 0x31
 267 364 245 328 217 328 c 0
 200 328 185 341 176 363 c 1
 180 351 183 336 183 321 c 0
 183 308 181 297 178 285 c 1
 187 303 201 316 217 316 c 0
 234 316 249 302 258 280 c 1
 267 302 283 316 300 316 c 0
 317 316 333 302 342 280 c 1
 351 302 366 316 383 316 c 0
 401 316 416 301 425 278 c 1
 434 301 449 316 467 316 c 0x5140
 482 316 495 307 504 290 c 1
 502 300 500 309 500 321 c 0
 500 368 522 405 550 405 c 0
 578 405 600 368 600 321 c 0
 600 274 578 238 550 238 c 0x5080
 535 238 522 248 513 265 c 1
 515 255 517 245 517 233 c 0
 517 186 495 149 467 149 c 0
 449 149 434 165 425 188 c 1
 416 165 401 149 383 149 c 0
 366 149 351 164 342 186 c 1
 333 164 317 149 300 149 c 0
 283 149 267 164 258 186 c 1
 249 164 234 149 217 149 c 0x5040
 189 149 167 186 167 233 c 0
 167 246 169 258 172 270 c 1
 163 252 149 238 133 238 c 0x3080
 118 238 105 248 96 265 c 1
 98 255 100 245 100 233 c 0
 100 186 78 149 50 149 c 0xb040
50 416 m 0x92
 22 416 0 453 0 500 c 0
 0 547 22 584 50 584 c 0
 78 584 100 547 100 500 c 0
 100 453 78 416 50 416 c 0x92
50 595 m 0x94
 22 595 0 632 0 679 c 0
 0 726 22 762 50 762 c 0x94
 65 762 78 752 87 735 c 1
 85 745 83 755 83 767 c 0
 83 814 105 851 133 851 c 0
 151 851 166 835 175 812 c 1
 184 835 199 851 217 851 c 0
 234 851 249 836 258 814 c 1
 267 836 283 851 300 851 c 1
 317 851 333 836 342 814 c 1
 351 836 366 851 383 851 c 0
 401 851 416 835 425 812 c 1
 434 835 449 851 467 851 c 0x58
 495 851 517 814 517 767 c 0
 517 755 515 745 513 735 c 1
 522 752 535 762 550 762 c 0
 578 762 600 726 600 679 c 0
 600 632 578 595 550 595 c 0x54
 522 595 500 632 500 679 c 0
 500 691 502 700 504 710 c 1
 495 693 482 684 467 684 c 0
 449 684 434 699 425 722 c 1
 416 699 401 684 383 684 c 0
 366 684 351 698 342 720 c 1
 333 698 317 684 300 684 c 0
 283 684 267 698 258 720 c 1
 249 698 234 684 217 684 c 1
 199 684 184 699 175 722 c 1
 166 699 151 684 133 684 c 0x58
 118 684 105 693 96 710 c 1
 98 700 100 691 100 679 c 0
 100 632 78 595 50 595 c 0x94
550 416 m 0x12
 522 416 500 453 500 500 c 0
 500 547 522 584 550 584 c 0
 578 584 600 547 600 500 c 0
 600 453 578 416 550 416 c 0x12
EndSplineSet
EndChar

StartChar: u
Encoding: 117 117 92
Width: 800
VWidth: -334
UnlinkRmOvrlpSave: 1
Flags: HW
HStem: -1 167<174 235 258 342 365 426> 968 33G<126 154 446 474>
VStem: 90 100<160 290 293 429 431 569 571 707 710 847 848 987> 143 100<13 143> 250 100<13 152> 357 100<13 143> 410 100<160 290 293 429 431 569 571 707 710 847 848 987>
LayerCount: 2
Fore
SplineSet
50 238 m 1xcc
 22 238 0 274 0 321 c 0
 0 368 22 405 50 405 c 0xcc
 78 405 100 368 100 321 c 0
 100 309 98 300 96 290 c 1
 105 307 118 316 133 316 c 1
 151 316 166 301 175 278 c 1
 184 301 199 316 217 316 c 1
 234 316 249 302 258 280 c 1
 267 302 283 316 300 316 c 0
 317 316 333 302 342 280 c 1
 351 302 366 316 383 316 c 0
 401 316 416 301 425 278 c 1
 434 301 449 316 467 316 c 0
 484 316 499 302 508 280 c 1
 517 302 533 316 550 316 c 0
 578 316 600 280 600 233 c 0
 600 186 578 149 550 149 c 0
 533 149 517 164 508 186 c 1
 499 164 484 149 467 149 c 0
 449 149 434 165 425 188 c 1
 416 165 401 149 383 149 c 0
 366 149 351 164 342 186 c 1
 333 164 317 149 300 149 c 0
 283 149 267 164 258 186 c 1
 249 164 234 149 217 149 c 0
 199 149 184 165 175 188 c 1
 166 165 151 149 133 149 c 1xca
 105 149 83 186 83 233 c 0
 83 245 85 255 87 265 c 1
 78 248 65 238 50 238 c 1xcc
50 416 m 0
 22 416 0 453 0 500 c 0
 0 547 22 584 50 584 c 0
 78 584 100 547 100 500 c 0
 100 453 78 416 50 416 c 0
50 595 m 0xd8
 22 595 0 632 0 679 c 0
 0 726 22 762 50 762 c 0xd8
 65 762 78 752 87 735 c 1
 85 745 83 755 83 767 c 0
 83 814 105 851 133 851 c 0
 151 851 166 835 175 812 c 1
 184 835 199 851 217 851 c 0
 234 851 249 836 258 814 c 1
 267 836 283 851 300 851 c 1
 317 851 333 836 342 814 c 1
 351 836 366 851 383 851 c 0
 401 851 416 835 425 812 c 1
 434 835 449 851 467 851 c 0
 484 851 499 836 508 814 c 1
 517 836 533 851 550 851 c 0
 578 851 600 814 600 767 c 0
 600 720 578 684 550 684 c 0
 533 684 517 698 508 720 c 1
 499 698 484 684 467 684 c 0
 449 684 434 699 425 722 c 1
 416 699 401 684 383 684 c 0
 366 684 351 698 342 720 c 1
 333 698 317 684 300 684 c 0
 283 684 267 698 258 720 c 1
 249 698 234 684 217 684 c 1
 199 684 184 699 175 722 c 1
 166 699 151 684 133 684 c 0xe8
 118 684 105 693 96 710 c 1
 98 700 100 691 100 679 c 0
 100 632 78 595 50 595 c 0xd8
EndSplineSet
EndChar

StartChar: y
Encoding: 121 121 93
Width: 800
VWidth: -334
UnlinkRmOvrlpSave: 1
Flags: HW
HStem: -1 35G<286 314> -1 35G<286 314> 555 167<222 266 334 378> 695 167<174 218 382 426> 834 167<98 159 441 502>
VStem: 90 100<857 987> 143 100<711 840> 197 100<578 706> 250 100<13 152 153 290 293 429 431 561> 303 100<578 706> 357 100<711 840> 410 100<857 987>
LayerCount: 2
Fore
SplineSet
50 416 m 0x2080
 22 416 0 453 0 500 c 0
 0 547 22 584 50 584 c 0
 67 584 83 569 92 547 c 1
 101 569 116 584 133 584 c 1
 151 584 166 568 175 545 c 1
 184 568 199 584 217 584 c 0
 234 584 249 569 258 547 c 1
 267 569 283 584 300 584 c 1xa080
 315 584 328 574 337 557 c 1
 335 567 333 577 333 589 c 0
 333 636 355 672 383 672 c 0xa1
 400 672 415 659 424 637 c 1
 420 649 417 664 417 679 c 0
 417 726 439 762 467 762 c 0x12
 482 762 495 752 504 735 c 1
 502 745 500 755 500 767 c 0
 500 814 522 851 550 851 c 0
 578 851 600 814 600 767 c 0
 600 720 578 684 550 684 c 0x0c
 535 684 522 693 513 710 c 1
 515 700 517 691 517 679 c 0
 517 632 495 595 467 595 c 0x12
 450 595 435 608 426 630 c 1
 430 618 433 604 433 589 c 0
 433 542 411 505 383 505 c 0
 368 505 355 515 346 532 c 1
 348 522 350 512 350 500 c 0
 350 488 348 478 346 468 c 1
 355 485 368 495 383 495 c 1
 411 495 433 458 433 411 c 0x2140
 433 396 430 382 426 370 c 1
 435 392 450 405 467 405 c 1
 495 405 517 368 517 321 c 0x1020
 517 309 515 300 513 290 c 1
 522 307 535 316 550 316 c 1
 578 316 600 280 600 233 c 0
 600 186 578 149 550 149 c 0x0810
 522 149 500 186 500 233 c 0
 500 245 502 255 504 265 c 1
 495 248 482 238 467 238 c 1x0820
 439 238 417 274 417 321 c 0
 417 336 420 351 424 363 c 1
 415 341 400 328 383 328 c 1x1040
 355 328 333 364 333 411 c 0
 333 423 335 433 337 443 c 1
 328 426 315 416 300 416 c 1
 283 416 267 431 258 453 c 1
 249 431 234 416 217 416 c 0
 199 416 184 432 175 455 c 1
 166 432 151 416 133 416 c 1
 116 416 101 431 92 453 c 1
 83 431 67 416 50 416 c 0x2080
EndSplineSet
EndChar

StartChar: braceright
Encoding: 125 125 94
Width: 800
VWidth: -334
UnlinkRmOvrlpSave: 1
Flags: HW
HStem: -1 167<151 235 258 342> 834 167<151 235 258 342>
VStem: 143 100<13 152 848 987> 250 100<13 152 848 987> 357 100<13 152 153 290 293 429 431 569 571 707 710 847 848 987>
CounterMasks: 1 e0
LayerCount: 2
Fore
SplineSet
50 238 m 0
 22 238 0 274 0 321 c 0
 0 368 22 405 50 405 c 0
 67 405 83 390 92 368 c 1
 101 390 116 405 133 405 c 0
 151 405 166 389 175 366 c 1
 184 389 199 405 217 405 c 1
 234 405 249 390 258 368 c 1
 267 390 283 405 300 405 c 0
 317 405 333 390 342 368 c 1
 351 390 366 405 383 405 c 0
 401 405 416 389 425 366 c 1
 434 389 449 405 467 405 c 0
 484 405 499 390 508 368 c 1
 517 390 533 405 550 405 c 0
 578 405 600 368 600 321 c 0
 600 274 578 238 550 238 c 0
 533 238 517 253 508 275 c 1
 499 253 484 238 467 238 c 0
 449 238 434 253 425 276 c 1
 416 253 401 238 383 238 c 0
 366 238 351 253 342 275 c 1
 333 253 317 238 300 238 c 0
 283 238 267 253 258 275 c 1
 249 253 234 238 217 238 c 0
 199 238 184 253 175 276 c 1
 166 253 151 238 133 238 c 1
 116 238 101 253 92 275 c 1
 83 253 67 238 50 238 c 0
50 416 m 0
 22 416 0 453 0 500 c 0
 0 547 22 584 50 584 c 0
 78 584 100 547 100 500 c 0
 100 453 78 416 50 416 c 0
50 595 m 0
 22 595 0 632 0 679 c 0
 0 726 22 762 50 762 c 0
 78 762 100 726 100 679 c 0
 100 632 78 595 50 595 c 0
550 416 m 0
 522 416 500 453 500 500 c 0
 500 547 522 584 550 584 c 0
 578 584 600 547 600 500 c 0
 600 453 578 416 550 416 c 0
550 595 m 0
 522 595 500 632 500 679 c 0
 500 726 522 762 550 762 c 0
 578 762 600 726 600 679 c 0
 600 632 578 595 550 595 c 0
EndSplineSet
EndChar
